<svg id="svg" version="1.1" xmlns="http://www.w3.org/2000/svg" xmlns:xlink="http://www.w3.org/1999/xlink" width="400" height="400" viewBox="0, 0, 400,400"><g id="svgg"><path id="path0" d="M188.500 47.778 C 188.088 47.807,186.625 47.908,185.250 48.003 C 170.960 48.989,156.481 51.680,141.750 56.089 C 140.925 56.336,139.875 56.645,139.417 56.777 C 138.276 57.106,138.282 57.104,138.000 57.213 C 137.862 57.266,136.962 57.552,136.000 57.849 C 133.223 58.704,126.369 61.271,124.225 62.258 C 123.936 62.391,123.651 62.500,123.591 62.500 C 123.496 62.500,122.876 62.758,121.583 63.333 C 121.400 63.415,120.875 63.644,120.417 63.842 C 119.958 64.040,119.133 64.407,118.583 64.658 C 118.033 64.909,117.096 65.329,116.500 65.591 C 113.920 66.727,105.039 71.264,102.667 72.659 C 102.071 73.009,101.302 73.454,100.958 73.648 C 99.732 74.339,99.220 74.641,96.917 76.030 C 93.524 78.077,93.095 78.350,89.500 80.754 C 82.388 85.510,74.451 91.598,68.846 96.597 C 65.060 99.973,63.946 101.024,59.940 104.996 C 56.216 108.689,56.281 108.585,57.792 108.442 C 58.410 108.384,88.935 108.335,125.625 108.335 L 192.333 108.333 192.333 78.000 L 192.333 47.667 190.792 47.696 C 189.944 47.712,188.912 47.749,188.500 47.778 M207.667 78.000 L 207.667 108.333 275.369 108.333 L 343.071 108.333 342.316 107.542 C 341.900 107.106,341.228 106.401,340.822 105.974 C 319.353 83.418,286.013 63.784,254.167 54.942 C 239.004 50.732,219.802 47.667,208.590 47.667 L 207.667 47.667 207.667 78.000 M194.896 123.933 C 189.296 125.037,184.594 129.507,183.166 135.083 C 182.486 137.740,171.796 213.356,171.797 215.500 C 171.802 223.315,177.816 229.799,185.708 230.498 C 188.149 230.714,272.904 230.717,275.300 230.501 C 283.248 229.784,289.327 223.215,289.333 215.337 C 289.334 214.039,278.222 136.338,277.825 134.869 C 276.365 129.457,271.889 125.216,266.344 123.989 C 264.434 123.567,197.022 123.513,194.896 123.933 M235.833 139.264 C 264.670 143.396,278.491 176.873,260.979 200.173 C 242.630 224.587,203.911 218.217,194.274 189.199 C 185.358 162.352,207.904 135.263,235.833 139.264 M2.277 231.292 C 2.185 231.880,1.569 239.435,1.401 242.052 C 1.358 242.711,1.285 254.144,1.237 267.458 L 1.150 291.667 47.075 291.667 L 93.000 291.667 93.000 261.167 L 93.000 230.667 47.688 230.667 L 2.376 230.667 2.277 231.292 M383.333 261.167 L 383.333 291.667 391.084 291.667 L 398.836 291.667 398.813 268.625 C 398.801 255.952,398.728 244.346,398.653 242.833 C 398.468 239.168,398.017 232.260,397.904 231.375 L 397.813 230.667 390.573 230.667 L 383.333 230.667 383.333 261.167 M169.333 268.833 L 169.333 291.667 184.667 291.667 L 200.000 291.667 200.000 268.833 L 200.000 246.000 184.667 246.000 L 169.333 246.000 169.333 268.833 M215.333 268.833 L 215.333 291.667 253.500 291.667 L 291.667 291.667 291.667 268.833 L 291.667 246.000 253.500 246.000 L 215.333 246.000 215.333 268.833 M263.113 253.678 C 277.569 255.650,281.301 274.879,268.634 282.127 C 261.013 286.487,251.361 283.513,247.402 275.583 C 241.981 264.726,251.082 252.037,263.113 253.678 M1.167 316.387 C 1.167 325.633,1.337 327.220,2.834 331.892 L 3.349 333.500 199.913 333.500 L 396.476 333.500 396.803 332.625 C 397.623 330.427,398.403 327.231,398.604 325.250 C 398.650 324.792,398.726 320.873,398.773 316.542 L 398.858 308.667 200.012 308.667 L 1.167 308.667 1.167 316.387 " stroke="none" fill="#2c84bb" fill-rule="evenodd"></path><path id="path1" d="M189.083 47.338 C 181.294 47.810,173.868 48.665,166.083 49.988 C 163.832 50.370,162.718 50.589,158.833 51.407 C 158.604 51.455,158.192 51.540,157.917 51.595 C 157.385 51.701,151.024 53.238,149.942 53.521 C 149.589 53.613,149.334 53.723,149.376 53.765 C 149.418 53.807,150.682 53.538,152.184 53.167 C 164.490 50.134,176.074 48.456,190.708 47.590 L 192.333 47.493 192.333 77.913 L 192.333 108.333 125.301 108.333 L 58.269 108.333 57.260 109.382 C 55.656 111.048,51.875 115.263,50.726 116.666 C 50.346 117.130,49.255 118.435,48.773 119.003 C 48.467 119.364,46.956 121.230,46.167 122.223 C 46.029 122.396,45.842 122.623,45.750 122.727 C 45.658 122.831,45.246 123.367,44.834 123.917 C 44.421 124.467,44.041 124.954,43.989 125.000 C 43.936 125.046,43.565 125.533,43.163 126.083 C 42.762 126.633,42.355 127.175,42.258 127.286 C 41.679 127.958,37.333 134.107,37.333 134.255 C 37.333 134.311,37.240 134.455,37.125 134.575 C 37.010 134.695,36.826 134.933,36.716 135.105 C 36.605 135.276,36.164 135.939,35.735 136.577 C 33.467 139.947,28.715 147.808,26.680 151.556 C 26.398 152.075,25.932 152.931,25.645 153.458 C 24.549 155.469,21.095 162.465,19.781 165.333 C 18.943 167.164,16.542 172.831,15.903 174.485 C 15.493 175.547,15.093 176.567,15.015 176.750 C 14.337 178.342,13.570 180.504,11.764 185.917 C 10.454 189.840,10.176 190.726,9.320 193.708 C 9.129 194.373,8.869 195.254,8.742 195.667 C 8.615 196.079,8.437 196.717,8.346 197.083 C 8.256 197.450,8.060 198.200,7.912 198.750 C 5.847 206.411,3.736 217.304,2.841 224.917 C 2.669 226.383,2.488 227.771,2.441 228.000 C 2.393 228.229,2.312 228.904,2.260 229.500 L 2.166 230.583 47.541 230.583 L 92.917 230.583 92.959 261.208 L 93.001 291.833 47.084 291.833 L 1.167 291.833 1.167 300.250 L 1.167 308.667 199.958 308.625 L 398.750 308.583 398.793 300.208 L 398.836 291.833 391.084 291.833 L 383.332 291.833 383.375 261.208 L 383.417 230.583 390.665 230.583 L 397.913 230.583 398.125 233.333 C 398.242 234.846,398.406 237.171,398.491 238.500 L 398.645 240.917 398.575 238.167 C 398.494 234.961,398.250 230.787,398.006 228.417 C 397.911 227.500,397.758 226.000,397.664 225.083 C 397.422 222.702,396.885 218.365,396.591 216.417 C 396.138 213.420,395.841 211.591,395.739 211.167 C 395.683 210.938,395.533 210.150,395.403 209.417 C 395.038 207.343,394.193 203.214,393.767 201.417 C 393.636 200.867,393.417 199.929,393.280 199.333 C 391.852 193.144,388.920 183.436,386.659 177.417 C 385.422 174.124,385.136 173.378,384.995 173.083 C 384.907 172.900,384.728 172.450,384.597 172.083 C 384.307 171.273,383.171 168.525,382.687 167.460 C 382.492 167.034,382.333 166.650,382.333 166.608 C 382.333 166.565,381.993 165.803,381.578 164.913 C 381.162 164.024,380.643 162.871,380.424 162.351 C 379.993 161.326,375.965 153.316,374.926 151.417 C 374.575 150.775,374.087 149.875,373.841 149.417 C 371.643 145.318,363.815 132.848,362.728 131.713 C 362.621 131.601,362.359 131.226,362.148 130.879 C 361.936 130.533,361.685 130.159,361.590 130.047 C 361.273 129.677,361.089 129.432,359.426 127.170 C 358.518 125.934,357.711 124.846,357.634 124.753 C 357.557 124.660,356.662 123.533,355.647 122.250 C 353.790 119.904,352.982 118.919,351.750 117.497 C 351.383 117.074,350.708 116.284,350.250 115.742 C 349.512 114.868,348.587 113.817,347.833 112.996 C 347.696 112.847,346.834 111.905,345.918 110.904 C 341.866 106.472,334.750 99.578,330.159 95.636 C 329.659 95.207,329.063 94.692,328.833 94.492 C 328.604 94.293,328.079 93.857,327.667 93.523 C 327.254 93.190,326.842 92.838,326.750 92.741 C 326.658 92.645,326.208 92.273,325.750 91.914 C 325.292 91.555,324.879 91.217,324.833 91.164 C 324.787 91.110,324.450 90.845,324.083 90.575 C 323.717 90.306,323.379 90.043,323.333 89.990 C 322.969 89.575,317.591 85.556,314.265 83.213 C 313.065 82.367,311.971 81.596,311.833 81.498 C 310.953 80.872,306.048 77.690,305.083 77.118 C 304.442 76.738,303.879 76.388,303.833 76.339 C 303.787 76.290,303.600 76.161,303.417 76.053 C 298.574 73.189,297.747 72.708,296.563 72.067 C 291.315 69.225,290.081 68.590,285.667 66.455 C 283.105 65.216,281.711 64.582,278.833 63.345 C 277.504 62.774,276.192 62.209,275.917 62.089 C 275.642 61.969,274.704 61.596,273.833 61.260 C 272.962 60.924,272.025 60.549,271.750 60.428 C 269.741 59.541,260.674 56.446,256.833 55.336 C 256.146 55.138,255.396 54.909,255.167 54.829 C 254.810 54.704,254.294 54.562,253.001 54.235 C 252.863 54.200,251.287 53.790,249.500 53.323 C 247.713 52.856,245.762 52.362,245.167 52.226 C 243.287 51.794,241.130 51.331,239.750 51.062 C 239.017 50.919,237.892 50.696,237.250 50.566 C 236.193 50.353,234.615 50.083,230.500 49.409 C 228.559 49.092,224.231 48.535,221.417 48.242 C 218.058 47.892,216.270 47.737,210.833 47.327 C 209.526 47.229,190.736 47.238,189.083 47.338 M214.417 47.933 C 261.946 51.316,306.063 71.432,340.167 105.272 L 343.250 108.331 275.375 108.332 L 207.500 108.333 207.500 78.028 C 207.500 61.360,207.551 47.672,207.612 47.610 C 207.734 47.488,209.018 47.549,214.417 47.933 M147.750 54.117 C 146.933 54.309,145.154 54.877,145.207 54.929 C 145.259 54.981,148.008 54.268,148.417 54.096 C 148.638 54.004,148.172 54.018,147.750 54.117 M266.583 123.958 C 272.365 125.531,276.498 129.538,277.920 134.948 C 278.697 137.904,289.360 214.077,289.278 216.083 C 288.977 223.432,283.471 229.443,276.079 230.493 C 275.108 230.631,262.595 230.668,229.667 230.633 L 184.583 230.583 183.320 230.222 C 176.252 228.203,171.779 222.468,171.775 215.417 C 171.774 212.934,182.471 137.336,183.178 134.833 C 184.921 128.659,190.228 124.211,196.500 123.667 C 197.279 123.599,213.067 123.555,231.583 123.569 L 265.250 123.595 266.583 123.958 M220.750 154.323 C 205.930 156.779,202.741 176.456,216.083 183.121 C 227.977 189.062,241.365 177.731,237.471 165.019 C 235.301 157.935,227.822 153.151,220.750 154.323 M154.125 261.208 L 154.168 291.833 131.167 291.833 L 108.167 291.833 108.167 261.278 C 108.167 244.472,108.217 230.672,108.278 230.611 C 108.340 230.549,118.671 230.518,131.237 230.541 L 154.083 230.583 154.125 261.208 M342.809 231.062 C 361.340 234.548,372.403 253.133,366.501 270.861 C 360.153 289.931,337.269 297.767,320.583 286.585 C 303.284 274.992,302.335 249.896,318.713 237.107 C 325.392 231.892,334.746 229.545,342.809 231.062 M334.716 242.259 C 321.263 244.222,314.138 259.382,321.171 271.083 C 329.004 284.117,348.294 283.101,354.820 269.310 C 361.319 255.577,349.788 240.061,334.716 242.259 M200.000 268.833 L 200.000 291.833 184.667 291.833 L 169.333 291.833 169.333 268.833 L 169.333 245.833 184.667 245.833 L 200.000 245.833 200.000 268.833 M291.667 268.833 L 291.667 291.833 253.417 291.833 L 215.167 291.833 215.167 268.833 L 215.167 245.833 253.417 245.833 L 291.667 245.833 291.667 268.833 M3.177 333.375 C 4.806 337.587,6.935 340.802,10.321 344.167 C 13.346 347.173,15.705 348.731,20.417 350.839 C 21.322 351.245,24.047 352.034,26.270 352.534 L 27.917 352.905 198.417 352.962 C 322.518 353.003,369.476 352.968,370.973 352.833 C 374.111 352.550,377.779 351.643,380.083 350.579 C 380.542 350.367,381.179 350.078,381.500 349.936 C 382.274 349.593,385.186 347.902,385.750 347.468 C 391.050 343.387,394.794 338.646,396.551 333.792 C 396.651 333.514,387.221 333.500,200.011 333.500 L 3.366 333.500 3.192 333.000 C 3.096 332.725,2.977 332.500,2.928 332.500 C 2.879 332.500,2.991 332.894,3.177 333.375 " stroke="none" fill="#bcbcbc" fill-rule="evenodd"></path><path id="path2" d="M227.500 138.996 C 194.759 141.837,180.432 181.626,203.920 204.484 C 228.527 228.430,269.511 210.297,268.622 175.857 C 268.062 154.184,249.035 137.128,227.500 138.996 M226.833 154.666 C 240.449 158.480,242.232 176.970,229.583 183.174 C 219.366 188.185,207.656 180.848,207.627 169.417 C 207.601 159.471,217.325 152.003,226.833 154.666 M108.333 261.167 L 108.333 291.667 131.167 291.667 L 154.000 291.667 154.000 261.167 L 154.000 230.667 131.167 230.667 L 108.333 230.667 108.333 261.167 " stroke="none" fill="#414141" fill-rule="evenodd"></path><path id="path3" d="M259.417 253.667 C 249.422 254.779,243.226 265.185,246.979 274.558 C 251.024 284.660,264.245 287.263,271.973 279.479 C 281.949 269.430,273.518 252.099,259.417 253.667 " stroke="none" fill="#c13d2d" fill-rule="evenodd"></path><path id="path4" d="M191.460 47.618 C 191.668 47.658,191.968 47.656,192.127 47.615 C 192.286 47.573,192.117 47.540,191.750 47.542 C 191.383 47.544,191.253 47.578,191.460 47.618 M207.577 47.708 C 207.533 47.823,207.517 61.529,207.541 78.167 L 207.584 108.417 207.625 78.052 L 207.667 47.687 208.292 47.621 L 208.917 47.556 208.286 47.528 C 207.913 47.511,207.624 47.585,207.577 47.708 M188.125 47.784 C 188.331 47.824,188.669 47.824,188.875 47.784 C 189.081 47.745,188.912 47.712,188.500 47.712 C 188.088 47.712,187.919 47.745,188.125 47.784 M211.044 47.786 C 211.297 47.825,211.672 47.824,211.877 47.784 C 212.082 47.744,211.875 47.713,211.417 47.714 C 210.958 47.716,210.791 47.748,211.044 47.786 M338.333 103.583 C 338.924 104.179,339.445 104.667,339.490 104.667 C 339.536 104.667,339.091 104.179,338.500 103.583 C 337.909 102.987,337.389 102.500,337.343 102.500 C 337.297 102.500,337.743 102.987,338.333 103.583 M342.250 107.500 C 342.701 107.958,343.108 108.333,343.154 108.333 C 343.200 108.333,342.868 107.958,342.417 107.500 C 341.965 107.042,341.558 106.667,341.513 106.667 C 341.467 106.667,341.799 107.042,342.250 107.500 M214.125 123.625 C 223.131 123.649,237.869 123.649,246.875 123.625 C 255.881 123.601,248.512 123.582,230.500 123.582 C 212.487 123.582,205.119 123.601,214.125 123.625 M273.826 128.042 C 274.517 128.778,274.667 128.910,274.667 128.785 C 274.667 128.758,274.310 128.402,273.875 127.993 L 273.083 127.250 273.826 128.042 M207.542 169.417 C 207.544 169.783,207.578 169.914,207.618 169.706 C 207.658 169.499,207.656 169.199,207.615 169.040 C 207.573 168.880,207.540 169.050,207.542 169.417 M221.875 184.782 C 222.035 184.823,222.298 184.823,222.458 184.782 C 222.619 184.740,222.487 184.705,222.167 184.705 C 221.846 184.705,221.715 184.740,221.875 184.782 M223.208 184.782 C 223.369 184.823,223.631 184.823,223.792 184.782 C 223.952 184.740,223.821 184.705,223.500 184.705 C 223.179 184.705,223.048 184.740,223.208 184.782 M284.742 226.208 L 284.083 226.917 284.792 226.258 C 285.450 225.645,285.577 225.500,285.450 225.500 C 285.423 225.500,285.105 225.819,284.742 226.208 M2.231 230.740 C 2.180 230.872,2.174 231.116,2.217 231.282 C 2.268 231.479,2.301 231.425,2.314 231.125 L 2.333 230.667 47.625 230.625 L 92.917 230.583 47.620 230.541 C 8.299 230.505,2.311 230.532,2.231 230.740 M108.278 230.611 C 108.217 230.672,108.167 244.472,108.167 261.278 L 108.167 291.833 131.167 291.833 L 154.168 291.833 154.125 261.208 L 154.083 230.583 131.237 230.541 C 118.671 230.518,108.340 230.549,108.278 230.611 M185.792 230.618 C 185.998 230.657,186.335 230.657,186.542 230.618 C 186.748 230.578,186.579 230.545,186.167 230.545 C 185.754 230.545,185.585 230.578,185.792 230.618 M274.458 230.618 C 274.665 230.657,275.002 230.657,275.208 230.618 C 275.415 230.578,275.246 230.545,274.833 230.545 C 274.421 230.545,274.252 230.578,274.458 230.618 M390.614 230.624 L 397.811 230.670 397.891 231.043 C 397.961 231.369,397.968 231.364,397.944 231.000 L 397.917 230.583 390.667 230.581 L 383.417 230.578 390.614 230.624 M154.000 261.167 L 154.000 291.667 131.167 291.667 L 108.333 291.667 108.333 261.167 L 108.333 230.667 131.167 230.667 L 154.000 230.667 154.000 261.167 M333.327 230.900 C 307.468 234.849,297.755 267.078,317.296 284.091 C 340.464 304.261,375.656 281.534,366.730 252.167 C 362.441 238.053,347.747 228.698,333.327 230.900 M398.209 235.583 C 398.211 235.950,398.245 236.080,398.285 235.873 C 398.324 235.666,398.323 235.366,398.281 235.206 C 398.239 235.047,398.207 235.217,398.209 235.583 M1.717 236.667 C 1.717 237.171,1.748 237.377,1.786 237.125 C 1.824 236.873,1.824 236.460,1.786 236.208 C 1.748 235.956,1.717 236.162,1.717 236.667 M398.539 241.333 C 398.539 241.654,398.573 241.785,398.615 241.625 C 398.657 241.465,398.657 241.202,398.615 241.042 C 398.573 240.881,398.539 241.012,398.539 241.333 M1.372 242.500 C 1.372 242.821,1.406 242.952,1.448 242.792 C 1.490 242.631,1.490 242.369,1.448 242.208 C 1.406 242.048,1.372 242.179,1.372 242.500 M340.213 242.248 C 355.634 244.572,362.075 263.175,351.343 274.392 C 340.018 286.229,320.132 279.287,318.485 262.923 C 317.264 250.791,328.153 240.430,340.213 242.248 M398.718 244.417 C 398.719 244.967,398.750 245.172,398.787 244.872 C 398.825 244.572,398.824 244.122,398.786 243.872 C 398.748 243.622,398.717 243.867,398.718 244.417 M1.214 244.917 C 1.216 245.375,1.248 245.543,1.286 245.289 C 1.325 245.036,1.324 244.661,1.284 244.456 C 1.244 244.251,1.213 244.458,1.214 244.917 M176.958 245.958 C 181.198 245.983,188.135 245.983,192.375 245.958 C 196.615 245.934,193.146 245.913,184.667 245.913 C 176.188 245.913,172.719 245.934,176.958 245.958 M215.167 268.833 L 215.167 291.833 253.458 291.792 L 291.750 291.751 253.542 291.708 L 215.333 291.666 215.333 268.833 L 215.333 246.001 253.542 245.958 L 291.750 245.916 253.458 245.875 L 215.167 245.833 215.167 268.833 M250.242 258.042 L 249.583 258.750 250.292 258.091 C 250.950 257.478,251.077 257.333,250.950 257.333 C 250.923 257.333,250.605 257.652,250.242 258.042 M250.250 279.667 C 250.608 280.033,250.938 280.333,250.984 280.333 C 251.030 280.333,250.775 280.033,250.417 279.667 C 250.059 279.300,249.728 279.000,249.682 279.000 C 249.637 279.000,249.892 279.300,250.250 279.667 M260.463 284.122 C 260.855 284.157,261.455 284.157,261.796 284.121 C 262.137 284.085,261.817 284.057,261.083 284.057 C 260.350 284.058,260.071 284.087,260.463 284.122 M24.138 291.792 C 36.819 291.815,57.519 291.815,70.138 291.792 C 82.758 291.768,72.383 291.749,47.083 291.749 C 21.783 291.749,11.458 291.768,24.138 291.792 M176.958 291.792 C 181.198 291.816,188.135 291.816,192.375 291.792 C 196.615 291.767,193.146 291.747,184.667 291.747 C 176.188 291.747,172.719 291.767,176.958 291.792 M387.220 291.792 C 389.403 291.818,392.928 291.818,395.053 291.791 C 397.178 291.765,395.392 291.744,391.083 291.744 C 386.775 291.744,385.036 291.765,387.220 291.792 " stroke="none" fill="#8b8c8c" fill-rule="evenodd"></path></g></svg>