<svg id="svg" version="1.1" xmlns="http://www.w3.org/2000/svg" xmlns:xlink="http://www.w3.org/1999/xlink" width="400" height="400" viewBox="0, 0, 400,400"><g id="svgg"><path id="path0" d="M197.320 26.231 C 197.282 26.267,196.688 26.343,196.000 26.401 C 189.799 26.918,181.932 29.064,175.000 32.128 C 173.776 32.669,168.035 35.512,167.000 36.089 C 164.550 37.456,163.995 37.776,162.068 38.937 C 160.240 40.038,155.503 43.108,155.075 43.470 C 154.918 43.602,153.956 44.284,152.583 45.237 C 152.308 45.427,152.046 45.623,152.000 45.672 C 151.954 45.721,151.392 46.131,150.750 46.583 C 150.108 47.034,149.171 47.732,148.667 48.132 C 148.162 48.533,147.487 49.068,147.167 49.321 C 145.488 50.647,142.800 52.831,141.933 53.573 C 140.590 54.726,138.102 56.891,138.000 56.997 C 137.954 57.044,137.542 57.414,137.083 57.818 C 132.962 61.454,126.714 67.664,121.244 73.564 C 120.705 74.145,116.788 78.577,116.083 79.402 C 115.625 79.940,115.172 80.463,115.077 80.565 C 114.982 80.667,114.134 81.688,113.193 82.833 C 112.252 83.979,111.111 85.367,110.658 85.917 C 109.818 86.936,108.152 89.058,106.080 91.750 C 105.445 92.575,103.894 94.675,102.635 96.417 C 101.375 98.158,100.283 99.658,100.207 99.750 C 97.944 102.505,86.447 120.649,84.471 124.583 C 84.333 124.858,83.694 126.021,83.051 127.167 C 80.914 130.974,75.000 142.531,75.000 142.901 C 75.000 142.941,74.588 143.844,74.083 144.909 C 73.579 145.974,73.167 146.877,73.167 146.916 C 73.167 146.955,72.914 147.534,72.606 148.202 C 72.298 148.870,71.918 149.717,71.761 150.083 C 71.605 150.450,71.411 150.900,71.330 151.083 C 70.370 153.259,68.522 157.844,67.567 160.417 C 67.159 161.517,66.762 162.567,66.685 162.750 C 66.212 163.873,64.563 168.516,63.932 170.500 C 63.685 171.279,63.417 172.067,63.337 172.250 C 63.257 172.433,62.994 173.258,62.752 174.083 C 62.510 174.908,62.248 175.771,62.169 176.000 C 61.868 176.876,60.073 183.041,59.921 183.719 C 59.877 183.919,59.732 184.496,59.599 185.000 C 57.809 191.801,56.211 199.405,55.342 205.250 C 55.151 206.533,54.925 207.958,54.840 208.417 C 54.755 208.875,54.600 210.075,54.497 211.083 C 54.393 212.092,54.274 213.104,54.233 213.333 C 54.192 213.563,54.045 214.950,53.907 216.417 C 53.161 224.319,52.969 230.295,53.245 237.000 C 53.370 240.036,53.025 244.832,52.503 247.333 C 52.417 247.746,52.153 249.133,51.917 250.417 C 51.680 251.700,51.374 253.237,51.235 253.833 C 50.675 256.242,49.441 261.041,49.093 262.167 C 48.965 262.579,48.695 263.479,48.492 264.167 C 46.810 269.870,42.715 281.106,40.761 285.378 C 40.526 285.892,40.333 286.359,40.333 286.417 C 40.333 286.474,40.146 286.931,39.917 287.431 C 39.688 287.932,39.307 288.808,39.071 289.379 C 38.834 289.950,38.428 290.867,38.168 291.417 C 37.909 291.967,37.247 293.392,36.697 294.583 C 36.148 295.775,35.598 296.968,35.474 297.235 C 34.984 298.296,30.277 307.686,29.451 309.250 C 27.231 313.456,26.444 314.929,26.334 315.083 C 26.269 315.175,25.931 315.775,25.583 316.417 C 24.677 318.088,20.181 325.833,19.811 326.359 C 19.640 326.602,19.500 326.840,19.500 326.888 C 19.500 326.935,18.778 328.161,17.895 329.612 C 17.012 331.063,16.086 332.587,15.836 333.000 C 15.359 333.789,12.557 338.207,10.920 340.750 C 9.569 342.850,5.446 349.066,5.339 349.167 C 5.290 349.212,4.945 349.700,4.574 350.250 C 4.202 350.800,3.513 351.815,3.042 352.506 C -0.094 357.108,-0.669 362.181,1.427 366.775 C 1.559 367.064,1.667 367.349,1.667 367.409 C 1.667 367.654,3.023 369.493,3.777 370.269 C 5.271 371.810,7.354 372.962,9.462 373.414 C 11.533 373.858,106.833 373.780,106.833 373.334 C 106.833 373.000,106.892 373.000,200.083 373.000 C 293.222 373.000,293.333 373.000,293.333 373.333 C 293.333 373.795,388.764 373.868,390.781 373.408 C 399.680 371.378,402.806 360.692,396.967 352.262 C 395.150 349.639,388.466 339.543,386.918 337.083 C 386.629 336.625,386.016 335.650,385.554 334.917 C 382.962 330.799,379.114 324.389,377.200 321.000 C 376.967 320.587,376.406 319.612,375.952 318.833 C 375.499 318.054,374.641 316.517,374.046 315.417 C 373.451 314.317,372.831 313.192,372.668 312.917 C 372.390 312.447,372.106 311.921,370.333 308.586 C 367.142 302.584,362.803 293.512,360.010 287.000 C 359.165 285.029,358.366 283.180,358.236 282.891 C 358.106 282.603,358.000 282.314,358.000 282.250 C 358.000 282.186,357.891 281.897,357.758 281.609 C 355.184 276.023,350.357 261.169,348.839 254.167 C 346.789 244.704,346.785 244.665,346.742 233.333 C 346.708 224.351,346.627 222.212,346.086 215.917 C 345.809 212.694,345.803 212.636,345.431 209.500 C 344.664 203.039,343.309 194.898,342.087 189.417 C 341.944 188.775,341.682 187.575,341.506 186.750 C 341.156 185.114,339.271 177.597,339.003 176.766 C 338.821 176.202,337.879 172.886,337.673 172.083 C 337.535 171.546,337.110 170.162,336.752 169.083 C 336.630 168.717,336.330 167.742,336.084 166.917 C 335.838 166.092,335.571 165.267,335.491 165.083 C 335.411 164.900,335.012 163.737,334.605 162.500 C 334.197 161.262,333.604 159.537,333.286 158.667 C 331.970 155.065,331.158 152.897,331.005 152.583 C 330.916 152.400,330.401 151.125,329.859 149.750 C 328.933 147.396,326.621 142.008,325.425 139.417 C 325.129 138.775,324.634 137.688,324.324 137.000 C 323.369 134.880,318.840 125.871,317.980 124.382 C 317.533 123.608,317.167 122.945,317.167 122.910 C 317.167 122.831,315.411 119.691,314.001 117.250 C 312.938 115.409,310.129 110.756,309.424 109.667 C 309.216 109.346,308.538 108.296,307.919 107.333 C 303.129 99.897,292.680 85.629,290.769 83.917 C 290.609 83.773,290.079 83.153,287.500 80.088 C 287.271 79.816,286.706 79.179,286.246 78.672 C 284.400 76.640,284.000 76.167,284.000 76.013 C 284.000 75.925,290.232 69.615,297.848 61.992 C 313.843 45.984,313.468 46.429,314.409 42.281 C 315.030 39.543,314.420 35.504,313.052 33.295 C 312.840 32.953,312.667 32.634,312.667 32.585 C 312.667 31.176,307.530 27.249,304.930 26.671 C 304.556 26.588,304.025 26.460,303.750 26.387 C 303.260 26.256,197.458 26.102,197.320 26.231 M206.000 106.574 C 231.537 109.316,262.466 128.789,284.294 155.868 C 304.472 180.902,314.456 209.090,313.357 237.927 C 310.542 311.816,252.945 367.032,187.250 358.819 C 130.262 351.695,86.820 297.470,86.785 233.417 C 86.770 206.472,96.634 180.510,116.071 156.333 C 137.855 129.237,170.469 108.695,195.167 106.514 C 196.313 106.413,197.475 106.299,197.750 106.261 C 198.654 106.136,203.705 106.328,206.000 106.574 " stroke="none" fill="#8b5b3b" fill-rule="evenodd"></path><path id="path1" d="M142.917 199.938 C 126.850 202.440,116.726 218.237,121.249 233.750 C 126.172 250.638,145.870 258.111,160.912 248.796 C 172.378 241.695,176.613 226.844,170.668 214.583 C 165.687 204.311,154.102 198.197,142.917 199.938 M249.583 199.938 C 227.845 203.323,219.192 229.633,234.736 245.084 C 243.865 254.158,257.667 255.455,268.415 248.249 C 280.771 239.964,283.748 222.551,274.867 210.512 C 269.062 202.643,259.064 198.462,249.583 199.938 " stroke="none" fill="#f3c30c" fill-rule="evenodd"></path><path id="path2" d="M195.500 106.499 C 164.704 109.586,126.023 137.600,105.056 172.000 C 92.826 192.066,86.830 212.221,86.835 233.250 C 86.847 296.301,128.693 349.787,184.750 358.403 C 190.548 359.294,192.406 359.416,200.167 359.415 C 258.990 359.404,307.059 310.427,312.949 244.500 C 315.062 220.850,309.885 197.426,297.791 175.917 C 274.731 134.904,228.065 103.234,195.500 106.499 M149.191 199.670 C 166.463 201.376,177.486 218.269,172.084 234.759 C 169.933 241.326,164.404 247.633,158.449 250.314 C 158.019 250.508,157.348 250.809,156.958 250.982 C 144.555 256.512,128.873 250.523,122.748 237.917 C 113.714 219.320,128.698 197.647,149.191 199.670 M255.929 199.676 C 278.414 201.850,288.283 229.418,272.226 245.201 C 256.338 260.819,229.824 251.600,226.924 229.450 C 224.741 212.773,239.086 198.048,255.929 199.676 " stroke="none" fill="#343433" fill-rule="evenodd"></path><path id="path3" d="M199.132 106.290 C 199.708 106.323,200.608 106.323,201.132 106.290 C 201.655 106.257,201.183 106.230,200.083 106.230 C 198.983 106.231,198.555 106.258,199.132 106.290 M266.167 136.885 C 266.167 136.914,266.410 137.158,266.708 137.427 L 267.250 137.917 266.760 137.375 C 266.304 136.870,266.167 136.757,266.167 136.885 M268.000 138.552 C 268.000 138.581,268.244 138.825,268.542 139.094 L 269.083 139.583 268.594 139.042 C 268.138 138.537,268.000 138.423,268.000 138.552 M131.167 140.083 C 130.762 140.496,130.468 140.833,130.514 140.833 C 130.560 140.833,130.928 140.496,131.333 140.083 C 131.738 139.671,132.032 139.333,131.986 139.333 C 131.940 139.333,131.572 139.671,131.167 140.083 M272.833 143.250 C 274.160 144.579,275.283 145.667,275.329 145.667 C 275.375 145.667,274.327 144.579,273.000 143.250 C 271.673 141.921,270.550 140.833,270.504 140.833 C 270.458 140.833,271.507 141.921,272.833 143.250 M126.997 144.125 L 125.417 145.750 127.042 144.170 C 127.935 143.301,128.667 142.570,128.667 142.545 C 128.667 142.424,128.464 142.616,126.997 144.125 M277.250 147.833 C 277.608 148.200,277.938 148.500,277.984 148.500 C 278.030 148.500,277.775 148.200,277.417 147.833 C 277.059 147.467,276.728 147.167,276.682 147.167 C 276.637 147.167,276.892 147.467,277.250 147.833 M123.167 148.083 C 122.762 148.496,122.468 148.833,122.514 148.833 C 122.560 148.833,122.928 148.496,123.333 148.083 C 123.738 147.671,124.032 147.333,123.986 147.333 C 123.940 147.333,123.572 147.671,123.167 148.083 M146.047 199.623 C 146.485 199.657,147.160 199.657,147.547 199.622 C 147.934 199.587,147.575 199.559,146.750 199.559 C 145.925 199.560,145.609 199.588,146.047 199.623 M252.713 199.623 C 253.152 199.657,253.827 199.657,254.213 199.622 C 254.600 199.587,254.242 199.559,253.417 199.559 C 252.592 199.560,252.275 199.588,252.713 199.623 M313.042 224.250 C 313.044 224.617,313.078 224.747,313.118 224.540 C 313.158 224.332,313.156 224.032,313.115 223.873 C 313.073 223.714,313.040 223.883,313.042 224.250 M226.717 225.333 C 226.717 225.838,226.748 226.044,226.786 225.792 C 226.824 225.540,226.824 225.127,226.786 224.875 C 226.748 224.623,226.717 224.829,226.717 225.333 M120.053 226.333 C 120.053 226.929,120.084 227.173,120.121 226.875 C 120.158 226.577,120.158 226.090,120.121 225.792 C 120.084 225.494,120.053 225.737,120.053 226.333 M86.883 227.333 C 86.883 227.838,86.915 228.044,86.953 227.792 C 86.991 227.540,86.991 227.127,86.953 226.875 C 86.915 226.623,86.883 226.829,86.883 227.333 M226.714 227.250 C 226.716 227.708,226.748 227.876,226.786 227.623 C 226.825 227.369,226.824 226.994,226.784 226.789 C 226.744 226.584,226.713 226.792,226.714 227.250 M313.403 233.167 C 313.403 234.954,313.428 235.685,313.458 234.792 C 313.488 233.898,313.488 232.435,313.458 231.542 C 313.428 230.648,313.403 231.379,313.403 233.167 M86.734 233.167 C 86.734 234.588,86.759 235.169,86.791 234.458 C 86.822 233.748,86.822 232.585,86.791 231.875 C 86.759 231.165,86.734 231.746,86.734 233.167 M86.888 239.583 C 86.889 240.225,86.919 240.467,86.955 240.121 C 86.991 239.775,86.990 239.250,86.954 238.955 C 86.917 238.659,86.887 238.942,86.888 239.583 M313.209 240.417 C 313.211 240.783,313.245 240.914,313.285 240.706 C 313.324 240.499,313.323 240.199,313.281 240.040 C 313.239 239.880,313.207 240.050,313.209 240.417 M313.045 243.000 C 313.045 243.412,313.078 243.581,313.118 243.375 C 313.157 243.169,313.157 242.831,313.118 242.625 C 313.078 242.419,313.045 242.588,313.045 243.000 M87.372 246.667 C 87.372 246.987,87.406 247.119,87.448 246.958 C 87.490 246.798,87.490 246.535,87.448 246.375 C 87.406 246.215,87.372 246.346,87.372 246.667 M279.240 323.542 L 278.750 324.083 279.292 323.594 C 279.797 323.138,279.910 323.000,279.781 323.000 C 279.752 323.000,279.509 323.244,279.240 323.542 M121.083 323.833 C 121.441 324.200,121.772 324.500,121.818 324.500 C 121.863 324.500,121.608 324.200,121.250 323.833 C 120.892 323.467,120.562 323.167,120.516 323.167 C 120.470 323.167,120.725 323.467,121.083 323.833 M275.581 327.375 L 273.250 329.750 275.625 327.419 C 276.931 326.137,278.000 325.068,278.000 325.044 C 278.000 324.925,277.747 325.169,275.581 327.375 M124.326 327.208 C 124.735 327.644,125.091 328.000,125.118 328.000 C 125.243 328.000,125.111 327.850,124.375 327.160 L 123.583 326.417 124.326 327.208 M127.667 330.385 C 127.667 330.414,127.910 330.658,128.208 330.927 L 128.750 331.417 128.260 330.875 C 127.804 330.370,127.667 330.257,127.667 330.385 M210.208 359.115 C 210.369 359.157,210.631 359.157,210.792 359.115 C 210.952 359.073,210.821 359.039,210.500 359.039 C 210.179 359.039,210.048 359.073,210.208 359.115 M198.208 359.624 C 199.285 359.653,201.048 359.653,202.125 359.624 C 203.202 359.595,202.321 359.572,200.167 359.572 C 198.012 359.572,197.131 359.595,198.208 359.624 " stroke="none" fill="#644b35" fill-rule="evenodd"></path><path id="path4" d="M165.500 207.417 C 165.998 207.921,166.443 208.333,166.489 208.333 C 166.534 208.333,166.165 207.921,165.667 207.417 C 165.169 206.912,164.724 206.500,164.678 206.500 C 164.632 206.500,165.002 206.912,165.500 207.417 M272.167 207.417 C 272.665 207.921,273.109 208.333,273.155 208.333 C 273.201 208.333,272.831 207.921,272.333 207.417 C 271.835 206.912,271.391 206.500,271.345 206.500 C 271.299 206.500,271.669 206.912,272.167 207.417 M173.388 226.250 C 173.389 226.892,173.419 227.134,173.455 226.788 C 173.491 226.442,173.490 225.917,173.454 225.621 C 173.417 225.325,173.387 225.608,173.388 226.250 M280.052 226.250 C 280.053 226.800,280.084 227.005,280.121 226.705 C 280.158 226.406,280.157 225.956,280.119 225.705 C 280.081 225.455,280.051 225.700,280.052 226.250 M127.833 245.083 C 128.331 245.588,128.776 246.000,128.822 246.000 C 128.868 246.000,128.498 245.588,128.000 245.083 C 127.502 244.579,127.057 244.167,127.011 244.167 C 126.966 244.167,127.335 244.579,127.833 245.083 M234.583 245.167 C 235.128 245.717,235.610 246.167,235.656 246.167 C 235.702 246.167,235.294 245.717,234.750 245.167 C 234.206 244.617,233.723 244.167,233.677 244.167 C 233.631 244.167,234.039 244.617,234.583 245.167 M146.129 252.956 C 146.521 252.991,147.121 252.990,147.463 252.954 C 147.804 252.919,147.483 252.890,146.750 252.890 C 146.017 252.891,145.737 252.920,146.129 252.956 M252.796 252.956 C 253.188 252.991,253.788 252.990,254.129 252.954 C 254.471 252.919,254.150 252.890,253.417 252.890 C 252.683 252.891,252.404 252.920,252.796 252.956 " stroke="none" fill="#b6971c" fill-rule="evenodd"></path></g></svg>