<svg id="svg" version="1.1" xmlns="http://www.w3.org/2000/svg" xmlns:xlink="http://www.w3.org/1999/xlink" width="400" height="400" viewBox="0, 0, 400,400"><g id="svgg"><path id="path0" d="M168.167 32.553 C 168.167 32.619,168.509 34.115,168.928 35.878 C 169.347 37.641,170.247 41.483,170.927 44.417 C 171.607 47.350,172.802 52.487,173.582 55.833 C 176.662 69.043,178.381 76.434,178.458 76.792 C 178.569 77.306,178.503 77.298,174.884 76.320 C 170.522 75.141,165.424 73.771,159.750 72.252 C 152.250 70.246,148.333 69.193,147.333 68.915 C 143.002 67.711,137.083 66.167,136.960 66.208 C 136.876 66.236,138.037 68.019,139.541 70.171 C 152.043 88.058,153.986 90.840,162.641 103.250 C 164.432 105.817,166.370 108.585,166.949 109.402 C 167.528 110.219,167.976 110.913,167.945 110.944 C 167.914 110.975,166.620 110.544,165.069 109.986 C 163.519 109.427,162.063 108.910,161.833 108.835 C 161.604 108.761,158.042 107.488,153.917 106.006 C 149.792 104.525,144.729 102.711,142.667 101.976 C 137.655 100.190,134.941 99.217,133.833 98.810 C 133.329 98.625,131.229 97.873,129.167 97.140 C 124.073 95.328,121.456 94.391,120.167 93.918 C 119.571 93.700,118.108 93.175,116.917 92.752 C 115.725 92.329,114.263 91.805,113.667 91.588 C 113.071 91.372,111.908 90.956,111.083 90.664 C 110.258 90.373,108.660 89.797,107.530 89.384 C 106.401 88.971,105.451 88.660,105.418 88.693 C 105.386 88.725,106.275 90.064,107.395 91.668 C 108.515 93.271,112.574 99.083,116.416 104.583 C 120.258 110.083,126.096 118.446,129.390 123.167 C 132.685 127.888,135.637 132.114,135.952 132.558 C 136.638 133.529,136.609 133.579,135.472 133.352 C 109.513 128.181,83.882 147.400,79.174 175.566 C 78.811 177.741,78.686 178.927,76.834 197.917 C 76.557 200.758,76.182 204.583,76.001 206.417 C 75.820 208.250,75.483 211.700,75.252 214.083 C 74.480 222.030,74.328 223.572,74.161 225.167 C 74.070 226.037,73.809 228.681,73.581 231.042 C 73.353 233.402,72.977 237.265,72.746 239.625 C 72.515 241.985,72.138 245.829,71.909 248.167 C 71.037 257.073,70.488 262.671,70.250 265.083 C 70.114 266.458,69.818 269.496,69.591 271.833 C 69.079 277.102,68.247 285.591,67.917 288.917 C 67.781 290.292,67.442 293.742,67.165 296.583 C 66.887 299.425,66.475 303.625,66.249 305.917 C 66.023 308.208,65.612 312.408,65.336 315.250 C 65.060 318.092,64.722 321.542,64.585 322.917 C 64.449 324.292,64.111 327.688,63.835 330.465 C 63.559 333.241,63.333 335.660,63.333 335.839 C 63.333 336.162,63.659 336.166,91.524 336.208 C 116.385 336.245,119.729 336.280,119.842 336.500 C 119.997 336.804,120.657 338.450,121.914 341.667 C 122.433 342.996,122.923 344.233,123.003 344.417 C 123.083 344.600,123.311 345.162,123.509 345.667 C 123.708 346.171,123.967 346.808,124.087 347.083 C 124.206 347.358,124.509 348.108,124.760 348.750 C 125.010 349.392,125.308 350.142,125.421 350.417 C 125.534 350.692,125.790 351.329,125.989 351.833 C 126.188 352.337,126.414 352.900,126.492 353.083 C 126.569 353.267,126.794 353.829,126.992 354.333 C 127.189 354.837,127.416 355.400,127.495 355.583 C 127.573 355.767,128.288 357.567,129.083 359.583 C 129.878 361.600,130.632 363.475,130.758 363.750 C 130.884 364.025,131.405 365.337,131.917 366.667 C 132.428 367.996,132.948 369.308,133.072 369.583 C 133.196 369.858,133.459 370.496,133.657 371.000 C 133.856 371.504,134.081 372.067,134.157 372.250 C 134.531 373.144,135.365 375.230,135.855 376.500 C 136.480 378.118,136.526 378.196,136.751 378.035 C 136.995 377.860,137.667 376.872,137.667 376.687 C 137.667 376.600,137.728 376.503,137.803 376.472 C 137.878 376.442,138.901 374.954,140.077 373.167 C 141.252 371.379,142.635 369.293,143.149 368.531 C 143.663 367.769,144.158 367.019,144.250 366.865 C 144.342 366.710,144.456 366.546,144.505 366.500 C 144.640 366.373,149.907 358.440,149.983 358.250 C 150.020 358.158,150.095 358.046,150.150 358.000 C 150.363 357.823,151.000 356.839,151.000 356.687 C 151.000 356.600,151.056 356.503,151.125 356.472 C 151.308 356.391,152.000 355.374,152.000 355.187 C 152.000 355.100,152.060 355.003,152.132 354.972 C 152.205 354.942,153.451 353.123,154.900 350.931 L 157.536 346.944 157.870 347.764 C 158.054 348.215,158.302 348.808,158.423 349.083 C 158.543 349.358,158.801 349.996,158.996 350.500 C 159.191 351.004,159.417 351.567,159.497 351.750 C 159.577 351.933,160.143 353.358,160.755 354.917 C 161.367 356.475,162.129 358.387,162.449 359.167 C 162.770 359.946,163.146 360.883,163.287 361.250 C 163.427 361.617,163.638 362.142,163.756 362.417 C 163.874 362.692,164.170 363.442,164.413 364.083 C 164.657 364.725,164.956 365.475,165.077 365.750 C 165.198 366.025,165.459 366.662,165.657 367.167 C 165.856 367.671,166.081 368.233,166.157 368.417 C 166.418 369.039,167.298 371.241,168.424 374.083 C 169.041 375.642,169.792 377.517,170.094 378.250 C 170.396 378.983,170.919 380.296,171.257 381.167 C 171.595 382.037,172.133 383.387,172.452 384.167 C 174.026 388.003,178.014 397.979,178.232 398.625 C 178.470 399.331,178.558 399.309,178.907 398.458 C 179.067 398.069,179.295 397.525,179.414 397.250 C 179.533 396.975,179.792 396.337,179.991 395.833 C 180.189 395.329,180.417 394.767,180.498 394.583 C 180.578 394.400,180.957 393.425,181.338 392.417 C 181.720 391.408,182.132 390.358,182.253 390.083 C 182.374 389.808,182.712 388.983,183.004 388.250 C 183.297 387.517,183.746 386.392,184.002 385.750 C 184.258 385.108,184.782 383.796,185.166 382.833 C 185.551 381.871,185.961 380.858,186.078 380.583 C 186.195 380.308,186.406 379.783,186.545 379.417 C 186.685 379.050,187.028 378.188,187.307 377.500 C 187.587 376.813,188.126 375.462,188.504 374.500 C 188.883 373.537,189.411 372.206,189.679 371.542 C 189.947 370.877,190.399 369.752,190.682 369.042 C 190.966 368.331,191.267 367.618,191.351 367.456 C 191.436 367.295,191.626 366.807,191.772 366.373 C 191.919 365.939,192.174 365.283,192.338 364.917 C 192.502 364.550,192.863 363.650,193.139 362.917 C 193.590 361.722,194.435 359.643,194.832 358.750 C 194.914 358.567,195.293 357.592,195.676 356.583 C 196.058 355.575,196.467 354.525,196.585 354.250 C 197.013 353.248,197.156 352.899,197.508 352.000 C 198.528 349.398,198.878 348.541,199.095 348.111 C 199.226 347.852,199.333 347.533,199.333 347.403 C 199.333 347.028,199.633 347.128,199.749 347.542 C 199.807 347.748,199.921 348.067,200.002 348.250 C 200.083 348.433,200.385 349.183,200.672 349.917 C 201.487 351.994,202.174 353.703,202.412 354.250 C 202.532 354.525,202.792 355.162,202.991 355.667 C 203.189 356.171,203.415 356.733,203.494 356.917 C 203.572 357.100,203.947 358.075,204.326 359.083 C 204.706 360.092,205.077 361.029,205.150 361.167 C 205.223 361.304,205.562 362.129,205.902 363.000 C 206.242 363.871,206.587 364.733,206.668 364.917 C 206.749 365.100,206.977 365.662,207.175 366.167 C 207.373 366.671,207.598 367.233,207.675 367.417 C 207.752 367.600,208.051 368.350,208.339 369.083 C 209.212 371.308,209.849 372.890,210.084 373.417 C 210.206 373.692,210.846 375.304,211.505 377.000 C 212.164 378.696,212.801 380.308,212.921 380.583 C 213.108 381.013,213.922 383.030,214.333 384.083 C 214.405 384.267,214.689 384.979,214.965 385.667 C 215.240 386.354,215.628 387.329,215.825 387.833 C 216.182 388.744,216.338 389.123,216.749 390.083 C 216.867 390.358,217.126 390.996,217.324 391.500 C 217.522 392.004,217.749 392.567,217.827 392.750 C 218.021 393.206,219.468 396.893,219.851 397.909 C 220.271 399.022,220.591 399.343,220.749 398.810 C 220.867 398.412,222.524 394.170,222.922 393.250 C 223.041 392.975,223.511 391.813,223.968 390.667 C 224.425 389.521,224.891 388.358,225.003 388.083 C 225.116 387.808,225.265 387.433,225.334 387.250 C 225.670 386.361,226.063 385.368,226.257 384.917 C 226.500 384.352,227.218 382.563,227.994 380.583 C 228.282 379.850,228.583 379.100,228.663 378.917 C 228.744 378.733,229.010 378.058,229.255 377.417 C 229.500 376.775,229.963 375.613,230.284 374.833 C 231.394 372.134,231.817 371.078,232.253 369.917 C 232.494 369.275,232.756 368.600,232.836 368.417 C 232.917 368.233,233.144 367.671,233.343 367.167 C 233.541 366.662,233.804 366.025,233.927 365.750 C 234.051 365.475,234.576 364.162,235.094 362.833 C 235.612 361.504,236.357 359.629,236.748 358.667 C 237.696 356.336,239.798 351.085,240.118 350.250 C 240.258 349.883,240.436 349.433,240.512 349.250 C 240.589 349.067,240.831 348.477,241.051 347.939 L 241.451 346.962 241.902 347.606 C 242.151 347.960,243.339 349.750,244.542 351.583 C 245.746 353.417,246.777 354.954,246.832 355.000 C 246.888 355.046,247.114 355.383,247.333 355.750 C 247.553 356.117,247.775 356.454,247.826 356.500 C 247.919 356.582,248.754 357.823,249.081 358.363 C 249.174 358.517,249.625 359.192,250.083 359.863 C 250.542 360.534,250.954 361.163,251.000 361.261 C 251.046 361.359,251.758 362.432,252.583 363.645 C 253.408 364.859,254.158 365.979,254.250 366.134 C 254.342 366.290,254.458 366.454,254.509 366.500 C 254.559 366.546,254.781 366.883,255.000 367.250 C 255.219 367.617,255.441 367.954,255.493 368.000 C 255.544 368.046,255.931 368.608,256.353 369.250 C 256.774 369.892,257.936 371.645,258.935 373.145 C 259.933 374.646,260.825 375.993,260.917 376.138 C 261.008 376.284,261.158 376.486,261.250 376.589 C 261.342 376.691,261.564 377.048,261.744 377.383 C 262.124 378.090,262.468 378.283,262.618 377.872 C 262.743 377.528,264.389 373.431,264.642 372.833 C 264.739 372.604,265.015 371.892,265.256 371.250 C 265.496 370.608,265.793 369.858,265.916 369.583 C 266.151 369.058,266.785 367.483,267.661 365.250 C 267.949 364.517,268.247 363.767,268.324 363.583 C 268.878 362.259,272.389 353.494,272.830 352.333 C 272.986 351.921,273.270 351.208,273.461 350.750 C 273.932 349.618,275.812 344.928,276.166 344.000 C 276.324 343.587,276.773 342.462,277.165 341.500 C 277.557 340.537,277.975 339.482,278.094 339.155 C 278.213 338.828,278.504 338.125,278.739 337.592 C 278.974 337.060,279.167 336.522,279.167 336.396 C 279.167 336.202,283.552 336.167,307.417 336.167 L 335.667 336.167 335.667 335.747 C 335.667 335.517,335.480 333.473,335.252 331.206 C 335.024 328.938,334.611 324.758,334.334 321.917 C 333.886 317.331,333.400 312.368,332.578 304.000 C 332.439 302.579,332.213 300.254,332.076 298.833 C 331.939 297.412,331.753 295.537,331.661 294.667 C 331.570 293.796,331.307 291.133,331.078 288.750 C 330.606 283.858,330.233 280.031,329.508 272.667 C 329.232 269.871,328.817 265.633,328.584 263.250 C 328.352 260.867,328.051 257.792,327.916 256.417 C 326.977 246.841,326.598 242.969,326.163 238.500 C 325.890 235.704,325.555 232.292,325.418 230.917 C 325.281 229.542,324.943 226.110,324.668 223.292 C 324.392 220.473,323.941 215.860,323.664 213.042 C 323.188 208.186,322.642 202.595,322.079 196.833 C 321.941 195.412,321.718 193.162,321.585 191.833 C 321.451 190.504,321.229 188.254,321.090 186.833 C 320.198 177.697,320.025 176.231,319.573 174.000 C 315.142 152.130,298.789 135.957,278.094 132.977 C 273.870 132.368,267.357 132.542,263.541 133.365 C 263.059 133.469,262.624 133.513,262.575 133.464 C 262.526 133.414,265.022 129.746,268.124 125.312 C 271.225 120.878,275.068 115.375,276.665 113.083 C 279.340 109.245,284.935 101.236,286.737 98.667 C 290.767 92.922,293.642 88.753,293.601 88.712 C 293.574 88.685,291.234 89.494,288.401 90.509 C 285.568 91.524,282.650 92.567,281.917 92.827 C 281.183 93.086,278.446 94.065,275.833 95.002 C 273.221 95.939,270.296 96.988,269.333 97.333 C 268.371 97.679,265.858 98.576,263.750 99.328 C 258.605 101.161,255.968 102.105,254.667 102.577 C 251.916 103.576,249.050 104.604,244.667 106.164 C 242.054 107.094,239.429 108.035,238.833 108.254 C 235.912 109.329,231.110 110.999,231.066 110.955 C 231.038 110.927,231.934 109.595,233.057 107.994 C 234.180 106.393,236.040 103.733,237.190 102.083 C 239.178 99.232,243.403 93.177,251.552 81.500 C 253.567 78.612,255.717 75.537,256.331 74.667 C 260.095 69.322,262.173 66.284,262.108 66.219 C 262.067 66.178,261.182 66.375,260.142 66.656 C 257.089 67.482,251.254 69.044,246.417 70.328 C 243.942 70.985,241.579 71.624,241.167 71.748 C 240.754 71.872,236.704 72.963,232.167 74.173 C 227.629 75.382,223.167 76.577,222.250 76.828 C 221.333 77.079,220.564 77.237,220.540 77.179 C 220.517 77.122,220.986 74.977,221.583 72.413 C 224.922 58.066,226.063 53.156,226.250 52.333 C 226.364 51.829,227.114 48.604,227.917 45.167 C 228.719 41.729,229.469 38.504,229.583 38.000 C 229.697 37.496,230.025 36.084,230.312 34.863 C 230.599 33.642,230.833 32.599,230.833 32.547 C 230.833 32.494,229.661 34.130,228.228 36.184 C 226.795 38.237,223.369 43.142,220.615 47.083 C 215.114 54.959,212.238 59.077,207.758 65.500 C 200.947 75.264,199.601 77.167,199.503 77.167 C 199.447 77.167,198.579 75.987,197.575 74.545 C 195.641 71.766,188.124 61.000,179.447 48.583 C 176.565 44.458,173.060 39.433,171.659 37.417 C 168.478 32.840,168.167 32.406,168.167 32.553 M161.200 158.755 C 165.531 159.512,169.476 161.637,172.656 164.923 C 184.625 177.295,177.266 197.719,160.083 199.816 C 158.506 200.009,115.667 200.092,115.667 199.903 C 115.667 199.812,116.176 198.847,117.636 196.167 C 128.530 176.174,141.298 162.703,152.697 159.172 C 154.849 158.505,158.695 158.317,161.200 158.755 M244.264 158.738 C 254.536 160.545,266.091 171.193,277.287 189.167 C 279.407 192.570,283.333 199.543,283.333 199.905 C 283.333 199.963,273.265 199.986,260.958 199.957 L 238.583 199.903 236.970 199.534 C 220.481 195.761,214.864 175.850,227.015 164.245 C 231.663 159.806,238.299 157.688,244.264 158.738 M206.250 208.409 C 217.635 210.224,225.561 214.989,227.938 221.448 C 228.483 222.931,228.632 226.310,228.205 227.511 L 227.994 228.106 226.809 227.805 C 218.991 225.820,211.231 231.047,209.569 239.418 C 209.291 240.818,209.283 240.832,208.686 241.004 C 205.331 241.974,194.415 242.021,190.692 241.081 C 189.588 240.803,189.704 240.956,189.419 239.399 C 187.907 231.128,180.014 225.818,172.187 227.806 L 170.997 228.108 170.791 227.429 C 170.421 226.207,170.536 222.924,170.993 221.667 C 173.484 214.820,182.339 209.614,193.667 208.338 C 194.629 208.229,195.567 208.114,195.750 208.082 C 196.695 207.916,204.727 208.167,206.250 208.409 M262.268 262.879 C 262.319 262.930,262.272 263.137,262.164 263.339 C 262.055 263.541,262.034 263.665,262.116 263.614 C 262.598 263.317,266.562 265.751,268.158 267.325 C 277.039 276.085,272.756 290.975,260.500 293.947 C 258.561 294.417,140.196 294.420,138.500 293.950 C 134.177 292.751,131.065 290.625,128.846 287.354 C 123.328 279.217,126.773 267.662,135.797 264.037 C 136.726 263.664,136.943 263.513,136.824 263.323 C 136.740 263.191,136.671 263.028,136.669 262.960 C 136.665 262.731,262.040 262.651,262.268 262.879 " stroke="none" fill="#a27a52" fill-rule="evenodd"></path><path id="path1" d="M193.917 0.857 C 189.452 1.124,184.498 1.772,180.000 2.678 C 177.621 3.158,173.658 4.136,172.250 4.591 C 171.883 4.709,170.908 5.007,170.083 5.251 C 168.727 5.654,168.021 5.884,165.917 6.612 C 165.550 6.739,165.100 6.906,164.917 6.985 C 164.525 7.152,163.360 7.602,162.417 7.951 C 161.747 8.198,161.108 8.461,160.333 8.805 C 160.104 8.907,159.542 9.136,159.083 9.313 C 155.477 10.705,147.092 15.125,142.750 17.923 C 141.833 18.514,140.971 19.049,140.833 19.111 C 140.696 19.174,140.546 19.270,140.500 19.323 C 140.454 19.377,139.517 20.017,138.417 20.745 C 136.169 22.233,131.348 25.745,131.065 26.101 C 130.963 26.229,130.794 26.333,130.690 26.333 C 130.585 26.333,130.500 26.402,130.500 26.486 C 130.500 26.571,130.251 26.794,129.946 26.982 C 129.641 27.170,129.204 27.495,128.976 27.704 C 128.747 27.913,127.966 28.568,127.239 29.160 C 122.211 33.255,113.390 41.823,109.815 46.083 C 109.507 46.450,109.086 46.915,108.878 47.117 C 108.670 47.319,108.500 47.529,108.500 47.583 C 108.500 47.638,108.328 47.848,108.118 48.050 C 107.908 48.251,107.252 49.017,106.660 49.750 C 106.068 50.483,105.503 51.158,105.404 51.250 C 105.305 51.342,104.968 51.753,104.654 52.164 C 104.340 52.575,103.968 53.027,103.827 53.170 C 103.687 53.312,103.244 53.895,102.845 54.464 C 102.445 55.034,102.054 55.500,101.976 55.500 C 101.897 55.500,101.833 55.578,101.833 55.674 C 101.833 55.769,101.675 56.013,101.482 56.215 C 101.289 56.418,100.760 57.108,100.306 57.750 C 99.853 58.392,99.342 59.104,99.170 59.333 C 97.482 61.587,93.167 67.952,93.167 68.188 C 93.167 68.268,93.107 68.333,93.033 68.333 C 92.960 68.333,92.734 68.652,92.531 69.042 C 92.329 69.431,91.680 70.500,91.089 71.417 C 90.498 72.333,89.911 73.271,89.785 73.500 C 89.659 73.729,88.938 74.992,88.182 76.306 C 86.534 79.174,86.273 79.649,84.879 82.333 C 82.758 86.416,81.077 89.874,79.574 93.250 C 78.631 95.366,78.333 96.060,77.930 97.083 C 77.677 97.725,77.373 98.475,77.253 98.750 C 77.134 99.025,76.874 99.662,76.676 100.167 C 76.478 100.671,76.253 101.233,76.178 101.417 C 76.036 101.760,75.629 102.810,75.242 103.833 C 74.435 105.964,72.483 111.811,71.681 114.500 C 71.394 115.462,71.076 116.507,70.975 116.821 C 70.874 117.135,70.658 117.922,70.497 118.571 C 70.335 119.219,70.035 120.350,69.829 121.083 C 69.623 121.817,69.402 122.717,69.337 123.083 C 69.272 123.450,69.136 124.050,69.034 124.417 C 68.685 125.678,68.195 127.898,67.583 131.000 C 67.429 131.779,67.233 132.754,67.147 133.167 C 67.061 133.579,66.957 134.217,66.915 134.583 C 66.873 134.950,66.764 135.700,66.673 136.250 C 66.129 139.544,65.591 143.933,65.244 147.917 C 65.100 149.567,64.878 151.742,64.750 152.750 C 64.623 153.758,64.398 155.558,64.252 156.750 C 64.106 157.942,63.915 159.442,63.829 160.083 C 63.742 160.725,63.632 161.625,63.584 162.083 C 63.338 164.415,63.125 166.253,62.916 167.833 C 62.789 168.796,62.566 170.558,62.421 171.750 C 62.277 172.942,62.048 174.798,61.912 175.875 C 61.777 176.952,61.554 178.733,61.417 179.833 C 61.279 180.933,61.056 182.715,60.921 183.792 C 60.786 184.869,60.557 186.725,60.412 187.917 C 60.267 189.108,60.078 190.608,59.991 191.250 C 59.905 191.892,59.795 192.792,59.749 193.250 C 59.596 194.762,59.323 197.057,59.086 198.833 C 58.958 199.796,58.731 201.633,58.582 202.917 C 58.433 204.200,58.207 206.037,58.081 207.000 C 57.955 207.963,57.733 209.725,57.588 210.917 C 57.217 213.976,56.877 216.688,56.663 218.301 C 56.562 219.062,56.445 220.037,56.402 220.468 C 56.360 220.898,56.254 221.813,56.168 222.500 C 56.081 223.188,55.895 224.725,55.752 225.917 C 55.505 227.994,55.328 229.421,54.750 234.000 C 54.327 237.357,54.026 239.769,53.744 242.083 C 53.284 245.856,52.988 248.214,52.825 249.417 C 52.738 250.058,52.630 250.958,52.585 251.417 C 52.440 252.902,52.152 255.375,51.916 257.167 C 51.789 258.129,51.566 259.892,51.421 261.083 C 51.277 262.275,51.045 264.150,50.906 265.250 C 50.669 267.132,50.489 268.569,49.914 273.167 C 49.783 274.221,49.561 276.021,49.421 277.167 C 49.281 278.313,49.059 280.112,48.927 281.167 C 48.796 282.221,48.606 283.833,48.505 284.750 C 48.404 285.667,48.216 287.204,48.087 288.167 C 47.958 289.129,47.731 290.967,47.582 292.250 C 47.433 293.533,47.207 295.371,47.081 296.333 C 46.955 297.296,46.733 299.058,46.588 300.250 C 46.314 302.511,45.966 305.311,45.677 307.583 C 45.584 308.317,45.467 309.292,45.417 309.750 C 45.276 311.026,45.015 313.207,44.738 315.417 C 44.492 317.381,44.223 319.526,43.748 323.333 C 43.616 324.387,43.389 326.225,43.244 327.417 C 43.099 328.608,42.877 330.371,42.751 331.333 C 42.625 332.296,42.477 333.533,42.422 334.083 C 42.367 334.633,42.278 335.365,42.223 335.708 L 42.124 336.333 52.645 336.333 C 58.432 336.333,63.167 336.284,63.167 336.224 C 63.167 336.165,63.276 335.096,63.409 333.849 C 63.542 332.603,63.770 330.346,63.915 328.833 C 64.060 327.321,64.285 325.033,64.415 323.750 C 64.546 322.467,64.771 320.179,64.915 318.667 C 65.060 317.154,65.251 315.204,65.340 314.333 C 65.429 313.462,65.614 311.550,65.752 310.083 C 66.010 307.334,66.332 304.042,66.754 299.833 C 66.887 298.504,67.112 296.217,67.254 294.750 C 67.501 292.193,67.685 290.325,68.249 284.667 C 68.391 283.246,68.693 280.133,68.920 277.750 C 69.148 275.367,69.444 272.329,69.578 271.000 C 69.712 269.671,69.938 267.383,70.080 265.917 C 70.222 264.450,70.452 262.087,70.592 260.667 C 70.732 259.246,70.957 256.958,71.092 255.583 C 71.227 254.208,71.448 251.958,71.585 250.583 C 71.721 249.208,71.942 246.958,72.076 245.583 C 72.676 239.440,72.851 237.649,73.001 236.167 C 73.089 235.296,73.276 233.383,73.416 231.917 C 73.556 230.450,73.786 228.088,73.926 226.667 C 74.065 225.246,74.290 222.958,74.424 221.583 C 74.558 220.208,74.779 217.958,74.915 216.583 C 75.052 215.208,75.277 212.921,75.415 211.500 C 75.554 210.079,75.742 208.167,75.834 207.250 C 75.925 206.333,76.112 204.383,76.250 202.917 C 76.388 201.450,76.610 199.162,76.744 197.833 C 77.072 194.562,77.646 188.721,78.259 182.417 C 79.638 168.221,83.084 159.258,90.754 149.917 C 101.658 136.638,120.359 129.737,135.720 133.322 C 136.540 133.513,136.553 133.544,134.625 130.801 C 133.768 129.581,132.700 128.058,132.253 127.417 C 128.484 122.008,126.626 119.346,124.196 115.875 C 121.988 112.721,119.440 109.069,118.586 107.833 C 118.110 107.146,116.487 104.821,114.978 102.667 C 106.584 90.681,105.159 88.619,105.226 88.551 C 105.275 88.503,105.584 88.608,109.250 89.921 C 110.442 90.348,112.017 90.908,112.750 91.167 C 114.004 91.609,115.623 92.190,120.167 93.831 C 121.221 94.212,122.397 94.632,122.781 94.764 C 123.164 94.897,124.102 95.234,124.864 95.514 C 125.626 95.794,126.438 96.085,126.667 96.162 C 126.896 96.238,128.058 96.652,129.250 97.082 C 130.442 97.512,132.017 98.075,132.750 98.333 C 134.044 98.789,137.207 99.920,139.583 100.776 C 140.225 101.007,141.350 101.407,142.083 101.666 C 142.817 101.925,144.354 102.475,145.500 102.889 C 149.982 104.506,151.934 105.205,152.333 105.334 C 152.563 105.408,153.387 105.705,154.167 105.995 C 154.946 106.285,155.771 106.585,156.000 106.662 C 156.229 106.738,157.392 107.152,158.583 107.582 C 159.775 108.012,161.350 108.575,162.083 108.833 C 162.817 109.092,164.384 109.649,165.567 110.071 C 166.749 110.493,167.734 110.819,167.756 110.794 C 167.777 110.770,167.072 109.720,166.189 108.461 C 165.306 107.201,164.021 105.370,163.333 104.390 C 162.646 103.410,161.664 102.003,161.150 101.263 C 159.952 99.533,158.522 97.484,155.270 92.833 C 153.828 90.771,151.771 87.826,150.699 86.289 C 149.627 84.752,147.846 82.202,146.742 80.622 C 140.879 72.239,139.542 70.322,138.862 69.333 C 138.453 68.737,137.782 67.778,137.372 67.201 C 136.331 65.735,135.705 65.676,143.417 67.768 C 143.967 67.918,144.754 68.136,145.167 68.254 C 145.579 68.372,147.117 68.782,148.583 69.167 C 150.050 69.551,151.587 69.962,152.000 70.080 C 152.880 70.331,153.737 70.561,157.667 71.603 C 159.271 72.028,161.633 72.661,162.917 73.008 C 166.539 73.989,168.538 74.527,169.083 74.667 C 169.358 74.738,170.483 75.040,171.583 75.337 C 172.683 75.634,174.661 76.162,175.979 76.511 L 178.374 77.145 178.275 76.531 C 178.168 75.864,178.190 75.958,176.669 69.500 C 176.098 67.071,175.570 64.821,175.497 64.500 C 175.423 64.179,175.242 63.392,175.093 62.750 C 174.944 62.108,174.719 61.133,174.593 60.583 C 174.467 60.033,173.900 57.596,173.332 55.167 C 172.763 52.737,172.238 50.487,172.164 50.167 C 172.091 49.846,171.916 49.096,171.777 48.500 C 171.637 47.904,171.413 46.929,171.278 46.333 C 171.143 45.737,170.680 43.750,170.249 41.917 C 169.818 40.083,169.354 38.096,169.218 37.500 C 169.081 36.904,168.908 36.154,168.833 35.833 C 168.758 35.512,168.578 34.714,168.433 34.059 C 168.288 33.404,168.117 32.729,168.053 32.559 C 167.814 31.920,168.482 32.688,169.648 34.391 C 170.285 35.322,172.894 39.064,175.445 42.707 C 177.996 46.350,181.321 51.106,182.833 53.276 C 184.346 55.446,186.596 58.670,187.833 60.440 C 189.071 62.210,190.721 64.574,191.500 65.693 C 192.279 66.812,193.811 69.007,194.905 70.572 C 195.998 72.137,197.451 74.223,198.133 75.208 C 198.816 76.194,199.428 77.000,199.493 77.000 C 199.558 77.000,201.849 73.794,204.585 69.875 C 207.321 65.956,209.853 62.337,210.212 61.833 C 210.872 60.905,213.165 57.621,218.167 50.440 C 219.679 48.268,221.820 45.200,222.924 43.621 C 224.028 42.042,225.896 39.362,227.075 37.667 C 229.626 33.997,230.857 32.302,230.924 32.368 C 230.966 32.410,230.678 33.710,229.751 37.667 C 229.495 38.757,229.015 40.849,228.834 41.667 C 228.708 42.233,227.329 48.133,226.654 51.000 C 226.470 51.779,226.128 53.242,225.895 54.250 C 225.661 55.258,225.293 56.833,225.077 57.750 C 224.579 59.868,223.356 65.132,223.083 66.333 C 222.969 66.837,222.366 69.443,221.743 72.124 C 221.119 74.805,220.645 77.033,220.687 77.076 C 220.759 77.148,223.851 76.344,229.083 74.892 C 230.155 74.594,234.446 73.451,239.000 72.250 C 240.971 71.730,242.921 71.208,243.333 71.089 C 244.292 70.813,245.301 70.540,249.500 69.417 C 251.379 68.914,253.329 68.389,253.833 68.249 C 255.854 67.688,262.195 66.000,262.279 66.000 C 262.471 66.000,262.107 66.557,259.175 70.750 C 257.509 73.133,255.283 76.321,254.227 77.833 C 253.172 79.346,250.994 82.458,249.388 84.750 C 247.782 87.042,246.293 89.179,246.080 89.500 C 245.866 89.821,244.457 91.846,242.947 94.000 C 241.438 96.154,239.364 99.117,238.339 100.583 C 237.313 102.050,235.291 104.938,233.845 107.000 C 232.399 109.063,231.235 110.774,231.259 110.804 C 231.304 110.860,231.677 110.734,234.417 109.742 C 235.333 109.410,237.096 108.777,238.333 108.336 C 239.571 107.895,241.558 107.182,242.750 106.752 C 243.942 106.322,245.517 105.758,246.250 105.500 C 247.441 105.080,249.841 104.223,253.000 103.089 C 258.075 101.267,261.065 100.200,261.667 99.997 C 261.896 99.919,262.721 99.621,263.500 99.334 C 264.279 99.047,266.604 98.211,268.667 97.476 C 273.764 95.659,276.378 94.724,277.667 94.255 C 278.262 94.038,279.425 93.625,280.250 93.337 C 281.075 93.049,282.012 92.709,282.333 92.583 C 282.654 92.457,283.592 92.118,284.417 91.829 C 285.242 91.540,286.329 91.152,286.833 90.966 C 287.337 90.780,288.350 90.420,289.083 90.164 C 289.817 89.909,291.161 89.430,292.070 89.101 C 292.980 88.771,293.752 88.530,293.787 88.565 C 293.841 88.619,289.915 94.313,285.615 100.417 C 284.969 101.333,284.075 102.608,283.628 103.250 C 283.181 103.892,280.537 107.679,277.753 111.667 C 274.968 115.654,271.827 120.154,270.772 121.667 C 269.717 123.179,267.491 126.367,265.825 128.750 C 262.282 133.817,262.450 133.515,263.280 133.322 C 269.956 131.763,280.788 132.563,287.208 135.088 C 288.914 135.758,289.300 135.914,289.917 136.178 C 306.472 143.285,318.094 159.364,320.326 178.250 C 320.423 179.075,320.726 182.075,320.998 184.917 C 321.270 187.758,321.609 191.246,321.751 192.667 C 322.300 198.173,322.497 200.177,322.746 202.750 C 322.888 204.217,323.113 206.504,323.246 207.833 C 323.658 211.939,323.987 215.303,324.249 218.083 C 324.387 219.550,324.575 221.500,324.666 222.417 C 324.758 223.333,324.945 225.227,325.083 226.625 C 325.221 228.023,325.443 230.273,325.576 231.625 C 325.710 232.977,325.938 235.321,326.085 236.833 C 326.547 241.614,326.836 244.536,326.998 246.083 C 327.085 246.908,327.274 248.858,327.418 250.417 C 327.563 251.975,327.788 254.300,327.919 255.583 C 328.050 256.867,328.275 259.154,328.418 260.667 C 328.562 262.179,328.786 264.467,328.917 265.750 C 329.048 267.033,329.274 269.321,329.420 270.833 C 329.565 272.346,329.795 274.708,329.931 276.083 C 330.245 279.257,330.582 282.688,330.914 286.083 C 331.057 287.550,331.247 289.462,331.335 290.333 C 331.423 291.204,331.611 293.154,331.753 294.667 C 331.895 296.179,332.120 298.504,332.254 299.833 C 332.388 301.162,332.612 303.412,332.751 304.833 C 333.432 311.791,333.939 316.946,334.169 319.250 C 334.261 320.167,334.485 322.492,334.667 324.417 C 335.049 328.460,335.238 330.343,335.584 333.565 C 335.721 334.838,335.833 335.982,335.833 336.107 C 335.833 336.295,337.593 336.333,346.355 336.333 L 356.876 336.333 356.759 335.625 C 356.694 335.235,356.579 334.279,356.503 333.500 C 356.427 332.721,356.281 331.446,356.178 330.667 C 355.556 325.969,355.240 323.419,354.832 319.833 C 354.733 318.962,354.548 317.425,354.420 316.417 C 354.293 315.408,354.069 313.608,353.923 312.417 C 353.778 311.225,353.548 309.369,353.412 308.292 C 353.277 307.215,353.054 305.433,352.917 304.333 C 352.779 303.233,352.552 301.415,352.411 300.292 C 352.271 299.169,352.050 297.425,351.921 296.417 C 351.792 295.408,351.603 293.796,351.501 292.833 C 351.399 291.871,351.212 290.258,351.084 289.250 C 350.956 288.242,350.731 286.442,350.583 285.250 C 350.436 284.058,350.212 282.258,350.085 281.250 C 349.959 280.242,349.736 278.442,349.590 277.250 C 349.444 276.058,349.211 274.183,349.073 273.083 C 348.838 271.218,348.700 270.121,348.081 265.167 C 347.949 264.112,347.761 262.537,347.662 261.667 C 347.485 260.096,347.212 257.857,346.749 254.167 C 346.617 253.112,346.390 251.275,346.245 250.083 C 346.100 248.892,345.879 247.129,345.752 246.167 C 345.626 245.204,345.401 243.367,345.252 242.083 C 345.103 240.800,344.875 238.963,344.746 238.000 C 344.617 237.037,344.431 235.500,344.333 234.583 C 344.235 233.667,344.050 232.092,343.922 231.083 C 343.793 230.075,343.569 228.275,343.423 227.083 C 343.278 225.892,343.048 224.035,342.912 222.958 C 342.777 221.881,342.551 220.081,342.410 218.958 C 341.905 214.938,341.671 213.051,341.412 210.917 C 341.267 209.725,341.044 207.963,340.916 207.000 C 340.788 206.037,340.601 204.463,340.500 203.500 C 340.399 202.537,340.212 200.925,340.084 199.917 C 339.801 197.679,339.396 194.426,339.068 191.750 C 338.933 190.650,338.710 188.850,338.572 187.750 C 338.434 186.650,338.211 184.869,338.077 183.792 C 337.943 182.715,337.723 180.952,337.587 179.875 C 337.452 178.798,337.261 177.204,337.162 176.333 C 336.988 174.793,336.747 172.810,336.245 168.792 C 336.110 167.715,335.890 165.952,335.755 164.875 C 335.621 163.798,335.395 161.979,335.253 160.833 C 335.112 159.688,334.887 157.887,334.754 156.833 C 334.018 151.009,333.859 149.551,333.496 145.250 C 333.226 142.052,333.030 140.487,332.398 136.500 C 331.769 132.525,330.805 127.725,329.923 124.167 C 329.798 123.662,329.607 122.837,329.499 122.333 C 329.317 121.484,329.194 121.018,328.554 118.750 C 328.425 118.292,328.214 117.542,328.085 117.083 C 327.769 115.955,326.844 112.905,326.569 112.083 C 326.446 111.717,326.236 111.042,326.103 110.583 C 325.969 110.125,325.473 108.662,325.002 107.333 C 324.530 106.004,324.080 104.729,324.001 104.500 C 323.923 104.271,323.696 103.671,323.498 103.167 C 323.300 102.662,323.097 102.100,323.045 101.917 C 322.994 101.733,322.901 101.508,322.838 101.417 C 322.775 101.325,322.589 100.875,322.424 100.417 C 322.259 99.958,322.030 99.358,321.915 99.083 C 321.800 98.808,321.426 97.908,321.084 97.083 C 320.742 96.258,320.279 95.171,320.055 94.667 C 319.673 93.804,319.462 93.322,319.033 92.333 C 317.834 89.572,314.154 82.228,312.560 79.417 C 312.352 79.050,312.050 78.487,311.889 78.167 C 311.728 77.846,311.064 76.682,310.414 75.579 C 309.763 74.477,309.177 73.465,309.111 73.329 C 309.045 73.194,308.674 72.581,308.287 71.968 C 307.900 71.354,307.247 70.304,306.836 69.634 C 306.425 68.965,306.031 68.392,305.961 68.361 C 305.891 68.331,305.833 68.242,305.833 68.165 C 305.833 68.088,305.441 67.438,304.961 66.721 C 304.481 66.003,304.012 65.289,303.919 65.134 C 303.561 64.535,300.369 60.016,299.908 59.456 C 299.775 59.295,299.667 59.095,299.667 59.012 C 299.667 58.929,299.606 58.836,299.532 58.806 C 299.458 58.775,299.158 58.399,298.866 57.971 C 298.574 57.542,298.238 57.092,298.120 56.971 C 298.002 56.849,297.724 56.487,297.503 56.167 C 297.281 55.846,297.055 55.546,297.000 55.500 C 296.946 55.454,296.537 54.929,296.091 54.333 C 295.646 53.737,295.198 53.175,295.097 53.083 C 294.995 52.992,294.653 52.579,294.337 52.167 C 293.514 51.093,291.319 48.482,290.876 48.050 C 290.669 47.848,290.500 47.636,290.500 47.578 C 290.500 47.521,290.294 47.267,290.042 47.013 C 289.790 46.759,289.395 46.321,289.164 46.040 C 286.994 43.399,279.153 35.569,275.175 32.069 C 274.767 31.710,274.309 31.304,274.158 31.167 C 274.007 31.029,273.741 30.800,273.567 30.657 C 273.393 30.515,272.875 30.076,272.417 29.682 C 271.123 28.571,270.978 28.453,269.743 27.509 C 269.105 27.022,268.546 26.569,268.500 26.504 C 268.278 26.185,261.762 21.475,259.583 20.058 C 259.125 19.760,258.659 19.437,258.549 19.341 C 258.438 19.245,258.311 19.167,258.268 19.167 C 258.224 19.167,257.695 18.829,257.092 18.417 C 256.490 18.004,255.954 17.667,255.902 17.667 C 255.849 17.667,255.419 17.414,254.945 17.105 C 251.621 14.940,243.489 10.739,239.583 9.171 C 238.850 8.877,238.025 8.536,237.750 8.414 C 237.475 8.292,236.838 8.032,236.333 7.837 C 235.829 7.642,235.267 7.415,235.083 7.332 C 234.420 7.034,230.059 5.570,228.333 5.066 C 227.829 4.919,227.117 4.703,226.750 4.587 C 226.094 4.379,225.055 4.101,223.083 3.609 C 222.533 3.471,221.783 3.282,221.417 3.187 C 219.886 2.795,215.334 1.954,213.250 1.679 C 212.517 1.582,211.317 1.424,210.583 1.326 C 206.436 0.775,198.859 0.562,193.917 0.857 M156.333 158.578 C 156.196 158.612,155.483 158.733,154.750 158.846 C 144.491 160.433,132.371 171.821,120.971 190.583 C 119.154 193.574,117.559 196.389,116.411 198.629 L 115.837 199.750 137.794 199.793 C 157.027 199.831,159.926 199.804,161.167 199.578 C 180.232 196.103,184.814 171.408,168.240 161.454 C 164.966 159.488,158.724 157.980,156.333 158.578 M239.500 158.595 C 239.271 158.635,238.521 158.755,237.833 158.862 C 233.978 159.460,229.836 161.583,226.890 164.471 C 214.726 176.394,220.964 196.448,237.810 199.575 C 239.119 199.818,283.167 200.001,283.167 199.764 C 283.167 199.432,279.018 192.088,277.039 188.917 C 266.242 171.614,254.863 161.015,244.833 158.920 C 243.583 158.658,240.286 158.458,239.500 158.595 M160.304 171.515 C 165.757 173.498,167.267 180.413,163.150 184.546 C 158.943 188.770,151.787 187.000,149.998 181.293 C 148.067 175.133,154.215 169.301,160.304 171.515 M244.207 171.518 C 250.735 174.071,251.125 183.083,244.839 186.131 C 239.615 188.664,233.490 184.739,233.502 178.867 C 233.513 173.510,239.242 169.577,244.207 171.518 M195.917 208.158 C 180.273 209.268,168.720 217.858,170.767 226.857 C 171.010 227.927,171.065 228.021,171.392 227.928 C 179.693 225.573,188.163 230.933,189.537 239.411 C 189.774 240.879,189.700 240.807,191.268 241.093 C 196.277 242.008,202.785 242.005,207.750 241.087 C 208.483 240.951,209.130 240.838,209.187 240.837 C 209.244 240.835,209.342 240.377,209.405 239.819 C 210.329 231.652,219.083 225.607,226.899 227.740 C 228.064 228.058,227.981 228.115,228.263 226.801 C 230.553 216.126,214.446 206.843,195.917 208.158 M152.407 273.352 C 149.515 279.137,147.117 283.840,147.080 283.803 C 147.043 283.765,144.756 279.216,141.996 273.693 C 137.336 264.363,136.954 263.658,136.615 263.759 C 133.080 264.807,129.048 268.596,127.470 272.350 C 123.796 281.095,128.257 290.546,137.500 293.601 L 138.917 294.070 148.250 294.120 L 157.583 294.171 162.664 283.981 C 165.458 278.377,167.831 273.672,167.938 273.526 C 168.097 273.308,169.049 275.098,173.357 283.714 L 178.582 294.167 199.505 294.167 L 220.428 294.167 225.636 283.750 C 228.501 278.021,230.898 273.335,230.964 273.338 C 231.030 273.340,233.408 278.024,236.250 283.747 L 241.417 294.151 250.250 294.156 C 260.505 294.162,261.356 294.059,264.322 292.460 C 275.011 286.695,275.736 271.919,265.651 265.395 C 264.612 264.723,262.487 263.667,262.174 263.667 C 262.103 263.667,259.777 268.204,257.006 273.749 C 254.234 279.295,251.918 283.799,251.858 283.758 C 251.799 283.717,249.425 278.997,246.583 273.269 L 241.417 262.855 199.542 262.844 L 157.667 262.833 152.407 273.352 " stroke="none" fill="#4f3a1f" fill-rule="evenodd"></path><path id="path2" d="M155.764 171.353 C 149.728 172.769,147.763 180.594,152.393 184.775 C 157.762 189.624,166.291 185.041,165.312 177.833 C 164.717 173.449,160.122 170.331,155.764 171.353 M239.597 171.353 C 237.005 171.961,234.587 174.319,233.893 176.917 C 231.858 184.536,241.136 190.004,246.851 184.553 C 252.491 179.174,247.212 169.567,239.597 171.353 M141.851 273.208 C 144.703 278.915,147.054 283.603,147.076 283.627 C 147.113 283.669,157.126 263.731,157.370 263.129 C 157.483 262.848,156.976 262.833,147.078 262.833 L 136.666 262.833 141.851 273.208 M246.703 273.241 C 249.565 278.965,251.919 283.634,251.935 283.616 C 251.951 283.598,254.297 278.915,257.149 273.208 L 262.334 262.833 251.917 262.833 L 241.500 262.833 246.703 273.241 M162.843 283.815 L 157.666 294.167 168.068 294.167 L 178.469 294.167 173.329 283.900 C 170.502 278.254,168.151 273.595,168.104 273.549 C 168.057 273.502,165.690 278.122,162.843 283.815 M225.789 283.750 C 222.972 289.387,220.667 294.037,220.667 294.083 C 220.667 294.129,225.317 294.167,231.000 294.167 L 241.334 294.167 236.167 283.833 C 233.325 278.150,230.979 273.500,230.955 273.500 C 230.930 273.500,228.606 278.112,225.789 283.750 " stroke="none" fill="#fbfbfb" fill-rule="evenodd"></path><path id="path3" d="M235.833 173.417 C 235.428 173.829,235.135 174.167,235.181 174.167 C 235.226 174.167,235.595 173.829,236.000 173.417 C 236.405 173.004,236.699 172.667,236.653 172.667 C 236.607 172.667,236.238 173.004,235.833 173.417 M249.223 179.000 C 249.223 179.688,249.252 179.969,249.288 179.625 C 249.324 179.281,249.324 178.719,249.288 178.375 C 249.252 178.031,249.223 178.313,249.223 179.000 M149.718 178.917 C 149.719 179.467,149.750 179.672,149.787 179.372 C 149.825 179.072,149.824 178.622,149.786 178.372 C 149.748 178.122,149.717 178.367,149.718 178.917 M233.553 179.000 C 233.553 179.596,233.584 179.840,233.621 179.542 C 233.658 179.244,233.658 178.756,233.621 178.458 C 233.584 178.160,233.553 178.404,233.553 179.000 M152.000 184.583 C 152.311 184.904,152.603 185.167,152.649 185.167 C 152.695 185.167,152.478 184.904,152.167 184.583 C 151.856 184.262,151.564 184.000,151.518 184.000 C 151.472 184.000,151.689 184.262,152.000 184.583 M162.991 184.625 L 162.417 185.250 163.042 184.676 C 163.623 184.141,163.743 184.000,163.616 184.000 C 163.588 184.000,163.307 184.281,162.991 184.625 M246.824 184.625 L 246.250 185.250 246.875 184.676 C 247.219 184.360,247.500 184.078,247.500 184.051 C 247.500 183.923,247.359 184.043,246.824 184.625 M220.500 294.208 C 220.500 294.277,225.244 294.316,231.042 294.295 C 236.840 294.274,239.896 294.237,237.833 294.212 C 228.123 294.097,220.500 294.095,220.500 294.208 M162.887 294.292 C 165.804 294.317,170.529 294.317,173.387 294.292 C 176.245 294.266,173.858 294.245,168.083 294.245 C 162.308 294.245,159.970 294.266,162.887 294.292 " stroke="none" fill="#8f8e8d" fill-rule="evenodd"></path><path id="path4" d="M227.167 37.500 C 226.971 37.775,226.848 38.000,226.894 38.000 C 226.940 38.000,227.138 37.775,227.333 37.500 C 227.529 37.225,227.652 37.000,227.606 37.000 C 227.560 37.000,227.362 37.225,227.167 37.500 M175.167 42.500 C 175.362 42.775,175.560 43.000,175.606 43.000 C 175.652 43.000,175.529 42.775,175.333 42.500 C 175.138 42.225,174.940 42.000,174.894 42.000 C 174.848 42.000,174.971 42.225,175.167 42.500 M223.333 43.000 C 223.138 43.275,223.015 43.500,223.061 43.500 C 223.106 43.500,223.304 43.275,223.500 43.000 C 223.696 42.725,223.819 42.500,223.773 42.500 C 223.727 42.500,223.529 42.725,223.333 43.000 M177.500 45.833 C 177.696 46.108,177.894 46.333,177.939 46.333 C 177.985 46.333,177.862 46.108,177.667 45.833 C 177.471 45.558,177.273 45.333,177.227 45.333 C 177.181 45.333,177.304 45.558,177.500 45.833 M139.167 69.833 C 139.362 70.108,139.560 70.333,139.606 70.333 C 139.652 70.333,139.529 70.108,139.333 69.833 C 139.138 69.558,138.940 69.333,138.894 69.333 C 138.848 69.333,138.971 69.558,139.167 69.833 M203.667 71.167 C 203.471 71.442,203.348 71.667,203.394 71.667 C 203.440 71.667,203.638 71.442,203.833 71.167 C 204.029 70.892,204.152 70.667,204.106 70.667 C 204.060 70.667,203.862 70.892,203.667 71.167 M197.167 74.000 C 197.362 74.275,197.560 74.500,197.606 74.500 C 197.652 74.500,197.529 74.275,197.333 74.000 C 197.138 73.725,196.940 73.500,196.894 73.500 C 196.848 73.500,196.971 73.725,197.167 74.000 M201.333 74.500 C 201.138 74.775,201.015 75.000,201.061 75.000 C 201.106 75.000,201.304 74.775,201.500 74.500 C 201.696 74.225,201.819 74.000,201.773 74.000 C 201.727 74.000,201.529 74.225,201.333 74.500 M255.833 75.333 C 255.638 75.608,255.515 75.833,255.561 75.833 C 255.606 75.833,255.804 75.608,256.000 75.333 C 256.196 75.058,256.319 74.833,256.273 74.833 C 256.227 74.833,256.029 75.058,255.833 75.333 M249.667 84.167 C 249.471 84.442,249.348 84.667,249.394 84.667 C 249.440 84.667,249.638 84.442,249.833 84.167 C 250.029 83.892,250.152 83.667,250.106 83.667 C 250.060 83.667,249.862 83.892,249.667 84.167 M151.167 87.000 C 151.362 87.275,151.560 87.500,151.606 87.500 C 151.652 87.500,151.529 87.275,151.333 87.000 C 151.138 86.725,150.940 86.500,150.894 86.500 C 150.848 86.500,150.971 86.725,151.167 87.000 M155.000 92.500 C 155.196 92.775,155.394 93.000,155.439 93.000 C 155.485 93.000,155.362 92.775,155.167 92.500 C 154.971 92.225,154.773 92.000,154.727 92.000 C 154.681 92.000,154.804 92.225,155.000 92.500 M239.667 98.500 C 239.471 98.775,239.348 99.000,239.394 99.000 C 239.440 99.000,239.638 98.775,239.833 98.500 C 240.029 98.225,240.152 98.000,240.106 98.000 C 240.060 98.000,239.862 98.225,239.667 98.500 M161.167 101.333 C 161.362 101.608,161.560 101.833,161.606 101.833 C 161.652 101.833,161.529 101.608,161.333 101.333 C 161.138 101.058,160.940 100.833,160.894 100.833 C 160.848 100.833,160.971 101.058,161.167 101.333 M282.167 105.167 C 281.971 105.442,281.848 105.667,281.894 105.667 C 281.940 105.667,282.138 105.442,282.333 105.167 C 282.529 104.892,282.652 104.667,282.606 104.667 C 282.560 104.667,282.362 104.892,282.167 105.167 M118.667 108.000 C 118.862 108.275,119.060 108.500,119.106 108.500 C 119.152 108.500,119.029 108.275,118.833 108.000 C 118.638 107.725,118.440 107.500,118.394 107.500 C 118.348 107.500,118.471 107.725,118.667 108.000 M279.833 108.500 C 279.638 108.775,279.515 109.000,279.561 109.000 C 279.606 109.000,279.804 108.775,280.000 108.500 C 280.196 108.225,280.319 108.000,280.273 108.000 C 280.227 108.000,280.029 108.225,279.833 108.500 M121.000 111.333 C 121.196 111.608,121.394 111.833,121.439 111.833 C 121.485 111.833,121.362 111.608,121.167 111.333 C 120.971 111.058,120.773 110.833,120.727 110.833 C 120.681 110.833,120.804 111.058,121.000 111.333 M122.500 113.500 C 122.696 113.775,122.894 114.000,122.939 114.000 C 122.985 114.000,122.862 113.775,122.667 113.500 C 122.471 113.225,122.273 113.000,122.227 113.000 C 122.181 113.000,122.304 113.225,122.500 113.500 M124.129 132.622 C 124.521 132.657,125.121 132.657,125.463 132.621 C 125.804 132.585,125.483 132.557,124.750 132.557 C 124.017 132.558,123.737 132.587,124.129 132.622 M128.708 132.621 C 129.052 132.657,129.615 132.657,129.958 132.621 C 130.302 132.585,130.021 132.556,129.333 132.556 C 128.646 132.556,128.365 132.585,128.708 132.621 M269.129 132.622 C 269.521 132.657,270.121 132.657,270.463 132.621 C 270.804 132.585,270.483 132.557,269.750 132.557 C 269.017 132.558,268.737 132.587,269.129 132.622 M273.629 132.622 C 274.021 132.657,274.621 132.657,274.963 132.621 C 275.304 132.585,274.983 132.557,274.250 132.557 C 273.517 132.558,273.237 132.587,273.629 132.622 M292.833 137.575 C 292.833 137.621,293.058 137.774,293.333 137.917 C 293.608 138.059,293.833 138.138,293.833 138.092 C 293.833 138.046,293.608 137.892,293.333 137.750 C 293.058 137.608,292.833 137.529,292.833 137.575 M303.333 144.917 C 303.644 145.237,303.936 145.500,303.982 145.500 C 304.028 145.500,303.811 145.237,303.500 144.917 C 303.189 144.596,302.897 144.333,302.851 144.333 C 302.805 144.333,303.022 144.596,303.333 144.917 M95.167 145.250 C 94.762 145.662,94.468 146.000,94.514 146.000 C 94.560 146.000,94.928 145.662,95.333 145.250 C 95.738 144.837,96.032 144.500,95.986 144.500 C 95.940 144.500,95.572 144.837,95.167 145.250 M92.244 148.208 L 91.417 149.083 92.292 148.256 C 92.773 147.801,93.167 147.408,93.167 147.381 C 93.167 147.257,93.012 147.395,92.244 148.208 M306.750 148.333 C 307.108 148.700,307.438 149.000,307.484 149.000 C 307.530 149.000,307.275 148.700,306.917 148.333 C 306.559 147.967,306.228 147.667,306.182 147.667 C 306.137 147.667,306.392 147.967,306.750 148.333 M159.375 158.615 C 159.535 158.657,159.798 158.657,159.958 158.615 C 160.119 158.573,159.987 158.539,159.667 158.539 C 159.346 158.539,159.215 158.573,159.375 158.615 M239.042 158.615 C 239.202 158.657,239.465 158.657,239.625 158.615 C 239.785 158.573,239.654 158.539,239.333 158.539 C 239.012 158.539,238.881 158.573,239.042 158.615 M227.491 163.792 L 226.917 164.417 227.542 163.842 C 228.123 163.308,228.243 163.167,228.116 163.167 C 228.088 163.167,227.807 163.448,227.491 163.792 M140.073 166.542 L 139.583 167.083 140.125 166.594 C 140.423 166.325,140.667 166.081,140.667 166.052 C 140.667 165.923,140.529 166.037,140.073 166.542 M260.000 167.583 C 260.311 167.904,260.603 168.167,260.649 168.167 C 260.695 168.167,260.478 167.904,260.167 167.583 C 259.856 167.262,259.564 167.000,259.518 167.000 C 259.472 167.000,259.689 167.262,260.000 167.583 M138.500 167.917 C 138.095 168.329,137.801 168.667,137.847 168.667 C 137.893 168.667,138.262 168.329,138.667 167.917 C 139.072 167.504,139.365 167.167,139.319 167.167 C 139.274 167.167,138.905 167.504,138.500 167.917 M134.744 171.708 L 133.917 172.583 134.792 171.756 C 135.605 170.988,135.743 170.833,135.619 170.833 C 135.592 170.833,135.199 171.227,134.744 171.708 M157.294 171.118 C 157.501 171.158,157.801 171.156,157.960 171.115 C 158.120 171.073,157.950 171.040,157.583 171.042 C 157.217 171.044,157.086 171.078,157.294 171.118 M241.127 171.118 C 241.334 171.158,241.634 171.156,241.794 171.115 C 241.953 171.073,241.783 171.040,241.417 171.042 C 241.050 171.044,240.920 171.078,241.127 171.118 M264.250 171.833 C 264.701 172.292,265.108 172.667,265.154 172.667 C 265.200 172.667,264.868 172.292,264.417 171.833 C 263.965 171.375,263.558 171.000,263.513 171.000 C 263.467 171.000,263.799 171.375,264.250 171.833 M133.240 173.375 L 132.750 173.917 133.292 173.427 C 133.590 173.158,133.833 172.914,133.833 172.885 C 133.833 172.757,133.696 172.870,133.240 173.375 M162.667 172.885 C 162.667 172.914,162.910 173.158,163.208 173.427 L 163.750 173.917 163.260 173.375 C 162.804 172.870,162.667 172.757,162.667 172.885 M178.379 177.333 C 178.379 177.746,178.411 177.915,178.451 177.708 C 178.491 177.502,178.491 177.165,178.451 176.958 C 178.411 176.752,178.379 176.921,178.379 177.333 M220.545 177.500 C 220.545 177.912,220.578 178.081,220.618 177.875 C 220.657 177.669,220.657 177.331,220.618 177.125 C 220.578 176.919,220.545 177.088,220.545 177.500 M320.375 179.417 C 320.377 179.783,320.411 179.914,320.451 179.706 C 320.491 179.499,320.490 179.199,320.448 179.040 C 320.406 178.880,320.374 179.050,320.375 179.417 M78.542 179.583 C 78.544 179.950,78.578 180.080,78.618 179.873 C 78.658 179.666,78.656 179.366,78.615 179.206 C 78.573 179.047,78.540 179.217,78.542 179.583 M220.545 181.000 C 220.545 181.412,220.578 181.581,220.618 181.375 C 220.657 181.169,220.657 180.831,220.618 180.625 C 220.578 180.419,220.545 180.588,220.545 181.000 M178.375 181.083 C 178.377 181.450,178.411 181.580,178.451 181.373 C 178.491 181.166,178.490 180.866,178.448 180.706 C 178.406 180.547,178.374 180.717,178.375 181.083 M126.333 182.167 C 126.138 182.442,126.015 182.667,126.061 182.667 C 126.106 182.667,126.304 182.442,126.500 182.167 C 126.696 181.892,126.819 181.667,126.773 181.667 C 126.727 181.667,126.529 181.892,126.333 182.167 M78.045 184.667 C 78.045 185.079,78.078 185.248,78.118 185.042 C 78.157 184.835,78.157 184.498,78.118 184.292 C 78.078 184.085,78.045 184.254,78.045 184.667 M320.875 184.583 C 320.877 184.950,320.911 185.080,320.951 184.873 C 320.991 184.666,320.990 184.366,320.948 184.206 C 320.906 184.047,320.874 184.217,320.875 184.583 M77.705 188.000 C 77.705 188.321,77.740 188.452,77.782 188.292 C 77.823 188.131,77.823 187.869,77.782 187.708 C 77.740 187.548,77.705 187.679,77.705 188.000 M321.379 189.667 C 321.379 190.079,321.411 190.248,321.451 190.042 C 321.491 189.835,321.491 189.498,321.451 189.292 C 321.411 189.085,321.379 189.254,321.379 189.667 M77.542 189.750 C 77.544 190.117,77.578 190.247,77.618 190.040 C 77.658 189.832,77.656 189.532,77.615 189.373 C 77.573 189.214,77.540 189.383,77.542 189.750 M77.205 193.167 C 77.205 193.487,77.240 193.619,77.282 193.458 C 77.323 193.298,77.323 193.035,77.282 192.875 C 77.240 192.715,77.205 192.846,77.205 193.167 M172.491 193.792 L 171.917 194.417 172.542 193.842 C 173.123 193.308,173.243 193.167,173.116 193.167 C 173.088 193.167,172.807 193.448,172.491 193.792 M321.879 194.667 C 321.879 195.079,321.911 195.248,321.951 195.042 C 321.991 194.835,321.991 194.498,321.951 194.292 C 321.911 194.085,321.879 194.254,321.879 194.667 M77.042 194.917 C 77.044 195.283,77.078 195.414,77.118 195.206 C 77.158 194.999,77.156 194.699,77.115 194.540 C 77.073 194.380,77.040 194.550,77.042 194.917 M76.709 198.250 C 76.711 198.617,76.745 198.747,76.785 198.540 C 76.824 198.332,76.823 198.032,76.781 197.873 C 76.739 197.714,76.707 197.883,76.709 198.250 M322.379 199.833 C 322.379 200.246,322.411 200.415,322.451 200.208 C 322.491 200.002,322.491 199.665,322.451 199.458 C 322.411 199.252,322.379 199.421,322.379 199.833 M76.542 199.917 C 76.544 200.283,76.578 200.414,76.618 200.206 C 76.658 199.999,76.656 199.699,76.615 199.540 C 76.573 199.380,76.540 199.550,76.542 199.917 M115.768 199.597 C 115.712 199.742,115.667 199.892,115.667 199.930 C 115.667 199.969,125.473 199.982,137.458 199.959 L 159.250 199.918 137.547 199.875 C 118.360 199.837,115.855 199.803,115.940 199.583 C 115.993 199.446,115.998 199.333,115.952 199.333 C 115.906 199.333,115.823 199.452,115.768 199.597 M261.500 199.833 L 239.750 199.919 261.542 199.959 C 275.985 199.986,283.333 199.944,283.333 199.833 C 283.333 199.742,283.315 199.685,283.292 199.707 C 283.269 199.730,273.462 199.786,261.500 199.833 M322.705 203.167 C 322.705 203.487,322.740 203.619,322.782 203.458 C 322.823 203.298,322.823 203.035,322.782 202.875 C 322.740 202.715,322.705 202.846,322.705 203.167 M76.209 203.417 C 76.211 203.783,76.245 203.914,76.285 203.706 C 76.324 203.499,76.323 203.199,76.281 203.040 C 76.239 202.880,76.207 203.050,76.209 203.417 M322.875 204.917 C 322.877 205.283,322.911 205.414,322.951 205.206 C 322.991 204.999,322.990 204.699,322.948 204.540 C 322.906 204.380,322.874 204.550,322.875 204.917 M76.039 205.167 C 76.039 205.487,76.073 205.619,76.115 205.458 C 76.157 205.298,76.157 205.035,76.115 204.875 C 76.073 204.715,76.039 204.846,76.039 205.167 M75.709 208.417 C 75.711 208.783,75.745 208.914,75.785 208.706 C 75.824 208.499,75.823 208.199,75.781 208.040 C 75.739 207.880,75.707 208.050,75.709 208.417 M323.205 208.333 C 323.205 208.654,323.240 208.785,323.282 208.625 C 323.323 208.465,323.323 208.202,323.282 208.042 C 323.240 207.881,323.205 208.012,323.205 208.333 M196.375 208.119 C 196.627 208.158,197.040 208.158,197.292 208.119 C 197.544 208.081,197.338 208.050,196.833 208.050 C 196.329 208.050,196.123 208.081,196.375 208.119 M201.708 208.119 C 201.960 208.158,202.373 208.158,202.625 208.119 C 202.877 208.081,202.671 208.050,202.167 208.050 C 201.662 208.050,201.456 208.081,201.708 208.119 M323.379 210.000 C 323.379 210.412,323.411 210.581,323.451 210.375 C 323.491 210.169,323.491 209.831,323.451 209.625 C 323.411 209.419,323.379 209.588,323.379 210.000 M323.709 213.417 C 323.711 213.783,323.745 213.914,323.785 213.706 C 323.824 213.499,323.823 213.199,323.781 213.040 C 323.739 212.880,323.707 213.050,323.709 213.417 M75.209 213.583 C 75.211 213.950,75.245 214.080,75.285 213.873 C 75.324 213.666,75.323 213.366,75.281 213.206 C 75.239 213.047,75.207 213.217,75.209 213.583 M323.875 215.083 C 323.877 215.450,323.911 215.580,323.951 215.373 C 323.991 215.166,323.990 214.866,323.948 214.706 C 323.906 214.547,323.874 214.717,323.875 215.083 M174.333 216.417 C 173.928 216.829,173.635 217.167,173.681 217.167 C 173.726 217.167,174.095 216.829,174.500 216.417 C 174.905 216.004,175.199 215.667,175.153 215.667 C 175.107 215.667,174.738 216.004,174.333 216.417 M224.583 216.500 C 225.035 216.958,225.442 217.333,225.487 217.333 C 225.533 217.333,225.201 216.958,224.750 216.500 C 224.299 216.042,223.892 215.667,223.846 215.667 C 223.800 215.667,224.132 216.042,224.583 216.500 M74.712 218.667 C 74.712 219.079,74.745 219.248,74.784 219.042 C 74.824 218.835,74.824 218.498,74.784 218.292 C 74.745 218.085,74.712 218.254,74.712 218.667 M324.205 218.500 C 324.205 218.821,324.240 218.952,324.282 218.792 C 324.323 218.631,324.323 218.369,324.282 218.208 C 324.240 218.048,324.205 218.179,324.205 218.500 M324.372 220.333 C 324.372 220.654,324.406 220.785,324.448 220.625 C 324.490 220.465,324.490 220.202,324.448 220.042 C 324.406 219.881,324.372 220.012,324.372 220.333 M324.709 223.583 C 324.711 223.950,324.745 224.080,324.785 223.873 C 324.824 223.666,324.823 223.366,324.781 223.206 C 324.739 223.047,324.707 223.217,324.709 223.583 M74.212 223.833 C 74.212 224.246,74.245 224.415,74.284 224.208 C 74.324 224.002,74.324 223.665,74.284 223.458 C 74.245 223.252,74.212 223.421,74.212 223.833 M73.872 227.167 C 73.872 227.487,73.906 227.619,73.948 227.458 C 73.990 227.298,73.990 227.035,73.948 226.875 C 73.906 226.715,73.872 226.846,73.872 227.167 M325.209 228.750 C 325.211 229.117,325.245 229.247,325.285 229.040 C 325.324 228.832,325.323 228.532,325.281 228.373 C 325.239 228.214,325.207 228.383,325.209 228.750 M73.709 228.917 C 73.711 229.283,73.745 229.414,73.785 229.206 C 73.824 228.999,73.823 228.699,73.781 228.540 C 73.739 228.380,73.707 228.550,73.709 228.917 M186.060 232.320 C 186.496 232.817,187.157 233.736,187.529 234.362 C 187.900 234.988,188.241 235.500,188.285 235.500 C 188.580 235.500,186.610 232.644,185.814 231.917 C 185.486 231.617,185.584 231.779,186.060 232.320 M212.991 232.125 L 212.417 232.750 213.042 232.176 C 213.623 231.641,213.743 231.500,213.616 231.500 C 213.588 231.500,213.307 231.781,212.991 232.125 M73.372 232.333 C 73.372 232.654,73.406 232.785,73.448 232.625 C 73.490 232.465,73.490 232.202,73.448 232.042 C 73.406 231.881,73.372 232.012,73.372 232.333 M212.000 233.333 C 211.804 233.608,211.681 233.833,211.727 233.833 C 211.773 233.833,211.971 233.608,212.167 233.333 C 212.362 233.058,212.485 232.833,212.439 232.833 C 212.394 232.833,212.196 233.058,212.000 233.333 M325.712 233.833 C 325.712 234.246,325.745 234.415,325.784 234.208 C 325.824 234.002,325.824 233.665,325.784 233.458 C 325.745 233.252,325.712 233.421,325.712 233.833 M73.205 234.000 C 73.205 234.321,73.240 234.452,73.282 234.292 C 73.323 234.131,73.323 233.869,73.282 233.708 C 73.240 233.548,73.205 233.679,73.205 234.000 M211.256 234.431 C 211.100 234.668,211.002 234.891,211.037 234.926 C 211.072 234.961,211.232 234.767,211.393 234.495 C 211.752 233.887,211.645 233.837,211.256 234.431 M72.872 237.333 C 72.872 237.654,72.906 237.785,72.948 237.625 C 72.990 237.465,72.990 237.202,72.948 237.042 C 72.906 236.881,72.872 237.012,72.872 237.333 M326.209 238.917 C 326.211 239.283,326.245 239.414,326.285 239.206 C 326.324 238.999,326.323 238.699,326.281 238.540 C 326.239 238.380,326.207 238.550,326.209 238.917 M191.542 241.282 C 191.702 241.323,191.965 241.323,192.125 241.282 C 192.285 241.240,192.154 241.205,191.833 241.205 C 191.512 241.205,191.381 241.240,191.542 241.282 M206.875 241.282 C 207.035 241.323,207.298 241.323,207.458 241.282 C 207.619 241.240,207.487 241.205,207.167 241.205 C 206.846 241.205,206.715 241.240,206.875 241.282 M72.375 242.417 C 72.377 242.783,72.411 242.914,72.451 242.706 C 72.491 242.499,72.490 242.199,72.448 242.040 C 72.406 241.880,72.374 242.050,72.375 242.417 M326.539 242.333 C 326.539 242.654,326.573 242.785,326.615 242.625 C 326.657 242.465,326.657 242.202,326.615 242.042 C 326.573 241.881,326.539 242.012,326.539 242.333 M326.709 244.083 C 326.711 244.450,326.745 244.580,326.785 244.373 C 326.824 244.166,326.823 243.866,326.781 243.706 C 326.739 243.547,326.707 243.717,326.709 244.083 M327.039 247.333 C 327.039 247.654,327.073 247.785,327.115 247.625 C 327.157 247.465,327.157 247.202,327.115 247.042 C 327.073 246.881,327.039 247.012,327.039 247.333 M71.875 247.583 C 71.877 247.950,71.911 248.080,71.951 247.873 C 71.991 247.666,71.990 247.366,71.948 247.206 C 71.906 247.047,71.874 247.217,71.875 247.583 M327.205 249.167 C 327.205 249.487,327.240 249.619,327.282 249.458 C 327.323 249.298,327.323 249.035,327.282 248.875 C 327.240 248.715,327.205 248.846,327.205 249.167 M71.379 252.667 C 71.379 253.079,71.411 253.248,71.451 253.042 C 71.491 252.835,71.491 252.498,71.451 252.292 C 71.411 252.085,71.379 252.254,71.379 252.667 M327.539 252.500 C 327.539 252.821,327.573 252.952,327.615 252.792 C 327.657 252.631,327.657 252.369,327.615 252.208 C 327.573 252.048,327.539 252.179,327.539 252.500 M328.042 257.583 C 328.044 257.950,328.078 258.080,328.118 257.873 C 328.158 257.666,328.156 257.366,328.115 257.206 C 328.073 257.047,328.040 257.217,328.042 257.583 M70.875 257.750 C 70.877 258.117,70.911 258.247,70.951 258.040 C 70.991 257.832,70.990 257.532,70.948 257.373 C 70.906 257.214,70.874 257.383,70.875 257.750 M328.542 262.750 C 328.544 263.117,328.578 263.247,328.618 263.040 C 328.658 262.832,328.656 262.532,328.615 262.373 C 328.573 262.214,328.540 262.383,328.542 262.750 M70.375 262.917 C 70.377 263.283,70.411 263.414,70.451 263.206 C 70.491 262.999,70.490 262.699,70.448 262.540 C 70.406 262.380,70.374 262.550,70.375 262.917 M157.609 262.792 C 157.539 262.905,170.144 262.904,187.250 262.789 C 190.825 262.766,185.636 262.728,175.718 262.706 C 165.801 262.685,157.652 262.723,157.609 262.792 M214.388 262.792 C 219.414 262.816,227.589 262.816,232.554 262.792 C 237.520 262.767,233.408 262.747,223.417 262.747 C 213.425 262.747,209.362 262.767,214.388 262.792 M268.167 267.417 C 268.478 267.737,268.770 268.000,268.815 268.000 C 268.861 268.000,268.644 267.737,268.333 267.417 C 268.022 267.096,267.730 266.833,267.685 266.833 C 267.639 266.833,267.856 267.096,268.167 267.417 M329.045 267.833 C 329.045 268.246,329.078 268.415,329.118 268.208 C 329.157 268.002,329.157 267.665,329.118 267.458 C 329.078 267.252,329.045 267.421,329.045 267.833 M69.875 268.083 C 69.877 268.450,69.911 268.580,69.951 268.373 C 69.991 268.166,69.990 267.866,69.948 267.706 C 69.906 267.547,69.874 267.717,69.875 268.083 M69.542 271.417 C 69.544 271.783,69.578 271.914,69.618 271.706 C 69.658 271.499,69.656 271.199,69.615 271.040 C 69.573 270.880,69.540 271.050,69.542 271.417 M329.542 272.917 C 329.544 273.283,329.578 273.414,329.618 273.206 C 329.658 272.999,329.656 272.699,329.615 272.540 C 329.573 272.380,329.540 272.550,329.542 272.917 M69.375 273.083 C 69.377 273.450,69.411 273.580,69.451 273.373 C 69.491 273.166,69.490 272.866,69.448 272.706 C 69.406 272.547,69.374 272.717,69.375 273.083 M69.042 276.583 C 69.044 276.950,69.078 277.080,69.118 276.873 C 69.158 276.666,69.156 276.366,69.115 276.206 C 69.073 276.047,69.040 276.217,69.042 276.583 M330.042 278.083 C 330.044 278.450,330.078 278.580,330.118 278.373 C 330.158 278.166,330.156 277.866,330.115 277.706 C 330.073 277.547,330.040 277.717,330.042 278.083 M68.872 278.333 C 68.872 278.654,68.906 278.785,68.948 278.625 C 68.990 278.465,68.990 278.202,68.948 278.042 C 68.906 277.881,68.872 278.012,68.872 278.333 M68.542 281.583 C 68.544 281.950,68.578 282.080,68.618 281.873 C 68.658 281.666,68.656 281.366,68.615 281.206 C 68.573 281.047,68.540 281.217,68.542 281.583 M330.542 283.083 C 330.544 283.450,330.578 283.580,330.618 283.373 C 330.658 283.166,330.656 282.866,330.615 282.706 C 330.573 282.547,330.540 282.717,330.542 283.083 M68.045 286.667 C 68.045 287.079,68.078 287.248,68.118 287.042 C 68.157 286.835,68.157 286.498,68.118 286.292 C 68.078 286.085,68.045 286.254,68.045 286.667 M330.875 286.583 C 330.877 286.950,330.911 287.080,330.951 286.873 C 330.991 286.666,330.990 286.366,330.948 286.206 C 330.906 286.047,330.874 286.217,330.875 286.583 M331.042 288.250 C 331.044 288.617,331.078 288.747,331.118 288.540 C 331.158 288.332,331.156 288.032,331.115 287.873 C 331.073 287.714,331.040 287.883,331.042 288.250 M130.167 289.083 C 130.478 289.404,130.770 289.667,130.815 289.667 C 130.861 289.667,130.644 289.404,130.333 289.083 C 130.022 288.762,129.730 288.500,129.685 288.500 C 129.639 288.500,129.856 288.762,130.167 289.083 M331.375 291.583 C 331.377 291.950,331.411 292.080,331.451 291.873 C 331.491 291.666,331.490 291.366,331.448 291.206 C 331.406 291.047,331.374 291.217,331.375 291.583 M67.545 291.833 C 67.545 292.246,67.578 292.415,67.618 292.208 C 67.657 292.002,67.657 291.665,67.618 291.458 C 67.578 291.252,67.545 291.421,67.545 291.833 M331.539 293.500 C 331.539 293.821,331.573 293.952,331.615 293.792 C 331.657 293.631,331.657 293.369,331.615 293.208 C 331.573 293.048,331.539 293.179,331.539 293.500 M144.958 294.292 C 147.273 294.318,151.060 294.318,153.375 294.292 C 155.690 294.265,153.796 294.244,149.167 294.244 C 144.537 294.244,142.644 294.265,144.958 294.292 M188.958 294.292 C 194.756 294.316,204.244 294.316,210.042 294.292 C 215.840 294.267,211.096 294.247,199.500 294.247 C 187.904 294.247,183.160 294.267,188.958 294.292 M245.625 294.292 C 247.940 294.318,251.727 294.318,254.042 294.292 C 256.356 294.265,254.463 294.244,249.833 294.244 C 245.204 294.244,243.310 294.265,245.625 294.292 M67.205 295.167 C 67.205 295.487,67.240 295.619,67.282 295.458 C 67.323 295.298,67.323 295.035,67.282 294.875 C 67.240 294.715,67.205 294.846,67.205 295.167 M331.875 296.750 C 331.877 297.117,331.911 297.247,331.951 297.040 C 331.991 296.832,331.990 296.532,331.948 296.373 C 331.906 296.214,331.874 296.383,331.875 296.750 M67.042 296.917 C 67.044 297.283,67.078 297.414,67.118 297.206 C 67.158 296.999,67.156 296.699,67.115 296.540 C 67.073 296.380,67.040 296.550,67.042 296.917 M66.705 300.333 C 66.705 300.654,66.740 300.785,66.782 300.625 C 66.823 300.465,66.823 300.202,66.782 300.042 C 66.740 299.881,66.705 300.012,66.705 300.333 M332.379 301.833 C 332.379 302.246,332.411 302.415,332.451 302.208 C 332.491 302.002,332.491 301.665,332.451 301.458 C 332.411 301.252,332.379 301.421,332.379 301.833 M66.545 302.000 C 66.545 302.412,66.578 302.581,66.618 302.375 C 66.657 302.169,66.657 301.831,66.618 301.625 C 66.578 301.419,66.545 301.587,66.545 302.000 M66.205 305.333 C 66.205 305.654,66.240 305.785,66.282 305.625 C 66.323 305.465,66.323 305.202,66.282 305.042 C 66.240 304.881,66.205 305.012,66.205 305.333 M332.879 307.000 C 332.879 307.412,332.911 307.581,332.951 307.375 C 332.991 307.169,332.991 306.831,332.951 306.625 C 332.911 306.419,332.879 306.587,332.879 307.000 M66.042 307.083 C 66.044 307.450,66.078 307.580,66.118 307.373 C 66.158 307.166,66.156 306.866,66.115 306.706 C 66.073 306.547,66.040 306.717,66.042 307.083 M333.205 310.333 C 333.205 310.654,333.240 310.785,333.282 310.625 C 333.323 310.465,333.323 310.202,333.282 310.042 C 333.240 309.881,333.205 310.012,333.205 310.333 M65.705 310.500 C 65.705 310.821,65.740 310.952,65.782 310.792 C 65.823 310.631,65.823 310.369,65.782 310.208 C 65.740 310.048,65.705 310.179,65.705 310.500 M333.379 312.000 C 333.379 312.412,333.411 312.581,333.451 312.375 C 333.491 312.169,333.491 311.831,333.451 311.625 C 333.411 311.419,333.379 311.587,333.379 312.000 M65.539 312.333 C 65.539 312.654,65.573 312.785,65.615 312.625 C 65.657 312.465,65.657 312.202,65.615 312.042 C 65.573 311.881,65.539 312.012,65.539 312.333 M65.209 315.583 C 65.211 315.950,65.245 316.080,65.285 315.873 C 65.324 315.666,65.323 315.366,65.281 315.206 C 65.239 315.047,65.207 315.217,65.209 315.583 M333.879 317.167 C 333.879 317.579,333.911 317.748,333.951 317.542 C 333.991 317.335,333.991 316.998,333.951 316.792 C 333.911 316.585,333.879 316.754,333.879 317.167 M334.205 320.500 C 334.205 320.821,334.240 320.952,334.282 320.792 C 334.323 320.631,334.323 320.369,334.282 320.208 C 334.240 320.048,334.205 320.179,334.205 320.500 M64.709 320.750 C 64.711 321.117,64.745 321.247,64.785 321.040 C 64.824 320.832,64.823 320.532,64.781 320.373 C 64.739 320.214,64.707 320.383,64.709 320.750 M334.372 322.333 C 334.372 322.654,334.406 322.785,334.448 322.625 C 334.490 322.465,334.490 322.202,334.448 322.042 C 334.406 321.881,334.372 322.012,334.372 322.333 M64.212 325.833 C 64.212 326.246,64.245 326.415,64.284 326.208 C 64.324 326.002,64.324 325.665,64.284 325.458 C 64.245 325.252,64.212 325.421,64.212 325.833 M334.705 325.667 C 334.705 325.987,334.740 326.119,334.782 325.958 C 334.823 325.798,334.823 325.535,334.782 325.375 C 334.740 325.215,334.705 325.346,334.705 325.667 M334.872 327.500 C 334.872 327.821,334.906 327.952,334.948 327.792 C 334.990 327.631,334.990 327.369,334.948 327.208 C 334.906 327.048,334.872 327.179,334.872 327.500 M335.209 330.750 C 335.211 331.117,335.245 331.247,335.285 331.040 C 335.324 330.832,335.323 330.532,335.281 330.373 C 335.239 330.214,335.207 330.383,335.209 330.750 M63.709 330.917 C 63.711 331.283,63.745 331.414,63.785 331.206 C 63.824 330.999,63.823 330.699,63.781 330.540 C 63.739 330.380,63.707 330.550,63.709 330.917 M335.667 335.666 L 335.667 336.166 307.375 336.208 L 279.083 336.251 307.458 336.292 L 335.833 336.333 335.833 335.750 C 335.833 335.429,335.796 335.167,335.750 335.167 C 335.704 335.167,335.667 335.391,335.667 335.666 M63.189 335.875 L 63.167 336.333 91.458 336.292 L 119.750 336.251 91.553 336.208 L 63.356 336.166 63.284 335.791 C 63.222 335.471,63.209 335.483,63.189 335.875 " stroke="none" fill="#645439" fill-rule="evenodd"></path></g></svg>