<svg id="svg" version="1.1" xmlns="http://www.w3.org/2000/svg" xmlns:xlink="http://www.w3.org/1999/xlink" width="400" height="400" viewBox="0, 0, 400,400"><g id="svgg"><path id="path0" d="M41.333 120.417 L 41.333 133.667 200.500 133.667 L 359.667 133.667 359.667 120.417 L 359.667 107.167 200.500 107.167 L 41.333 107.167 41.333 120.417 M68.064 149.958 C 68.746 167.610,72.933 183.396,79.117 191.619 C 87.830 203.208,99.770 202.696,121.207 189.814 C 129.140 185.047,141.805 175.698,151.083 167.759 C 151.633 167.288,152.871 166.232,153.833 165.411 C 155.587 163.914,160.759 159.362,162.167 158.076 C 166.517 154.100,168.854 151.907,172.413 148.461 L 173.917 147.005 120.933 147.002 L 67.950 147.000 68.064 149.958 M228.250 148.103 C 228.892 148.709,230.129 149.893,231.000 150.733 C 244.356 163.619,261.644 177.827,273.917 186.004 C 301.576 204.434,316.053 204.478,325.253 186.161 C 329.566 177.573,333.000 161.083,333.000 148.960 L 333.000 147.000 280.042 147.000 L 227.083 147.001 228.250 148.103 M196.667 213.428 C 182.042 214.190,170.082 219.273,151.450 232.646 C 150.093 233.620,148.401 234.829,147.689 235.333 C 146.978 235.838,144.338 237.717,141.823 239.510 C 133.818 245.217,131.895 246.510,128.088 248.745 C 120.495 253.204,106.894 258.181,98.294 259.648 C 96.164 260.012,95.512 260.384,94.914 261.574 C 94.100 263.196,94.726 265.074,96.367 265.932 C 97.854 266.709,113.698 266.048,118.417 265.012 C 118.783 264.931,119.533 264.777,120.083 264.668 C 120.633 264.560,121.458 264.370,121.917 264.247 C 125.908 263.172,128.406 262.430,130.343 261.742 C 134.055 260.424,137.417 259.102,139.470 258.153 C 140.049 257.886,140.549 257.667,140.581 257.667 C 140.926 257.667,149.055 253.678,159.417 248.425 C 164.740 245.727,169.348 243.564,172.500 242.285 C 178.359 239.908,184.653 237.984,188.750 237.318 C 198.506 235.733,206.219 235.863,214.417 237.750 C 217.733 238.514,218.668 238.774,221.583 239.746 C 228.888 242.183,231.467 243.331,245.917 250.586 C 251.417 253.347,256.479 255.859,257.167 256.166 C 257.854 256.474,259.017 257.005,259.750 257.345 C 273.497 263.725,284.067 266.167,297.926 266.167 L 304.268 266.167 305.027 265.686 C 307.783 263.938,306.696 260.337,303.235 259.750 C 298.148 258.888,293.012 257.383,285.500 254.551 C 284.171 254.050,282.858 253.540,282.583 253.418 C 282.308 253.295,281.340 252.883,280.431 252.502 C 276.829 250.991,270.532 247.472,267.000 244.995 C 260.207 240.233,254.074 235.878,252.500 234.699 C 248.320 231.568,240.834 226.576,236.250 223.862 C 222.385 215.653,211.096 212.677,196.667 213.428 M197.735 306.404 C 193.092 307.461,189.507 310.745,187.893 315.417 L 187.432 316.750 187.371 324.685 L 187.311 332.621 185.995 332.730 C 179.869 333.241,174.944 338.085,174.169 344.360 C 173.832 347.094,174.017 374.143,174.382 375.417 C 174.845 377.031,175.509 378.504,176.322 379.723 C 176.741 380.350,177.158 380.987,177.250 381.140 C 178.471 383.169,182.704 385.391,185.777 385.615 L 187.138 385.714 187.249 386.899 C 188.296 397.997,201.647 402.944,209.812 395.259 C 212.125 393.082,213.833 389.368,213.833 386.514 L 213.833 385.716 215.208 385.616 C 216.932 385.491,220.417 384.324,220.639 383.798 C 220.669 383.726,220.766 383.667,220.854 383.667 C 221.093 383.667,222.668 382.456,223.324 381.769 C 223.640 381.438,223.841 381.167,223.772 381.167 C 223.702 381.167,223.903 380.848,224.219 380.458 C 225.482 378.901,226.504 376.530,226.836 374.388 C 227.145 372.393,226.959 343.627,226.630 342.570 C 224.911 337.041,220.779 333.452,215.350 332.770 L 213.750 332.569 213.662 324.660 C 213.563 315.829,213.576 315.944,212.328 313.450 C 209.676 308.150,203.390 305.115,197.735 306.404 M124.753 332.841 C 108.785 335.350,102.185 354.617,113.321 366.217 C 121.961 375.216,137.105 373.994,143.924 363.747 C 153.510 349.339,141.632 330.190,124.753 332.841 M271.167 332.763 C 270.938 332.804,270.300 332.915,269.750 333.011 C 259.542 334.785,252.175 345.177,253.831 355.470 C 255.184 363.885,261.024 369.926,269.833 372.022 C 274.322 373.090,281.028 371.560,285.098 368.540 C 298.698 358.448,294.577 337.421,278.176 333.223 C 276.631 332.827,272.378 332.548,271.167 332.763 " stroke="none" fill="#373737" fill-rule="evenodd"></path><path id="path1" d="M135.250 1.172 C 132.513 1.306,129.016 1.605,127.541 1.832 C 126.968 1.920,125.955 2.076,125.291 2.178 C 123.354 2.475,121.351 2.844,119.917 3.168 C 119.183 3.334,118.021 3.596,117.333 3.751 C 116.646 3.907,115.296 4.258,114.333 4.532 C 113.371 4.806,112.358 5.094,112.083 5.171 C 106.481 6.736,98.683 9.983,93.188 13.039 C 92.237 13.567,91.425 14.000,91.384 14.000 C 91.342 14.000,90.808 14.323,90.196 14.717 C 89.584 15.111,88.671 15.676,88.167 15.972 C 86.813 16.768,86.592 16.906,86.500 17.017 C 86.454 17.072,86.088 17.323,85.687 17.574 C 85.003 18.003,81.243 20.647,80.675 21.099 C 80.533 21.212,79.629 21.928,78.667 22.689 C 77.704 23.450,76.879 24.113,76.833 24.162 C 76.787 24.212,76.264 24.664,75.671 25.168 C 72.458 27.894,66.833 33.549,65.145 35.750 C 64.934 36.025,64.721 36.287,64.672 36.333 C 64.515 36.480,63.600 37.574,63.083 38.233 C 62.808 38.584,62.445 39.031,62.275 39.227 C 62.106 39.423,61.509 40.221,60.950 41.000 C 60.390 41.779,59.887 42.454,59.833 42.500 C 59.378 42.880,54.782 50.159,53.518 52.500 C 52.225 54.895,49.333 60.844,49.333 61.109 C 49.333 61.151,49.191 61.500,49.017 61.884 C 46.817 66.737,44.210 75.417,42.999 81.917 C 42.913 82.375,42.769 83.125,42.677 83.583 C 42.586 84.042,42.429 85.092,42.327 85.917 C 41.873 89.602,41.806 90.177,41.645 91.750 C 41.551 92.667,41.436 96.510,41.390 100.292 L 41.305 107.167 200.507 107.167 L 359.709 107.167 359.622 99.792 C 359.575 95.735,359.455 91.817,359.355 91.083 C 359.256 90.350,359.053 88.775,358.905 87.583 C 358.605 85.172,358.353 83.633,357.676 80.083 C 357.356 78.403,356.546 75.055,356.164 73.833 C 356.093 73.604,355.907 72.967,355.750 72.417 C 355.277 70.746,355.193 70.480,354.573 68.667 C 353.567 65.723,352.291 62.407,351.332 60.250 C 348.918 54.813,346.411 50.264,343.068 45.250 C 341.499 42.897,339.555 40.154,339.347 40.000 C 339.285 39.954,339.056 39.663,338.839 39.352 C 336.856 36.515,329.982 29.164,326.503 26.160 C 325.816 25.568,325.029 24.883,324.753 24.638 C 324.287 24.224,323.647 23.687,323.250 23.375 C 323.158 23.303,322.521 22.793,321.833 22.240 C 321.146 21.688,320.171 20.940,319.667 20.580 C 319.162 20.219,318.651 19.828,318.530 19.712 C 318.409 19.595,318.254 19.500,318.186 19.500 C 318.118 19.500,317.917 19.368,317.740 19.207 C 315.857 17.497,302.179 9.667,301.077 9.667 C 301.013 9.667,300.401 9.404,299.716 9.083 C 299.031 8.762,298.432 8.500,298.385 8.500 C 298.339 8.500,298.064 8.396,297.775 8.268 C 297.486 8.140,297.100 7.979,296.917 7.911 C 293.197 6.516,289.667 5.308,287.917 4.830 C 284.089 3.786,279.173 2.691,276.667 2.324 C 275.979 2.224,275.004 2.074,274.500 1.991 C 272.920 1.732,268.534 1.328,265.583 1.170 C 262.326 0.995,138.837 0.997,135.250 1.172 M41.333 166.888 L 41.333 199.943 40.542 200.505 C 40.106 200.814,39.712 201.108,39.667 201.158 C 39.621 201.209,39.171 201.586,38.667 201.996 C 37.361 203.059,36.473 203.873,34.756 205.583 C 32.754 207.578,31.203 209.317,29.408 211.584 C 29.138 211.925,28.804 212.337,28.667 212.500 C 27.670 213.677,24.769 218.043,23.572 220.167 C 22.713 221.691,20.501 226.106,20.499 226.299 C 20.498 226.364,20.398 226.609,20.275 226.843 C 19.492 228.345,17.720 233.629,17.010 236.583 C 16.600 238.291,16.496 238.776,16.317 239.833 C 15.663 243.694,15.505 245.298,15.392 249.250 C 15.289 252.876,15.509 258.271,15.837 260.167 C 15.925 260.671,16.148 261.983,16.333 263.083 C 17.399 269.418,19.474 276.327,22.087 282.250 C 22.209 282.525,22.548 283.313,22.842 284.000 C 23.406 285.321,25.418 289.401,26.335 291.083 C 28.040 294.210,28.487 294.997,28.857 295.526 C 29.027 295.769,29.167 296.016,29.167 296.074 C 29.167 296.200,32.000 300.712,32.155 300.833 C 32.214 300.879,32.662 301.554,33.151 302.333 C 34.383 304.297,36.971 307.876,40.201 312.083 C 40.272 312.175,40.724 312.744,41.206 313.348 C 43.174 315.812,43.374 316.055,45.167 318.166 C 45.579 318.652,46.104 319.273,46.333 319.547 C 46.563 319.820,46.900 320.213,47.083 320.420 C 47.267 320.627,47.829 321.265,48.333 321.838 C 48.837 322.410,49.512 323.160,49.833 323.504 C 50.154 323.847,51.106 324.874,51.949 325.785 C 52.791 326.696,53.777 327.738,54.139 328.100 L 54.797 328.758 54.617 330.788 C 54.312 334.219,54.950 341.255,55.950 345.500 C 56.091 346.096,56.221 346.658,56.239 346.750 C 56.405 347.578,56.543 348.149,56.660 348.500 C 56.737 348.729,56.929 349.367,57.087 349.917 C 57.845 352.554,58.597 354.612,59.859 357.500 C 60.885 359.848,64.258 366.003,64.999 366.877 C 65.095 366.991,65.562 367.646,66.036 368.333 C 66.511 369.021,66.961 369.658,67.037 369.750 C 67.112 369.842,67.668 370.554,68.271 371.333 C 71.157 375.061,75.016 378.921,79.750 382.813 C 79.933 382.964,80.758 383.571,81.583 384.161 C 82.408 384.751,83.121 385.279,83.167 385.333 C 83.212 385.387,83.775 385.758,84.417 386.158 C 85.058 386.557,85.621 386.936,85.667 387.000 C 85.712 387.064,86.099 387.309,86.525 387.546 C 86.951 387.782,87.589 388.157,87.942 388.379 C 89.170 389.153,93.061 391.182,94.667 391.887 C 95.171 392.108,95.927 392.445,96.347 392.636 C 96.767 392.827,97.517 393.139,98.013 393.329 C 98.510 393.520,99.067 393.745,99.250 393.829 C 106.449 397.147,120.775 399.392,131.296 398.849 C 136.584 398.577,137.761 398.452,141.833 397.733 C 145.625 397.063,151.627 395.501,153.583 394.676 C 153.767 394.599,154.292 394.409,154.750 394.255 C 155.208 394.100,155.733 393.913,155.917 393.838 C 156.100 393.763,156.662 393.536,157.167 393.333 C 160.259 392.092,165.212 389.661,167.122 388.448 C 167.509 388.202,167.860 388.000,167.901 388.000 C 167.981 388.000,172.137 385.284,172.417 385.049 C 172.508 384.972,173.146 384.498,173.834 383.996 C 176.827 381.811,177.360 381.308,177.079 380.928 C 173.916 376.651,174.000 377.248,174.000 359.010 L 174.000 344.209 174.411 342.588 C 175.832 336.986,180.167 333.356,186.362 332.581 L 187.140 332.484 187.205 324.867 L 187.270 317.250 187.720 315.782 C 191.105 304.751,205.275 302.545,211.621 312.060 C 213.611 315.045,213.833 316.377,213.833 325.336 L 213.833 332.476 214.792 332.576 C 220.758 333.200,225.454 337.299,226.805 343.062 C 227.185 344.682,227.232 373.258,226.858 374.917 C 226.480 376.590,225.703 378.394,224.743 379.829 C 223.694 381.397,223.659 381.201,225.215 382.468 C 229.874 386.263,236.020 389.944,242.125 392.598 C 242.423 392.727,242.910 392.940,243.208 393.070 C 245.153 393.920,248.160 394.961,251.667 395.996 C 253.330 396.487,257.438 397.449,258.833 397.675 C 259.521 397.786,260.458 397.941,260.917 398.019 C 266.151 398.913,275.745 399.227,280.667 398.667 C 281.446 398.578,282.758 398.431,283.583 398.339 C 284.408 398.248,285.533 398.100,286.083 398.011 C 286.633 397.922,287.571 397.771,288.167 397.674 C 289.274 397.495,289.769 397.387,291.667 396.910 C 292.262 396.760,293.162 396.537,293.667 396.415 C 295.971 395.855,299.996 394.573,301.290 393.987 C 301.678 393.811,302.063 393.667,302.144 393.667 C 302.271 393.667,303.446 393.187,304.583 392.671 C 304.767 392.588,305.479 392.280,306.167 391.988 C 307.606 391.375,310.601 389.829,312.368 388.784 C 313.037 388.390,313.696 388.011,313.833 387.943 C 314.408 387.660,316.542 386.314,316.667 386.155 C 316.712 386.097,317.087 385.840,317.500 385.583 C 317.912 385.327,318.287 385.070,318.333 385.012 C 318.379 384.955,319.099 384.413,319.934 383.807 C 321.661 382.555,321.708 382.516,324.322 380.229 C 326.757 378.099,329.647 375.133,331.854 372.500 C 333.122 370.988,336.000 367.110,336.000 366.915 C 336.000 366.868,336.263 366.456,336.583 366.000 C 336.904 365.544,337.167 365.094,337.167 365.002 C 337.167 364.909,337.242 364.833,337.333 364.833 C 337.425 364.833,337.500 364.769,337.500 364.691 C 337.500 364.612,337.887 363.881,338.359 363.066 C 341.297 358.001,343.732 351.725,344.983 346.000 C 345.093 345.496,345.249 344.783,345.330 344.417 C 346.117 340.859,346.582 335.198,346.413 331.250 L 346.305 328.750 347.256 327.750 C 348.620 326.314,351.320 323.391,352.180 322.417 C 352.585 321.958,353.029 321.471,353.167 321.333 C 353.305 321.196,353.711 320.718,354.070 320.272 C 354.428 319.825,354.878 319.300,355.069 319.105 C 355.260 318.909,355.754 318.338,356.167 317.835 C 357.160 316.625,357.548 316.161,357.753 315.936 C 357.847 315.834,358.222 315.375,358.587 314.917 C 358.952 314.458,359.290 314.046,359.338 314.000 C 359.386 313.954,360.179 312.942,361.099 311.750 C 369.692 300.617,375.780 290.325,379.829 280.083 C 380.409 278.617,380.945 277.267,381.021 277.083 C 381.247 276.536,382.506 272.654,382.777 271.667 C 382.916 271.162,383.102 270.487,383.190 270.167 C 384.175 266.610,385.121 261.359,385.504 257.333 C 385.700 255.274,385.696 247.556,385.498 245.417 C 384.943 239.425,383.227 232.445,381.144 227.710 C 380.973 227.322,380.833 226.966,380.833 226.921 C 380.833 226.565,377.952 220.924,376.915 219.250 C 376.688 218.883,376.450 218.471,376.386 218.333 C 376.229 217.993,375.136 216.270,375.013 216.167 C 374.958 216.121,374.697 215.750,374.433 215.342 C 374.168 214.935,373.885 214.522,373.803 214.426 C 373.721 214.329,373.113 213.528,372.452 212.646 C 369.911 209.255,365.899 204.939,363.167 202.655 C 362.571 202.157,362.046 201.711,362.000 201.662 C 361.954 201.614,361.579 201.315,361.167 200.998 C 360.754 200.681,360.318 200.327,360.196 200.211 C 360.075 200.095,359.907 200.000,359.821 200.000 C 359.727 200.000,359.667 187.165,359.667 166.917 L 359.667 133.833 200.500 133.833 L 41.333 133.833 41.333 166.888 M173.885 146.940 C 174.250 147.305,158.736 161.471,150.059 168.695 C 118.809 194.714,98.498 204.160,86.583 198.216 C 76.600 193.236,70.322 178.295,68.250 154.583 C 68.069 152.513,67.844 147.117,67.933 146.973 C 68.033 146.812,173.724 146.779,173.885 146.940 M333.135 147.917 C 333.238 149.910,332.365 160.249,331.833 163.333 C 331.746 163.837,331.516 165.188,331.323 166.333 C 328.241 184.576,321.376 196.308,312.083 199.212 C 307.601 200.613,302.155 200.124,295.530 197.726 C 281.011 192.472,260.182 177.712,236.083 155.600 C 232.642 152.442,227.167 147.152,227.167 146.985 C 227.167 146.893,248.174 146.849,280.125 146.875 L 333.083 146.917 333.135 147.917 M206.667 213.515 C 213.192 214.083,218.069 215.178,223.333 217.258 C 224.741 217.815,225.777 218.277,228.750 219.676 C 235.206 222.714,242.255 227.211,255.250 236.582 C 271.994 248.657,276.149 251.052,287.591 255.220 C 293.939 257.533,299.569 259.110,303.423 259.656 C 306.953 260.156,307.851 264.368,304.759 265.920 L 303.935 266.333 298.268 266.333 C 280.725 266.333,271.960 263.700,245.500 250.481 C 227.269 241.374,221.555 239.135,212.116 237.402 C 201.536 235.458,190.769 236.198,180.112 239.601 C 173.649 241.664,169.856 243.345,155.667 250.433 C 129.007 263.751,120.353 266.346,102.667 266.331 C 96.411 266.325,96.258 266.301,95.224 265.123 C 93.502 263.162,94.972 259.667,97.519 259.667 C 98.908 259.667,105.234 258.037,109.917 256.473 C 122.677 252.211,128.884 248.836,143.667 238.125 C 161.158 225.452,169.106 220.610,178.167 217.109 C 186.434 213.916,196.570 212.637,206.667 213.515 M131.417 332.935 C 148.309 336.378,153.267 358.078,139.524 368.422 C 126.517 378.212,107.688 368.801,107.671 352.500 C 107.658 340.056,119.298 330.464,131.417 332.935 M277.635 333.025 C 293.190 336.342,298.692 355.885,287.169 366.894 C 274.549 378.951,253.640 369.981,253.618 352.500 C 253.605 341.938,261.157 333.762,272.000 332.599 C 273.147 332.476,276.110 332.700,277.635 333.025 " stroke="none" fill="#ececec" fill-rule="evenodd"></path><path id="path2" d="M120.875 133.792 C 164.669 133.815,236.331 133.815,280.125 133.792 C 323.919 133.769,288.087 133.750,200.500 133.750 C 112.912 133.750,77.081 133.769,120.875 133.792 M67.900 147.067 C 67.850 147.196,67.841 147.552,67.878 147.859 C 67.940 148.362,67.949 148.347,67.973 147.708 L 68.000 147.000 120.949 147.000 L 173.899 147.000 173.324 147.625 L 172.750 148.250 173.369 147.682 C 173.709 147.369,173.948 147.051,173.900 146.974 C 173.735 146.706,68.003 146.799,67.900 147.067 M253.528 146.958 C 268.073 146.982,291.923 146.982,306.528 146.958 C 321.134 146.935,309.233 146.916,280.083 146.916 C 250.933 146.916,238.984 146.935,253.528 146.958 M333.050 149.500 C 333.050 150.004,333.081 150.210,333.119 149.958 C 333.158 149.706,333.158 149.294,333.119 149.042 C 333.081 148.790,333.050 148.996,333.050 149.500 M230.167 150.052 C 230.167 150.081,230.410 150.325,230.708 150.594 L 231.250 151.083 230.760 150.542 C 230.304 150.037,230.167 149.923,230.167 150.052 M168.991 151.792 L 168.417 152.417 169.042 151.842 C 169.385 151.526,169.667 151.245,169.667 151.217 C 169.667 151.090,169.526 151.210,168.991 151.792 M68.039 151.833 C 68.039 152.154,68.073 152.285,68.115 152.125 C 68.157 151.965,68.157 151.702,68.115 151.542 C 68.073 151.381,68.039 151.512,68.039 151.833 M81.326 194.375 C 81.735 194.810,82.091 195.167,82.118 195.167 C 82.243 195.167,82.111 195.017,81.375 194.326 L 80.583 193.583 81.326 194.375 M199.792 213.289 C 200.181 213.324,200.819 213.324,201.208 213.289 C 201.598 213.254,201.279 213.225,200.500 213.225 C 199.721 213.225,199.402 213.254,199.792 213.289 M195.627 213.451 C 195.834 213.491,196.134 213.490,196.294 213.448 C 196.453 213.406,196.283 213.374,195.917 213.375 C 195.550 213.377,195.420 213.411,195.627 213.451 M204.875 213.448 C 205.035 213.490,205.298 213.490,205.458 213.448 C 205.619 213.406,205.487 213.372,205.167 213.372 C 204.846 213.372,204.715 213.406,204.875 213.448 M199.963 236.289 C 200.355 236.324,200.955 236.324,201.296 236.288 C 201.637 236.252,201.317 236.223,200.583 236.224 C 199.850 236.224,199.571 236.254,199.963 236.289 M306.539 263.000 C 306.539 263.321,306.573 263.452,306.615 263.292 C 306.657 263.131,306.657 262.869,306.615 262.708 C 306.573 262.548,306.539 262.679,306.539 263.000 M108.375 266.282 C 108.535 266.323,108.798 266.323,108.958 266.282 C 109.119 266.240,108.987 266.205,108.667 266.205 C 108.346 266.205,108.215 266.240,108.375 266.282 M292.042 266.282 C 292.202 266.323,292.465 266.323,292.625 266.282 C 292.785 266.240,292.654 266.205,292.333 266.205 C 292.012 266.205,291.881 266.240,292.042 266.282 M187.206 325.447 L 187.167 332.477 186.792 332.549 L 186.417 332.621 186.797 332.644 C 187.352 332.677,187.341 332.837,187.292 325.333 L 187.246 318.417 187.206 325.447 M127.128 332.621 C 127.428 332.658,127.878 332.657,128.128 332.619 C 128.378 332.581,128.133 332.551,127.583 332.552 C 127.033 332.553,126.828 332.584,127.128 332.621 M272.961 332.621 C 273.261 332.658,273.711 332.657,273.961 332.619 C 274.212 332.581,273.967 332.551,273.417 332.552 C 272.867 332.553,272.662 332.584,272.961 332.621 M227.080 359.083 C 227.080 366.692,227.100 369.829,227.125 366.054 C 227.150 362.280,227.150 356.055,227.125 352.221 C 227.100 348.387,227.080 351.475,227.080 359.083 M259.326 366.542 C 260.017 367.278,260.167 367.410,260.167 367.285 C 260.167 367.258,259.810 366.902,259.375 366.493 L 258.583 365.750 259.326 366.542 M127.294 372.451 C 127.501 372.491,127.801 372.490,127.960 372.448 C 128.120 372.406,127.950 372.374,127.583 372.375 C 127.217 372.377,127.086 372.411,127.294 372.451 M273.208 372.448 C 273.369 372.490,273.631 372.490,273.792 372.448 C 273.952 372.406,273.821 372.372,273.500 372.372 C 273.179 372.372,273.048 372.406,273.208 372.448 " stroke="none" fill="#949494" fill-rule="evenodd"></path><path id="path3" d="" stroke="none" fill="#8c8c8c" fill-rule="evenodd"></path><path id="path4" d="M333.048 147.750 C 333.049 148.208,333.081 148.376,333.120 148.123 C 333.158 147.869,333.157 147.494,333.117 147.289 C 333.078 147.084,333.046 147.292,333.048 147.750 M319.573 194.375 L 319.083 194.917 319.625 194.427 C 320.130 193.971,320.243 193.833,320.115 193.833 C 320.086 193.833,319.842 194.077,319.573 194.375 M196.875 213.448 C 197.035 213.490,197.298 213.490,197.458 213.448 C 197.619 213.406,197.487 213.372,197.167 213.372 C 196.846 213.372,196.715 213.406,196.875 213.448 M203.627 213.451 C 203.834 213.491,204.134 213.490,204.294 213.448 C 204.453 213.406,204.283 213.374,203.917 213.375 C 203.550 213.377,203.420 213.411,203.627 213.451 M197.792 236.284 C 197.998 236.324,198.335 236.324,198.542 236.284 C 198.748 236.245,198.579 236.212,198.167 236.212 C 197.754 236.212,197.585 236.245,197.792 236.284 M202.458 236.284 C 202.665 236.324,203.002 236.324,203.208 236.284 C 203.415 236.245,203.246 236.212,202.833 236.212 C 202.421 236.212,202.252 236.245,202.458 236.284 M288.542 265.948 C 288.702 265.990,288.965 265.990,289.125 265.948 C 289.285 265.906,289.154 265.872,288.833 265.872 C 288.512 265.872,288.381 265.906,288.542 265.948 M99.958 266.291 C 101.448 266.319,103.885 266.319,105.375 266.291 C 106.865 266.264,105.646 266.241,102.667 266.241 C 99.688 266.241,98.469 266.264,99.958 266.291 M295.625 266.291 C 297.115 266.319,299.552 266.319,301.042 266.291 C 302.531 266.264,301.313 266.241,298.333 266.241 C 295.354 266.241,294.135 266.264,295.625 266.291 M213.743 325.583 C 213.743 329.433,213.765 330.985,213.792 329.030 C 213.818 327.076,213.818 323.926,213.791 322.030 C 213.765 320.135,213.743 321.733,213.743 325.583 M113.491 338.458 L 112.917 339.083 113.542 338.509 C 114.123 337.974,114.243 337.833,114.116 337.833 C 114.088 337.833,113.807 338.115,113.491 338.458 M107.720 352.500 C 107.720 353.096,107.750 353.340,107.787 353.042 C 107.824 352.744,107.824 352.256,107.787 351.958 C 107.750 351.660,107.720 351.904,107.720 352.500 M141.500 366.583 C 141.095 366.996,140.801 367.333,140.847 367.333 C 140.893 367.333,141.262 366.996,141.667 366.583 C 142.072 366.171,142.365 365.833,142.319 365.833 C 142.274 365.833,141.905 366.171,141.500 366.583 " stroke="none" fill="#848484" fill-rule="evenodd"></path></g></svg>