<svg id="svg" version="1.1" xmlns="http://www.w3.org/2000/svg" xmlns:xlink="http://www.w3.org/1999/xlink" width="400" height="400" viewBox="0, 0, 400,400"><g id="svgg"><path id="path0" d="M195.500 121.997 C 158.493 123.752,125.760 143.736,106.769 176.168 C 102.039 184.245,97.182 195.759,97.515 198.102 C 97.605 198.733,98.013 201.762,98.422 204.833 C 98.831 207.904,99.353 211.823,99.583 213.542 C 99.812 215.260,100.192 218.110,100.427 219.875 C 100.662 221.640,101.040 224.471,101.267 226.167 C 101.494 227.862,101.977 231.500,102.341 234.250 C 102.704 237.000,103.111 240.037,103.246 241.000 C 103.381 241.963,104.806 252.650,106.414 264.750 C 108.022 276.850,109.492 287.875,109.679 289.250 C 109.867 290.625,110.263 293.587,110.559 295.833 L 111.098 299.917 116.705 299.917 L 122.312 299.917 138.947 277.750 L 155.583 255.583 199.943 255.541 L 244.302 255.499 244.949 256.291 C 245.306 256.727,252.832 266.740,261.674 278.542 L 277.750 300.001 283.327 299.959 L 288.905 299.917 293.108 268.417 C 295.420 251.092,297.388 236.317,297.482 235.583 C 297.575 234.850,298.747 226.075,300.085 216.083 C 302.955 194.649,302.773 197.167,301.673 194.167 C 285.175 149.131,242.010 119.790,195.500 121.997 M158.417 177.590 C 166.611 179.770,169.438 190.143,163.483 196.180 C 157.056 202.696,146.049 199.128,144.558 190.045 C 143.275 182.226,150.714 175.541,158.417 177.590 M247.250 177.578 C 254.066 179.352,257.523 186.901,254.428 193.250 C 249.250 203.868,233.389 200.153,233.432 188.333 C 233.460 180.913,240.127 175.724,247.250 177.578 M91.872 249.833 C 91.872 250.154,91.906 250.285,91.948 250.125 C 91.990 249.965,91.990 249.702,91.948 249.542 C 91.906 249.381,91.872 249.512,91.872 249.833 M166.667 266.710 C 166.667 266.733,164.192 279.127,161.167 294.250 C 158.142 309.373,155.667 321.879,155.667 322.040 C 155.667 322.320,244.077 322.534,244.355 322.256 C 244.416 322.196,234.346 271.446,233.499 267.542 L 233.309 266.667 199.988 266.667 C 181.661 266.667,166.667 266.686,166.667 266.710 " stroke="none" fill="#f3b393" fill-rule="evenodd"></path><path id="path1" d="M192.167 11.270 C 186.324 11.667,180.730 12.415,175.250 13.532 C 174.333 13.719,173.096 13.971,172.500 14.093 C 171.904 14.214,170.254 14.616,168.833 14.986 C 167.412 15.355,166.063 15.707,165.833 15.766 C 164.254 16.177,158.004 18.125,157.083 18.493 C 155.959 18.943,155.368 19.161,155.000 19.259 C 154.771 19.320,154.358 19.471,154.083 19.594 C 153.808 19.716,152.796 20.126,151.833 20.504 C 150.871 20.882,149.688 21.373,149.204 21.595 C 148.720 21.818,148.291 22.000,148.250 22.000 C 148.179 22.000,147.505 22.300,145.167 23.369 C 141.179 25.194,135.804 28.023,132.000 30.302 C 129.284 31.929,123.355 35.741,123.167 35.980 C 123.121 36.039,122.763 36.294,122.371 36.548 C 120.876 37.517,115.938 41.261,112.921 43.712 C 105.768 49.524,96.906 58.460,90.817 66.000 C 88.074 69.397,84.646 73.990,82.917 76.583 C 82.550 77.133,82.209 77.621,82.158 77.667 C 82.107 77.712,81.255 79.025,80.264 80.583 C 79.273 82.142,78.320 83.620,78.148 83.868 C 77.975 84.117,77.833 84.354,77.833 84.395 C 77.833 84.437,77.308 85.341,76.667 86.405 C 76.025 87.469,75.500 88.374,75.500 88.415 C 75.500 88.456,75.178 89.036,74.785 89.704 C 74.039 90.970,69.640 99.696,69.091 101.000 C 68.917 101.412,68.594 102.162,68.374 102.667 C 67.840 103.890,67.745 104.109,67.330 105.083 C 67.135 105.542,66.869 106.153,66.738 106.442 C 66.607 106.731,66.500 107.016,66.500 107.076 C 66.500 107.136,66.359 107.500,66.187 107.884 C 65.674 109.030,63.853 114.057,62.916 116.917 C 61.918 119.963,61.285 122.080,60.400 125.333 C 60.263 125.837,60.079 126.513,59.991 126.833 C 59.903 127.154,59.642 128.242,59.410 129.250 C 59.179 130.258,58.882 131.533,58.751 132.083 C 58.620 132.633,58.435 133.533,58.340 134.083 C 58.244 134.633,58.049 135.683,57.907 136.417 C 55.986 146.305,55.459 153.117,55.490 167.667 C 55.520 181.720,55.104 192.781,54.007 207.083 C 53.432 214.581,52.132 227.077,51.416 232.000 C 51.369 232.321,51.220 233.408,51.085 234.417 C 50.951 235.425,50.721 237.037,50.575 238.000 C 50.429 238.963,50.168 240.688,49.996 241.833 C 49.687 243.890,49.520 244.916,48.829 249.000 C 48.380 251.652,48.086 253.321,47.847 254.583 C 47.743 255.133,47.395 256.971,47.074 258.667 C 46.753 260.362,46.419 262.012,46.332 262.333 C 46.245 262.654,46.053 263.554,45.907 264.333 C 45.445 266.786,44.243 272.189,43.665 274.417 C 43.474 275.150,43.205 276.237,43.067 276.833 C 42.591 278.886,42.373 279.757,41.772 282.000 C 40.213 287.825,39.993 288.638,39.770 289.417 C 39.639 289.875,39.295 291.075,39.007 292.083 C 38.719 293.092,38.421 294.067,38.345 294.250 C 38.269 294.433,38.007 295.258,37.762 296.083 C 37.102 298.306,34.703 305.645,33.948 307.750 C 32.404 312.059,30.645 316.763,30.334 317.417 C 30.247 317.600,30.022 318.162,29.833 318.667 C 29.645 319.171,29.420 319.733,29.333 319.917 C 29.246 320.100,28.921 320.887,28.611 321.667 C 27.913 323.421,26.611 326.471,26.085 327.583 C 25.869 328.042,25.527 328.792,25.327 329.250 C 25.126 329.708,24.773 330.496,24.542 331.000 C 23.981 332.224,20.868 338.666,20.643 339.067 C 20.440 339.429,19.604 341.007,18.338 343.417 C 17.856 344.333,17.406 345.158,17.338 345.250 C 17.269 345.342,16.891 346.017,16.497 346.750 C 16.103 347.483,15.268 348.940,14.641 349.988 C 14.013 351.035,13.500 351.954,13.500 352.029 C 13.500 352.105,13.425 352.167,13.333 352.167 C 13.242 352.167,13.167 352.236,13.167 352.320 C 13.167 352.405,12.795 353.061,12.341 353.779 C 11.886 354.496,11.312 355.421,11.064 355.833 C 10.584 356.634,6.865 362.204,5.901 363.567 C 5.026 364.805,2.618 368.072,2.511 368.167 C 2.169 368.469,1.120 370.543,0.571 372.000 C -0.047 373.640,-0.146 378.184,0.397 379.917 C 1.685 384.023,4.125 386.754,7.917 388.333 L 8.917 388.750 68.299 388.793 L 127.681 388.836 127.031 387.876 C 115.646 371.069,106.160 346.486,100.069 318.000 C 98.825 312.180,97.238 303.463,96.429 298.000 C 92.039 268.359,90.358 236.151,92.325 219.390 C 98.121 170.016,135.665 130.475,183.755 123.098 C 246.893 113.412,304.195 160.777,308.245 226.000 C 308.746 234.068,308.152 257.748,307.250 265.667 C 307.203 266.079,307.089 267.429,306.998 268.667 C 306.429 276.341,304.999 288.732,303.737 296.917 C 303.207 300.357,302.298 305.827,301.896 308.000 C 301.667 309.237,301.376 310.813,301.251 311.500 C 295.942 340.532,285.383 369.272,273.466 387.125 L 272.326 388.833 331.256 388.833 C 373.792 388.833,390.403 388.782,390.968 388.649 C 396.250 387.401,400.000 382.254,400.000 376.250 C 400.000 372.645,399.199 370.530,396.381 366.698 C 391.805 360.473,386.666 352.530,383.583 346.917 C 381.077 342.354,379.863 340.033,377.916 336.083 C 375.126 330.420,375.465 331.166,371.254 321.417 C 371.135 321.142,370.764 320.204,370.430 319.333 C 370.095 318.462,369.753 317.600,369.669 317.417 C 369.233 316.458,367.165 310.948,366.165 308.083 C 364.922 304.518,363.959 301.680,363.677 300.750 C 363.510 300.200,363.096 298.887,362.758 297.833 C 362.104 295.800,361.833 294.911,361.333 293.167 C 361.163 292.571,360.900 291.671,360.750 291.167 C 360.599 290.662,360.400 289.950,360.307 289.583 C 360.214 289.217,360.076 288.767,360.000 288.583 C 359.924 288.400,359.778 287.912,359.677 287.500 C 359.575 287.087,359.351 286.225,359.180 285.583 C 358.297 282.279,357.594 279.587,357.244 278.167 C 356.687 275.909,355.750 271.965,355.422 270.500 C 355.269 269.813,355.041 268.800,354.917 268.250 C 354.793 267.700,354.533 266.500,354.338 265.583 C 354.143 264.667,353.880 263.429,353.753 262.833 C 353.626 262.237,353.476 261.487,353.421 261.167 C 353.366 260.846,353.251 260.283,353.167 259.917 C 353.024 259.296,352.466 256.357,351.902 253.250 C 351.768 252.517,351.586 251.542,351.496 251.083 C 351.311 250.135,350.302 243.961,349.904 241.333 C 347.861 227.856,346.287 213.167,345.503 200.250 C 345.414 198.783,345.261 196.383,345.163 194.917 C 344.779 189.136,344.614 182.587,344.572 171.417 C 344.509 154.695,344.426 152.854,343.343 144.167 C 342.875 140.419,341.217 131.425,340.654 129.583 C 340.570 129.308,340.308 128.258,340.071 127.250 C 339.835 126.242,339.541 125.079,339.419 124.667 C 339.297 124.254,339.073 123.467,338.921 122.917 C 337.885 119.159,334.666 109.657,333.840 107.917 C 333.753 107.733,333.486 107.096,333.247 106.500 C 332.858 105.529,332.637 105.003,332.166 103.917 C 332.087 103.733,331.878 103.246,331.703 102.833 C 330.237 99.384,326.090 91.176,324.066 87.718 C 323.250 86.325,322.217 84.563,321.770 83.801 C 320.678 81.941,316.858 76.182,315.231 73.940 C 314.508 72.945,313.560 71.637,313.125 71.034 C 312.689 70.431,312.163 69.745,311.955 69.510 C 311.747 69.276,311.353 68.784,311.080 68.418 C 310.807 68.052,309.946 66.975,309.167 66.024 C 308.387 65.074,307.542 64.023,307.287 63.690 C 307.032 63.356,306.732 63.008,306.619 62.917 C 306.507 62.825,306.200 62.487,305.937 62.167 C 302.368 57.806,295.165 50.647,289.083 45.416 C 286.939 43.572,286.817 43.470,286.081 42.922 C 285.716 42.649,285.267 42.286,285.083 42.114 C 283.635 40.757,274.139 34.018,270.917 32.061 C 263.238 27.396,257.183 24.254,250.583 21.510 C 249.667 21.129,248.767 20.747,248.583 20.663 C 248.400 20.578,247.875 20.369,247.417 20.198 C 246.958 20.026,246.433 19.824,246.250 19.749 C 246.067 19.674,245.879 19.599,245.833 19.583 C 245.787 19.567,245.637 19.507,245.500 19.450 C 245.105 19.285,243.984 18.895,240.583 17.743 C 237.007 16.531,233.298 15.472,229.500 14.579 C 228.079 14.245,226.654 13.905,226.333 13.823 C 226.012 13.741,224.887 13.519,223.833 13.331 C 222.779 13.142,221.579 12.915,221.167 12.828 C 220.287 12.640,217.439 12.247,214.500 11.906 C 213.354 11.773,211.742 11.586,210.917 11.491 C 209.476 11.323,194.056 11.142,192.167 11.270 M252.158 196.292 L 251.583 196.917 252.208 196.342 C 252.790 195.808,252.910 195.667,252.783 195.667 C 252.755 195.667,252.474 195.948,252.158 196.292 " stroke="none" fill="#8b5c3c" fill-rule="evenodd"></path><path id="path2" d="M96.618 199.375 C 94.178 207.549,92.861 214.293,92.053 222.750 C 91.492 228.612,91.726 252.416,92.413 259.417 C 92.458 259.875,92.574 261.487,92.670 263.000 C 93.886 282.063,96.975 303.957,100.899 321.336 C 102.240 327.274,102.558 328.582,102.715 328.789 C 102.840 328.955,111.254 335.037,115.322 337.902 C 115.831 338.260,122.548 343.055,130.249 348.557 C 146.212 359.962,146.705 360.298,149.899 361.908 C 154.298 364.127,158.754 365.493,164.417 366.359 C 166.268 366.642,229.765 366.772,233.407 366.501 C 243.541 365.744,248.826 363.501,261.083 354.753 C 264.567 352.267,274.129 345.443,282.333 339.590 C 290.537 333.737,297.273 328.930,297.301 328.909 C 297.424 328.815,299.175 321.173,300.179 316.348 C 301.329 310.821,302.247 305.748,303.423 298.417 C 306.499 279.247,308.233 257.033,308.244 236.667 C 308.251 223.005,307.923 218.968,306.060 209.833 C 305.221 205.719,302.951 197.333,302.676 197.333 C 302.603 197.333,298.321 228.876,297.460 235.750 C 297.380 236.392,295.422 251.092,293.109 268.417 L 288.905 299.917 283.327 299.959 L 277.750 300.001 261.674 278.542 C 252.832 266.740,245.306 256.727,244.949 256.291 L 244.302 255.499 199.943 255.541 L 155.583 255.583 138.947 277.750 L 122.312 299.917 116.705 299.917 L 111.098 299.917 110.559 295.833 C 110.263 293.587,109.867 290.625,109.679 289.250 C 109.492 287.875,108.022 276.850,106.414 264.750 C 104.806 252.650,103.381 241.963,103.246 241.000 C 103.111 240.037,102.704 237.000,102.341 234.250 C 101.977 231.500,101.494 227.862,101.267 226.167 C 101.040 224.471,100.662 221.640,100.427 219.875 C 99.665 214.155,99.180 210.524,98.406 204.750 C 97.988 201.633,97.603 198.690,97.550 198.208 C 97.411 196.952,97.300 197.092,96.618 199.375 M233.499 267.542 C 234.346 271.446,244.416 322.196,244.355 322.256 C 244.077 322.534,155.667 322.320,155.667 322.040 C 155.667 321.879,158.142 309.373,161.167 294.250 C 164.192 279.127,166.667 266.733,166.667 266.710 C 166.667 266.686,181.661 266.667,199.988 266.667 L 233.309 266.667 233.499 267.542 " stroke="none" fill="#ebebeb" fill-rule="evenodd"></path><path id="path3" d="M152.667 177.678 C 144.393 179.965,141.744 190.099,147.829 196.181 C 154.232 202.581,164.998 199.021,166.501 190.008 C 167.786 182.302,160.247 175.582,152.667 177.678 M242.222 177.507 C 236.617 178.616,232.645 184.272,233.501 189.927 C 234.869 198.962,245.727 202.598,252.178 196.181 C 259.945 188.456,252.974 175.381,242.222 177.507 M102.717 329.256 C 102.769 329.436,103.084 330.633,103.418 331.917 C 109.119 353.872,117.581 373.926,127.030 387.875 L 127.679 388.833 200.002 388.833 L 272.326 388.833 273.466 387.125 C 282.663 373.348,290.665 354.278,296.499 332.237 C 296.955 330.515,297.310 329.090,297.289 329.071 C 297.268 329.052,287.912 335.709,276.500 343.866 C 265.087 352.022,255.262 359.015,254.667 359.404 C 249.369 362.871,243.790 365.046,237.218 366.206 L 235.083 366.583 200.000 366.583 L 164.917 366.583 162.782 366.206 C 156.511 365.099,150.689 362.869,145.849 359.723 C 145.061 359.210,135.168 352.182,123.865 344.104 C 112.562 336.026,103.158 329.307,102.968 329.173 C 102.649 328.949,102.629 328.956,102.717 329.256 " stroke="none" fill="#4f3a1f" fill-rule="evenodd"></path><path id="path4" d="M196.625 121.954 C 196.923 121.991,197.410 121.991,197.708 121.954 C 198.006 121.917,197.762 121.887,197.167 121.887 C 196.571 121.887,196.327 121.917,196.625 121.954 M202.292 121.954 C 202.590 121.991,203.077 121.991,203.375 121.954 C 203.673 121.917,203.429 121.887,202.833 121.887 C 202.237 121.887,201.994 121.917,202.292 121.954 M192.960 122.118 C 193.168 122.158,193.468 122.156,193.627 122.115 C 193.786 122.073,193.617 122.040,193.250 122.042 C 192.883 122.044,192.753 122.078,192.960 122.118 M206.460 122.118 C 206.668 122.158,206.968 122.156,207.127 122.115 C 207.286 122.073,207.117 122.040,206.750 122.042 C 206.383 122.044,206.253 122.078,206.460 122.118 M190.708 122.282 C 190.869 122.323,191.131 122.323,191.292 122.282 C 191.452 122.240,191.321 122.205,191.000 122.205 C 190.679 122.205,190.548 122.240,190.708 122.282 M208.708 122.282 C 208.869 122.323,209.131 122.323,209.292 122.282 C 209.452 122.240,209.321 122.205,209.000 122.205 C 208.679 122.205,208.548 122.240,208.708 122.282 M275.831 153.542 C 277.919 155.670,278.167 155.909,278.167 155.789 C 278.167 155.765,277.135 154.734,275.875 153.498 L 273.583 151.250 275.831 153.542 M123.997 153.625 L 121.917 155.750 124.042 153.669 C 126.016 151.736,126.242 151.500,126.122 151.500 C 126.098 151.500,125.142 152.456,123.997 153.625 M120.573 157.208 L 120.083 157.750 120.625 157.260 C 120.923 156.991,121.167 156.748,121.167 156.719 C 121.167 156.590,121.029 156.703,120.573 157.208 M154.955 177.287 C 155.250 177.324,155.775 177.324,156.121 177.288 C 156.467 177.252,156.225 177.222,155.583 177.221 C 154.942 177.221,154.659 177.250,154.955 177.287 M243.788 177.287 C 244.084 177.324,244.609 177.324,244.955 177.288 C 245.300 177.252,245.058 177.222,244.417 177.221 C 243.775 177.221,243.492 177.250,243.788 177.287 M147.573 180.542 L 147.083 181.083 147.625 180.594 C 147.923 180.325,148.167 180.081,148.167 180.052 C 148.167 179.923,148.029 180.037,147.573 180.542 M251.833 180.052 C 251.833 180.081,252.077 180.325,252.375 180.594 L 252.917 181.083 252.427 180.542 C 251.971 180.037,251.833 179.923,251.833 180.052 M144.383 188.333 C 144.383 188.838,144.415 189.044,144.453 188.792 C 144.491 188.540,144.491 188.127,144.453 187.875 C 144.415 187.623,144.383 187.829,144.383 188.333 M255.552 188.417 C 255.553 188.967,255.584 189.172,255.621 188.872 C 255.658 188.572,255.657 188.122,255.619 187.872 C 255.581 187.622,255.551 187.867,255.552 188.417 M163.240 196.375 L 162.750 196.917 163.292 196.427 C 163.590 196.158,163.833 195.914,163.833 195.885 C 163.833 195.757,163.696 195.870,163.240 196.375 M307.872 221.833 C 307.872 222.154,307.906 222.285,307.948 222.125 C 307.990 221.965,307.990 221.702,307.948 221.542 C 307.906 221.381,307.872 221.512,307.872 221.833 M308.409 235.583 C 308.409 239.250,308.431 240.726,308.458 238.864 C 308.485 237.002,308.485 234.002,308.458 232.197 C 308.431 230.393,308.409 231.917,308.409 235.583 M91.576 235.583 C 91.576 239.067,91.598 240.515,91.625 238.803 C 91.652 237.090,91.652 234.240,91.625 232.469 C 91.598 230.699,91.576 232.100,91.576 235.583 M91.712 246.167 C 91.712 246.579,91.745 246.748,91.784 246.542 C 91.824 246.335,91.824 245.998,91.784 245.792 C 91.745 245.585,91.712 245.754,91.712 246.167 M308.212 246.333 C 308.212 246.746,308.245 246.915,308.284 246.708 C 308.324 246.502,308.324 246.165,308.284 245.958 C 308.245 245.752,308.212 245.921,308.212 246.333 M91.879 251.000 C 91.879 251.412,91.911 251.581,91.951 251.375 C 91.991 251.169,91.991 250.831,91.951 250.625 C 91.911 250.419,91.879 250.588,91.879 251.000 M308.042 251.083 C 308.044 251.450,308.078 251.580,308.118 251.373 C 308.158 251.166,308.156 250.866,308.115 250.706 C 308.073 250.547,308.040 250.717,308.042 251.083 M92.050 254.500 C 92.050 255.004,92.081 255.210,92.119 254.958 C 92.158 254.706,92.158 254.294,92.119 254.042 C 92.081 253.790,92.050 253.996,92.050 254.500 M307.881 254.583 C 307.882 255.042,307.915 255.209,307.953 254.956 C 307.991 254.703,307.990 254.328,307.951 254.123 C 307.911 253.918,307.880 254.125,307.881 254.583 M307.705 257.500 C 307.705 257.821,307.740 257.952,307.782 257.792 C 307.823 257.631,307.823 257.369,307.782 257.208 C 307.740 257.048,307.705 257.179,307.705 257.500 M92.542 262.750 C 92.544 263.117,92.578 263.247,92.618 263.040 C 92.658 262.832,92.656 262.532,92.615 262.373 C 92.573 262.214,92.540 262.383,92.542 262.750 M307.375 262.917 C 307.377 263.283,307.411 263.414,307.451 263.206 C 307.491 262.999,307.490 262.699,307.448 262.540 C 307.406 262.380,307.374 262.550,307.375 262.917 M92.705 265.000 C 92.705 265.321,92.740 265.452,92.782 265.292 C 92.823 265.131,92.823 264.869,92.782 264.708 C 92.740 264.548,92.705 264.679,92.705 265.000 M307.205 265.167 C 307.205 265.487,307.240 265.619,307.282 265.458 C 307.323 265.298,307.323 265.035,307.282 264.875 C 307.240 264.715,307.205 264.846,307.205 265.167 M93.205 271.333 C 93.205 271.654,93.240 271.785,93.282 271.625 C 93.323 271.465,93.323 271.202,93.282 271.042 C 93.240 270.881,93.205 271.012,93.205 271.333 M306.705 271.333 C 306.705 271.654,306.740 271.785,306.782 271.625 C 306.823 271.465,306.823 271.202,306.782 271.042 C 306.740 270.881,306.705 271.012,306.705 271.333 " stroke="none" fill="#a98b78" fill-rule="evenodd"></path></g></svg>