<svg id="svg" version="1.1" xmlns="http://www.w3.org/2000/svg" xmlns:xlink="http://www.w3.org/1999/xlink" width="400" height="400" viewBox="0, 0, 400,400"><g id="svgg"><path id="path0" d="M196.250 0.183 C 194.638 0.414,192.719 0.767,190.958 1.157 C 190.569 1.243,189.904 1.389,189.480 1.481 C 189.057 1.573,188.269 1.792,187.730 1.967 C 187.191 2.141,186.188 2.452,185.500 2.656 C 184.813 2.861,183.838 3.176,183.333 3.357 C 182.829 3.538,182.004 3.823,181.500 3.990 C 180.996 4.157,179.983 4.536,179.250 4.832 C 178.517 5.128,177.767 5.427,177.583 5.496 C 177.195 5.643,176.774 5.823,175.453 6.407 C 174.924 6.642,174.458 6.833,174.418 6.833 C 174.182 6.833,163.581 12.047,161.574 13.150 C 159.457 14.313,158.506 14.843,157.500 15.420 C 156.904 15.761,156.154 16.190,155.833 16.371 C 155.512 16.553,155.175 16.759,155.083 16.829 C 154.992 16.899,154.467 17.201,153.917 17.502 C 153.367 17.802,152.542 18.287,152.083 18.579 C 151.625 18.872,150.650 19.473,149.917 19.914 C 149.183 20.355,148.171 20.979,147.667 21.301 C 143.580 23.905,142.796 24.412,140.250 26.095 C 139.150 26.822,138.212 27.455,138.167 27.501 C 138.121 27.548,137.521 27.957,136.833 28.410 C 136.146 28.863,134.683 29.880,133.583 30.671 C 132.483 31.461,130.796 32.660,129.833 33.335 C 128.871 34.010,128.046 34.608,128.000 34.664 C 127.954 34.720,127.253 35.250,126.441 35.841 C 125.630 36.433,124.607 37.179,124.167 37.500 C 123.014 38.342,120.098 40.563,120.000 40.674 C 119.954 40.725,119.617 40.988,119.250 41.258 C 118.883 41.527,118.546 41.788,118.500 41.836 C 118.454 41.884,117.705 42.485,116.834 43.170 C 115.964 43.856,115.139 44.506,115.001 44.615 C 114.863 44.724,114.442 45.061,114.066 45.365 C 113.690 45.668,113.093 46.142,112.738 46.417 C 112.034 46.963,109.134 49.354,109.000 49.499 C 108.954 49.549,108.280 50.113,107.501 50.753 C 105.604 52.312,103.664 53.981,100.888 56.443 C 100.322 56.944,99.685 57.505,99.471 57.688 C 98.783 58.280,96.809 60.066,96.179 60.667 C 95.843 60.987,94.824 61.925,93.916 62.750 C 92.119 64.381,82.854 73.591,80.833 75.755 C 79.308 77.389,76.505 80.525,75.167 82.095 C 74.199 83.231,72.213 85.641,71.750 86.242 C 71.475 86.599,71.058 87.122,70.822 87.404 C 69.838 88.584,66.185 93.741,65.738 94.581 C 65.364 95.283,65.080 95.753,64.979 95.833 C 64.922 95.879,64.501 96.592,64.043 97.417 C 62.789 99.675,62.330 100.490,61.843 101.325 C 61.038 102.703,57.656 109.661,56.371 112.583 C 54.380 117.113,51.614 124.633,50.332 129.000 C 50.130 129.688,49.892 130.450,49.802 130.694 C 49.712 130.938,49.574 131.388,49.495 131.694 C 49.416 132.000,49.279 132.512,49.190 132.833 C 48.434 135.555,47.723 138.367,47.335 140.167 C 47.246 140.579,47.054 141.442,46.908 142.083 C 46.570 143.567,46.215 145.305,45.987 146.583 C 45.888 147.133,45.741 147.921,45.659 148.333 C 45.052 151.383,44.096 158.420,43.678 162.917 C 43.151 168.589,43.084 170.592,43.102 180.083 C 43.120 190.071,43.150 190.707,43.845 195.981 C 44.078 197.746,44.400 197.568,39.875 198.173 C 39.165 198.268,38.096 198.415,37.500 198.501 C 36.279 198.675,34.347 198.931,33.042 199.091 C 32.063 199.211,32.072 199.190,32.328 200.657 C 32.486 201.561,32.865 204.112,33.178 206.375 C 33.263 206.994,33.405 208.006,33.492 208.625 C 33.579 209.244,33.734 210.425,33.836 211.250 C 33.938 212.075,34.127 213.387,34.256 214.167 C 34.386 214.946,34.533 215.921,34.584 216.333 C 34.635 216.746,34.755 217.646,34.851 218.333 C 34.947 219.021,35.087 220.071,35.163 220.667 C 35.297 221.716,35.509 223.177,35.830 225.250 C 35.914 225.800,36.063 226.850,36.160 227.583 C 36.257 228.317,36.497 230.004,36.693 231.333 C 36.889 232.662,37.078 234.088,37.114 234.500 C 37.261 236.173,37.377 236.216,40.250 235.646 C 40.708 235.555,41.646 235.410,42.333 235.324 C 43.021 235.238,44.071 235.100,44.667 235.016 C 45.262 234.933,46.425 234.780,47.250 234.676 C 48.075 234.573,48.874 234.450,49.025 234.405 C 49.252 234.336,49.318 234.502,49.410 235.369 C 49.471 235.945,49.622 237.054,49.745 237.833 C 49.989 239.370,50.205 240.908,50.507 243.250 C 50.613 244.075,50.755 245.096,50.823 245.520 L 50.947 246.290 49.820 246.491 C 49.200 246.602,48.368 246.724,47.971 246.762 C 47.575 246.801,46.837 246.902,46.333 246.988 C 45.829 247.073,44.779 247.226,44.000 247.327 C 42.364 247.539,40.333 247.816,39.522 247.938 C 38.977 248.020,38.963 248.041,39.064 248.636 C 39.121 248.974,39.282 250.075,39.422 251.083 C 39.562 252.092,39.781 253.592,39.907 254.417 C 40.034 255.242,40.219 256.517,40.319 257.250 C 40.734 260.303,41.018 262.304,41.159 263.167 C 41.242 263.671,41.392 264.721,41.493 265.500 C 41.961 269.111,42.310 271.644,42.583 273.417 C 42.710 274.242,42.898 275.554,43.001 276.333 C 43.370 279.124,43.507 280.116,43.834 282.362 C 44.017 283.616,44.167 284.692,44.167 284.755 C 44.167 284.818,44.368 284.819,44.613 284.757 C 44.859 284.696,45.628 284.575,46.322 284.490 C 47.016 284.404,48.108 284.258,48.750 284.165 C 49.392 284.072,50.479 283.924,51.167 283.837 C 51.854 283.750,52.995 283.605,53.701 283.515 C 54.408 283.425,55.243 283.303,55.558 283.244 L 56.131 283.136 56.239 284.026 C 56.298 284.516,56.451 285.592,56.578 286.417 C 56.705 287.242,56.888 288.517,56.985 289.250 C 57.351 292.025,57.523 293.281,57.670 294.250 C 57.806 295.153,58.064 296.950,58.494 300.000 C 58.579 300.596,58.730 301.721,58.831 302.500 C 58.931 303.279,59.084 304.329,59.170 304.833 C 59.256 305.337,59.364 306.087,59.411 306.500 C 59.458 306.912,59.572 307.756,59.665 308.375 C 59.957 310.323,60.146 311.718,60.254 312.708 L 60.357 313.667 57.762 313.667 L 55.167 313.667 55.167 337.917 L 55.167 362.167 73.310 362.167 L 91.454 362.167 91.395 361.792 C 91.363 361.585,90.995 358.942,90.579 355.917 C 89.595 348.772,89.237 346.202,88.748 342.750 C 88.526 341.192,88.077 337.967,87.749 335.583 C 86.727 328.154,86.496 326.486,86.165 324.167 C 85.988 322.929,85.466 319.179,85.004 315.833 C 84.542 312.487,84.091 309.262,84.001 308.667 C 83.912 308.071,83.573 305.633,83.248 303.250 C 82.923 300.867,82.512 297.904,82.334 296.667 C 82.002 294.359,81.048 287.505,79.422 275.750 C 78.915 272.083,78.425 268.627,78.333 268.070 C 78.110 266.710,78.125 266.273,78.376 266.833 C 89.908 292.613,112.502 307.591,139.833 307.574 C 165.273 307.558,187.710 293.712,199.079 271.011 L 200.033 269.106 201.230 271.428 C 215.776 299.660,247.565 313.693,278.038 305.335 C 296.626 300.236,312.108 287.190,320.387 269.647 C 320.966 268.420,321.562 267.154,321.711 266.833 C 321.982 266.252,321.983 266.251,321.910 266.750 C 321.870 267.025,321.689 268.337,321.509 269.667 C 321.157 272.261,320.280 278.583,318.665 290.167 C 318.109 294.154,317.393 299.292,317.074 301.583 C 316.756 303.875,316.423 306.237,316.334 306.833 C 316.245 307.429,315.905 309.867,315.579 312.250 C 315.253 314.633,314.654 318.946,314.248 321.833 C 313.434 327.619,311.991 338.004,311.585 341.000 C 311.442 342.054,311.215 343.667,311.081 344.583 C 310.946 345.500,310.495 348.725,310.078 351.750 C 309.661 354.775,309.173 358.285,308.993 359.550 C 308.814 360.814,308.667 361.921,308.667 362.008 C 308.667 362.107,315.444 362.167,326.833 362.167 L 345.000 362.167 345.000 337.917 L 345.000 313.667 342.330 313.667 L 339.660 313.667 339.734 313.292 C 339.774 313.085,339.894 312.242,340.000 311.417 C 340.106 310.592,340.295 309.242,340.420 308.417 C 340.546 307.592,340.730 306.317,340.830 305.583 C 340.930 304.850,341.080 303.762,341.164 303.167 C 341.249 302.571,341.401 301.408,341.502 300.583 C 341.604 299.758,341.792 298.446,341.920 297.667 C 342.048 296.887,342.234 295.612,342.334 294.833 C 342.434 294.054,342.582 292.967,342.663 292.417 C 342.744 291.867,342.896 290.742,342.999 289.917 C 343.103 289.092,343.293 287.779,343.421 287.000 C 343.549 286.221,343.698 285.170,343.751 284.665 C 343.909 283.160,343.538 283.233,347.958 283.846 C 349.685 284.086,351.140 284.277,352.750 284.478 C 353.483 284.570,354.452 284.728,354.902 284.829 C 355.886 285.051,355.944 285.002,356.078 283.833 C 356.265 282.202,356.840 278.029,357.399 274.250 C 357.663 272.465,357.920 270.627,358.168 268.750 C 358.352 267.357,358.786 264.310,358.998 262.917 C 359.082 262.367,359.234 261.279,359.336 260.500 C 359.711 257.626,359.836 256.715,360.071 255.167 C 360.202 254.296,360.397 252.908,360.503 252.083 C 360.609 251.258,360.764 250.223,360.848 249.783 C 361.196 247.954,361.713 248.177,355.125 247.322 C 354.369 247.223,353.337 247.077,352.833 246.995 C 352.329 246.914,351.579 246.805,351.167 246.754 C 350.754 246.702,350.136 246.617,349.792 246.565 L 349.167 246.471 349.258 245.527 C 349.307 245.008,349.415 244.171,349.497 243.667 C 349.580 243.162,349.731 242.075,349.833 241.250 C 349.935 240.425,350.127 239.150,350.260 238.417 C 350.392 237.683,350.500 236.881,350.500 236.633 C 350.500 236.386,350.578 235.820,350.673 235.375 L 350.847 234.567 351.882 234.689 C 352.451 234.755,353.554 234.895,354.333 234.999 C 355.113 235.103,356.238 235.252,356.833 235.331 C 357.429 235.410,358.667 235.595,359.583 235.742 C 360.500 235.890,361.606 236.056,362.042 236.112 L 362.833 236.213 362.833 235.589 C 362.833 235.245,362.941 234.316,363.073 233.524 C 363.342 231.905,363.560 230.417,363.833 228.333 C 363.935 227.554,364.123 226.242,364.251 225.417 C 364.479 223.945,364.690 222.447,365.007 220.042 C 365.287 217.920,365.517 216.290,365.752 214.750 C 366.033 212.915,366.279 211.129,366.846 206.833 C 367.035 205.399,367.449 202.669,367.677 201.347 C 367.763 200.851,367.833 200.205,367.833 199.912 L 367.833 199.380 366.583 199.190 C 365.896 199.086,364.752 198.920,364.042 198.822 C 363.331 198.724,362.244 198.574,361.625 198.488 C 361.006 198.403,359.994 198.262,359.375 198.175 C 358.756 198.088,357.837 197.973,357.332 197.918 C 355.843 197.758,355.933 198.319,356.555 193.083 C 357.542 184.779,357.243 168.840,355.903 158.333 C 355.243 153.161,354.786 150.089,354.340 147.833 C 354.259 147.421,354.105 146.596,353.998 146.000 C 353.815 144.975,353.542 143.685,353.151 142.000 C 352.978 141.255,352.867 140.756,352.482 139.000 C 352.372 138.496,352.105 137.408,351.890 136.583 C 351.675 135.758,351.430 134.821,351.346 134.500 C 350.988 133.126,350.786 132.391,350.660 132.000 C 350.586 131.771,350.326 130.908,350.081 130.083 C 349.569 128.357,348.522 125.074,348.326 124.583 C 348.253 124.400,348.044 123.800,347.861 123.250 C 347.047 120.792,344.547 114.458,343.290 111.667 C 342.981 110.979,342.508 109.929,342.241 109.333 C 341.534 107.760,337.973 100.736,337.358 99.701 C 337.069 99.216,336.833 98.791,336.833 98.756 C 336.833 98.687,335.806 96.948,334.565 94.917 C 333.566 93.283,331.484 90.270,331.301 90.194 C 331.227 90.164,331.167 90.039,331.167 89.917 C 331.167 89.794,331.106 89.669,331.031 89.639 C 330.957 89.608,330.569 89.138,330.170 88.594 C 329.771 88.050,329.349 87.488,329.232 87.344 C 329.116 87.201,328.772 86.777,328.469 86.403 C 328.165 86.029,327.729 85.471,327.500 85.162 C 327.131 84.666,326.395 83.767,325.917 83.229 C 325.825 83.126,325.450 82.681,325.083 82.240 C 324.717 81.798,324.192 81.195,323.917 80.899 C 323.642 80.603,323.042 79.926,322.583 79.396 C 318.434 74.593,308.338 64.466,302.333 59.083 C 301.737 58.549,301.051 57.930,300.807 57.707 C 299.911 56.887,299.544 56.560,298.327 55.503 C 297.643 54.909,297.046 54.381,297.000 54.329 C 296.954 54.277,295.867 53.338,294.583 52.242 C 293.300 51.147,292.165 50.175,292.061 50.083 C 291.957 49.992,291.545 49.654,291.145 49.333 C 290.746 49.012,290.118 48.484,289.751 48.159 C 289.384 47.835,288.333 46.972,287.417 46.243 C 286.500 45.513,285.712 44.877,285.667 44.828 C 285.592 44.748,284.336 43.735,283.672 43.219 C 283.531 43.110,283.079 42.749,282.667 42.417 C 282.254 42.085,281.804 41.722,281.667 41.612 C 281.529 41.501,281.117 41.188,280.750 40.915 C 280.383 40.642,280.046 40.380,280.000 40.333 C 279.954 40.286,279.617 40.025,279.250 39.752 C 278.883 39.479,278.471 39.161,278.333 39.046 C 278.196 38.930,277.849 38.666,277.563 38.459 C 276.662 37.807,272.929 35.003,272.639 34.760 C 272.486 34.631,271.773 34.109,271.055 33.599 C 270.337 33.088,269.130 32.220,268.373 31.669 C 267.615 31.118,266.927 30.667,266.845 30.667 C 266.762 30.667,266.669 30.603,266.639 30.526 C 266.567 30.345,261.028 26.500,260.838 26.500 C 260.759 26.500,260.669 26.444,260.639 26.375 C 260.608 26.306,259.796 25.735,258.833 25.106 C 257.871 24.477,256.541 23.596,255.877 23.148 C 255.214 22.700,254.626 22.333,254.571 22.333 C 254.516 22.333,254.159 22.116,253.777 21.851 C 253.022 21.325,251.184 20.136,250.917 20.000 C 250.774 19.927,249.747 19.318,248.583 18.618 C 248.400 18.507,248.213 18.379,248.167 18.333 C 248.121 18.287,247.746 18.070,247.333 17.850 C 246.921 17.630,246.471 17.358,246.333 17.244 C 246.196 17.130,245.708 16.836,245.250 16.591 C 244.792 16.346,244.117 15.963,243.750 15.741 C 243.383 15.519,242.821 15.209,242.500 15.052 C 242.179 14.896,241.879 14.720,241.833 14.662 C 241.787 14.605,241.525 14.446,241.250 14.309 C 240.975 14.173,240.112 13.716,239.333 13.293 C 238.554 12.870,237.354 12.220,236.667 11.847 C 235.314 11.114,230.932 8.939,229.583 8.332 C 229.125 8.125,228.238 7.704,227.612 7.395 C 226.986 7.086,226.406 6.833,226.324 6.833 C 226.241 6.833,225.629 6.580,224.962 6.270 C 223.575 5.626,218.953 3.833,218.679 3.833 C 218.578 3.833,218.365 3.766,218.206 3.684 C 217.703 3.424,216.625 3.044,215.333 2.671 C 214.646 2.473,213.896 2.244,213.667 2.162 C 212.154 1.623,207.500 0.626,204.385 0.174 C 202.981 -0.030,197.697 -0.024,196.250 0.183 M202.624 12.430 C 209.615 13.874,213.835 21.432,211.407 28.161 C 208.391 36.523,197.755 38.945,191.537 32.685 C 183.099 24.189,190.865 10.001,202.624 12.430 M207.517 48.498 C 257.814 50.934,294.647 72.400,316.397 111.952 C 329.513 135.803,335.621 168.482,331.920 195.000 C 331.607 197.246,331.080 201.033,330.751 203.417 C 330.421 205.800,329.889 209.625,329.568 211.917 C 329.248 214.208,328.835 217.171,328.652 218.500 C 328.469 219.829,328.138 222.192,327.916 223.750 C 327.695 225.308,327.280 228.270,326.995 230.332 C 326.709 232.394,326.451 234.104,326.423 234.133 C 326.394 234.162,326.281 233.525,326.173 232.718 C 321.156 195.457,286.574 169.834,249.518 175.919 C 228.573 179.358,210.295 192.919,200.836 212.036 C 200.006 213.715,200.050 213.712,199.297 212.127 C 185.782 183.671,152.224 168.795,121.399 177.594 C 96.204 184.786,76.519 207.706,73.910 232.888 C 73.734 234.579,73.606 234.140,73.013 229.833 C 72.717 227.679,72.216 224.079,71.902 221.833 C 71.158 216.532,70.810 214.028,70.083 208.750 C 69.754 206.367,69.304 203.142,69.082 201.583 C 67.411 189.843,67.164 186.966,67.169 179.326 C 67.210 123.428,96.835 76.793,144.083 58.244 C 162.600 50.975,185.625 47.438,207.517 48.498 M144.288 205.411 C 146.662 205.724,148.352 206.095,150.542 206.785 L 151.834 207.192 151.792 241.380 L 151.750 275.568 150.923 275.863 C 144.710 278.086,136.601 278.190,129.458 276.138 L 127.667 275.623 127.667 241.418 L 127.667 207.212 128.375 206.943 C 129.881 206.371,133.504 205.588,136.083 205.277 C 137.490 205.107,142.621 205.191,144.288 205.411 M264.955 205.411 C 267.329 205.724,269.019 206.095,271.209 206.785 L 272.501 207.192 272.459 241.380 L 272.417 275.568 271.590 275.863 C 265.400 278.078,257.121 278.187,250.125 276.146 L 248.333 275.623 248.333 241.418 L 248.333 207.212 249.042 206.943 C 250.548 206.371,254.171 205.588,256.750 205.277 C 258.157 205.107,263.288 205.191,264.955 205.411 M115.579 268.310 C 115.431 268.458,113.058 266.022,111.623 264.250 C 99.799 249.644,100.963 228.609,114.320 215.511 L 115.583 214.272 115.626 241.247 C 115.649 256.083,115.628 268.261,115.579 268.310 M168.754 219.683 C 177.371 231.262,178.346 246.853,171.230 259.267 C 169.501 262.283,166.193 266.492,164.495 267.837 L 163.833 268.361 163.839 241.306 L 163.844 214.250 165.669 216.120 C 166.672 217.148,168.061 218.751,168.754 219.683 M236.237 268.318 C 236.184 268.371,235.412 267.665,234.522 266.749 C 220.443 252.257,220.689 229.483,235.077 215.438 L 236.250 214.293 236.292 241.257 C 236.315 256.087,236.291 268.265,236.237 268.318 M289.335 219.568 C 294.851 226.933,297.452 236.321,296.428 245.167 C 296.151 247.551,296.098 247.860,295.593 250.000 C 294.045 256.551,289.462 264.281,284.875 268.075 L 284.500 268.385 284.507 241.317 L 284.513 214.250 286.357 216.152 C 287.371 217.198,288.711 218.735,289.335 219.568 M148.712 241.333 C 148.712 241.746,148.745 241.915,148.784 241.708 C 148.824 241.502,148.824 241.165,148.784 240.958 C 148.745 240.752,148.712 240.921,148.712 241.333 M269.375 241.417 C 269.377 241.783,269.411 241.914,269.451 241.706 C 269.491 241.499,269.490 241.199,269.448 241.040 C 269.406 240.880,269.374 241.050,269.375 241.417 M139.377 250.453 C 139.631 250.491,140.006 250.490,140.211 250.451 C 140.416 250.411,140.208 250.380,139.750 250.381 C 139.292 250.382,139.124 250.415,139.377 250.453 M260.044 250.453 C 260.297 250.491,260.672 250.490,260.877 250.451 C 261.082 250.411,260.875 250.380,260.417 250.381 C 259.958 250.382,259.791 250.415,260.044 250.453 M187.833 301.750 C 181.188 308.396,175.826 313.832,175.917 313.831 C 176.140 313.827,176.629 313.506,176.417 313.503 C 176.326 313.501,181.613 308.137,188.167 301.583 C 194.720 295.029,200.045 289.667,199.999 289.667 C 199.953 289.667,194.479 295.104,187.833 301.750 M212.000 301.563 C 218.554 308.152,223.782 313.497,223.616 313.440 C 223.451 313.384,223.356 313.402,223.405 313.482 C 223.517 313.662,224.167 313.842,224.167 313.692 C 224.167 313.632,218.748 308.183,212.125 301.583 L 200.083 289.583 212.000 301.563 M175.833 355.916 L 175.833 362.000 133.755 362.000 C 100.159 362.000,91.694 362.042,91.761 362.208 C 91.836 362.395,94.926 364.012,95.192 364.003 C 95.252 364.002,95.766 364.262,96.333 364.583 C 96.901 364.904,97.471 365.167,97.599 365.167 C 97.728 365.167,97.833 365.242,97.833 365.333 C 97.833 365.425,97.983 365.500,98.167 365.500 C 98.350 365.500,98.500 365.579,98.500 365.677 C 98.500 365.774,98.569 365.811,98.652 365.759 C 98.736 365.707,98.830 365.724,98.861 365.798 C 98.931 365.965,102.703 367.833,102.970 367.833 C 103.078 367.833,103.167 367.908,103.167 368.000 C 103.167 368.092,103.312 368.167,103.490 368.167 C 103.668 368.167,103.862 368.244,103.920 368.339 C 103.978 368.433,104.602 368.777,105.305 369.102 C 106.008 369.427,106.696 369.763,106.833 369.849 C 107.313 370.148,109.503 371.167,109.667 371.167 C 109.759 371.167,109.833 371.227,109.833 371.301 C 109.833 371.375,110.152 371.568,110.542 371.730 C 110.931 371.891,111.513 372.170,111.833 372.350 C 112.154 372.530,113.113 373.012,113.964 373.422 L 115.511 374.167 199.922 374.125 C 247.336 374.102,284.333 374.147,284.333 374.228 C 284.333 374.307,284.518 374.251,284.744 374.103 C 284.970 373.954,285.270 373.833,285.411 373.833 C 285.552 373.833,285.667 373.777,285.667 373.707 C 285.667 373.592,286.481 373.168,286.786 373.125 C 286.858 373.115,287.246 372.897,287.649 372.642 C 288.052 372.386,288.446 372.217,288.524 372.265 C 288.603 372.313,288.667 372.274,288.667 372.177 C 288.667 372.079,288.781 372.000,288.920 372.000 C 289.059 372.000,289.470 371.813,289.833 371.583 C 290.196 371.354,290.607 371.167,290.747 371.167 C 290.886 371.167,291.000 371.097,291.000 371.013 C 291.000 370.928,291.281 370.767,291.625 370.655 C 291.969 370.542,292.511 370.274,292.830 370.059 C 293.150 369.843,293.537 369.667,293.691 369.667 C 293.846 369.667,293.999 369.588,294.031 369.491 C 294.063 369.394,294.201 369.293,294.336 369.266 C 294.734 369.187,295.207 368.968,295.872 368.554 C 296.214 368.341,296.607 368.167,296.747 368.167 C 296.886 368.167,297.000 368.092,297.000 368.000 C 297.000 367.908,297.114 367.833,297.253 367.833 C 297.393 367.833,297.804 367.646,298.167 367.417 C 298.530 367.188,298.941 367.000,299.080 367.000 C 299.219 367.000,299.333 366.925,299.333 366.833 C 299.333 366.742,299.415 366.667,299.516 366.667 C 299.764 366.667,302.236 365.448,302.306 365.292 C 302.336 365.223,302.505 365.167,302.681 365.167 C 302.856 365.167,303.000 365.092,303.000 365.000 C 303.000 364.908,303.120 364.833,303.266 364.833 C 303.412 364.833,303.736 364.688,303.984 364.511 C 304.233 364.334,304.639 364.138,304.885 364.076 C 305.132 364.014,305.333 363.909,305.333 363.842 C 305.333 363.775,305.637 363.620,306.008 363.497 C 306.380 363.375,306.720 363.215,306.765 363.142 C 306.846 363.012,307.631 362.630,308.208 362.440 C 309.455 362.030,306.633 362.000,266.419 362.000 L 224.337 362.000 224.294 355.958 L 224.250 349.917 200.042 349.874 L 175.833 349.832 175.833 355.916 M224.167 356.000 L 224.167 362.000 200.083 362.000 L 176.000 362.000 176.000 356.000 L 176.000 350.000 200.083 350.000 L 224.167 350.000 224.167 356.000 " stroke="none" fill="#d4ac14" fill-rule="evenodd"></path><path id="path1" d="M136.750 205.331 C 134.003 205.554,131.140 206.126,128.667 206.946 L 127.750 207.250 127.750 241.392 L 127.750 275.534 128.417 275.753 C 135.381 278.040,143.142 278.092,150.458 275.901 L 151.833 275.489 151.833 241.407 L 151.833 207.325 151.375 207.145 C 147.827 205.748,141.412 204.953,136.750 205.331 M257.417 205.341 C 254.748 205.542,252.439 205.988,249.541 206.863 L 248.333 207.228 248.375 241.381 L 248.417 275.534 249.083 275.753 C 255.904 277.993,263.684 278.095,270.693 276.035 L 272.250 275.578 272.292 241.396 L 272.334 207.213 271.209 206.861 C 266.803 205.482,262.239 204.979,257.417 205.341 M113.896 216.042 C 99.946 230.507,100.132 253.175,114.314 267.079 L 115.500 268.241 115.500 241.371 C 115.500 226.592,115.474 214.500,115.441 214.500 C 115.409 214.500,114.713 215.194,113.896 216.042 M163.833 241.415 L 163.833 268.407 164.932 267.329 C 179.264 253.256,179.491 229.914,165.430 216.003 L 163.833 214.423 163.833 241.415 M234.647 215.958 C 220.592 230.595,220.739 253.117,234.981 267.079 L 236.167 268.241 236.167 241.371 C 236.167 226.592,236.140 214.500,236.107 214.500 C 236.074 214.500,235.417 215.156,234.647 215.958 M284.504 241.292 C 284.502 256.121,284.564 268.167,284.643 268.167 C 284.858 268.167,287.436 265.434,288.654 263.917 C 299.974 249.807,298.956 229.167,286.303 216.250 L 284.508 214.417 284.504 241.292 M142.833 232.820 C 149.200 235.227,150.813 243.538,145.795 248.078 C 139.922 253.393,130.680 249.259,130.669 241.313 C 130.660 235.158,137.108 230.656,142.833 232.820 M263.489 232.817 C 269.894 235.245,271.486 243.510,266.436 248.121 C 260.699 253.359,251.333 249.218,251.333 241.443 C 251.333 235.163,257.720 230.631,263.489 232.817 " stroke="none" fill="#fbfbfb" fill-rule="evenodd"></path><path id="path2" d="M197.333 12.425 C 191.143 13.751,186.922 20.352,188.244 26.637 C 190.199 35.933,201.707 39.420,208.433 32.754 C 217.058 24.206,209.234 9.877,197.333 12.425 M192.083 48.514 C 164.636 49.867,141.386 56.879,122.250 69.576 C 87.549 92.602,67.203 133.141,67.169 179.326 C 67.164 186.966,67.411 189.843,69.082 201.583 C 69.304 203.142,69.754 206.367,70.083 208.750 C 70.810 214.028,71.158 216.532,71.902 221.833 C 72.216 224.079,72.717 227.679,73.013 229.833 C 73.606 234.140,73.734 234.579,73.910 232.888 C 76.519 207.706,96.204 184.786,121.399 177.594 C 152.224 168.795,185.782 183.671,199.297 212.127 C 200.050 213.712,200.006 213.715,200.836 212.036 C 210.295 192.919,228.573 179.358,249.518 175.919 C 286.574 169.834,321.156 195.457,326.173 232.718 C 326.281 233.525,326.394 234.162,326.423 234.133 C 326.451 234.104,326.709 232.394,326.995 230.332 C 327.280 228.270,327.695 225.308,327.916 223.750 C 328.138 222.192,328.469 219.829,328.652 218.500 C 328.835 217.171,329.248 214.208,329.568 211.917 C 329.889 209.625,330.421 205.800,330.751 203.417 C 331.080 201.033,331.607 197.246,331.920 195.000 C 335.323 170.622,330.388 140.477,319.241 117.536 C 296.450 70.633,250.406 45.640,192.083 48.514 M184.375 72.949 C 189.037 75.102,189.087 81.837,184.456 83.925 C 183.481 84.365,183.222 84.402,180.250 84.522 C 158.921 85.382,141.140 93.016,126.569 107.572 C 111.642 122.482,104.124 140.486,103.456 162.917 C 103.289 168.525,96.857 171.047,93.092 166.981 C 91.413 165.167,91.146 162.924,91.745 155.667 C 95.192 113.919,126.780 79.929,168.083 73.526 C 174.979 72.457,182.716 72.183,184.375 72.949 M114.000 215.750 C 113.595 216.162,113.301 216.500,113.347 216.500 C 113.393 216.500,113.762 216.162,114.167 215.750 C 114.572 215.338,114.865 215.000,114.819 215.000 C 114.774 215.000,114.405 215.338,114.000 215.750 M321.343 267.625 C 311.365 291.626,287.164 307.538,260.583 307.575 C 235.046 307.611,212.934 294.145,201.230 271.428 L 200.033 269.106 199.079 271.011 C 184.315 300.490,150.289 314.660,118.934 304.387 C 100.690 298.410,86.711 285.467,78.376 266.833 C 78.125 266.273,78.110 266.710,78.333 268.070 C 78.425 268.627,78.915 272.083,79.422 275.750 C 81.048 287.505,82.002 294.359,82.334 296.667 C 82.512 297.904,82.923 300.867,83.248 303.250 C 83.573 305.633,83.912 308.071,84.001 308.667 C 84.091 309.262,84.542 312.487,85.004 315.833 C 85.466 319.179,85.989 322.929,86.166 324.167 C 86.344 325.404,86.757 328.367,87.084 330.750 C 88.021 337.565,88.319 339.713,88.750 342.750 C 88.971 344.308,89.459 347.796,89.835 350.500 C 90.210 353.204,90.701 356.721,90.925 358.316 C 91.150 359.910,91.333 361.382,91.333 361.587 C 91.333 361.792,91.460 362.062,91.615 362.188 C 91.807 362.343,91.857 362.350,91.772 362.208 C 91.672 362.042,100.110 362.000,133.740 362.000 L 175.833 362.000 175.833 355.916 L 175.833 349.832 200.042 349.874 L 224.250 349.917 224.294 355.958 L 224.337 361.999 266.502 362.041 C 289.693 362.064,308.667 362.031,308.667 361.966 C 308.667 361.902,308.814 360.814,308.993 359.550 C 309.173 358.285,309.661 354.775,310.078 351.750 C 310.495 348.725,310.946 345.500,311.081 344.583 C 311.215 343.667,311.442 342.054,311.585 341.000 C 311.991 338.004,313.434 327.619,314.248 321.833 C 314.654 318.946,315.253 314.633,315.579 312.250 C 315.905 309.867,316.245 307.429,316.335 306.833 C 316.424 306.237,316.951 302.487,317.505 298.500 C 318.060 294.512,318.770 289.412,319.083 287.167 C 320.023 280.443,321.159 272.241,321.509 269.667 C 321.689 268.337,321.872 267.044,321.914 266.792 C 322.037 266.068,321.918 266.240,321.343 267.625 M212.243 301.660 C 218.839 308.256,224.199 313.690,224.153 313.736 C 224.108 313.781,218.666 311.116,212.059 307.814 L 200.048 301.809 188.025 307.821 C 181.412 311.128,175.945 313.833,175.876 313.833 C 175.807 313.833,181.188 308.396,187.833 301.750 C 194.479 295.104,199.991 289.667,200.083 289.667 C 200.175 289.667,205.647 295.064,212.243 301.660 M199.833 374.125 L 115.417 374.168 120.833 376.843 C 123.813 378.314,126.362 379.582,126.500 379.660 C 126.638 379.739,133.612 383.230,142.000 387.418 C 150.387 391.606,157.775 395.300,158.417 395.627 C 159.058 395.955,159.733 396.297,159.917 396.387 C 160.100 396.478,160.362 396.615,160.500 396.693 C 160.637 396.771,160.929 396.911,161.147 397.005 C 161.365 397.098,162.063 397.436,162.698 397.754 L 163.852 398.333 200.069 398.333 L 236.286 398.333 260.310 386.324 C 273.523 379.719,284.333 374.244,284.333 374.157 C 284.333 374.071,284.315 374.019,284.292 374.042 C 284.269 374.064,246.262 374.102,199.833 374.125 " stroke="none" fill="#ecbc1c" fill-rule="evenodd"></path><path id="path3" d="M137.713 232.585 C 131.712 233.889,128.755 241.201,132.170 246.294 C 135.939 251.917,144.287 251.655,147.555 245.811 C 151.345 239.035,145.315 230.933,137.713 232.585 M258.379 232.585 C 254.146 233.505,251.057 237.683,251.403 242.022 C 252.087 250.600,263.143 253.472,267.901 246.307 C 272.334 239.630,266.258 230.873,258.379 232.585 M188.167 301.583 C 181.613 308.137,176.326 313.496,176.417 313.491 C 176.509 313.486,181.871 310.833,188.333 307.595 L 200.083 301.708 211.893 307.613 C 218.389 310.861,223.730 313.493,223.762 313.461 C 223.794 313.429,218.479 308.062,211.951 301.535 L 200.082 289.667 188.167 301.583 M176.000 356.000 L 176.000 362.000 200.083 362.000 L 224.167 362.000 224.167 356.000 L 224.167 350.000 200.083 350.000 L 176.000 350.000 176.000 356.000 " stroke="none" fill="#343434" fill-rule="evenodd"></path><path id="path4" d="M175.333 72.672 C 130.138 76.622,95.425 111.088,91.745 155.667 C 91.146 162.924,91.413 165.167,93.092 166.981 C 96.857 171.047,103.289 168.525,103.456 162.917 C 104.124 140.486,111.642 122.482,126.569 107.572 C 141.140 93.016,158.921 85.382,180.250 84.522 C 183.222 84.402,183.481 84.365,184.456 83.925 C 189.087 81.837,189.037 75.102,184.375 72.949 C 183.485 72.538,178.588 72.388,175.333 72.672 M137.211 205.286 C 137.464 205.325,137.839 205.324,138.044 205.284 C 138.249 205.244,138.042 205.213,137.583 205.214 C 137.125 205.216,136.957 205.248,137.211 205.286 M141.377 205.286 C 141.631 205.325,142.006 205.324,142.211 205.284 C 142.416 205.244,142.208 205.213,141.750 205.214 C 141.292 205.216,141.124 205.248,141.377 205.286 M257.877 205.286 C 258.131 205.325,258.506 205.324,258.711 205.284 C 258.916 205.244,258.708 205.213,258.250 205.214 C 257.792 205.216,257.624 205.248,257.877 205.286 M262.044 205.286 C 262.297 205.325,262.672 205.324,262.877 205.284 C 263.082 205.244,262.875 205.213,262.417 205.214 C 261.958 205.216,261.791 205.248,262.044 205.286 M272.333 241.367 C 272.287 260.223,272.306 275.594,272.375 275.525 C 272.444 275.456,272.482 260.028,272.459 241.241 L 272.417 207.083 272.333 241.367 M165.250 215.833 C 166.071 216.658,166.781 217.333,166.826 217.333 C 166.872 217.333,166.238 216.658,165.417 215.833 C 164.595 215.008,163.886 214.333,163.840 214.333 C 163.794 214.333,164.429 215.008,165.250 215.833 M236.208 241.246 L 236.167 268.243 234.708 266.831 L 233.250 265.419 234.702 266.910 C 235.501 267.731,236.195 268.361,236.244 268.311 C 236.294 268.262,236.315 256.078,236.292 241.236 L 236.249 214.250 236.208 241.246 M285.917 215.833 C 286.738 216.658,287.447 217.333,287.493 217.333 C 287.539 217.333,286.905 216.658,286.083 215.833 C 285.262 215.008,284.553 214.333,284.507 214.333 C 284.461 214.333,285.095 215.008,285.917 215.833 M115.581 241.417 C 115.581 256.267,115.601 262.317,115.625 254.862 C 115.649 247.407,115.649 235.257,115.625 227.862 C 115.601 220.467,115.581 226.567,115.581 241.417 M224.212 238.833 C 224.212 239.246,224.245 239.415,224.284 239.208 C 224.324 239.002,224.324 238.665,224.284 238.458 C 224.245 238.252,224.212 238.421,224.212 238.833 M103.539 238.833 C 103.539 239.154,103.573 239.285,103.615 239.125 C 103.657 238.965,103.657 238.702,103.615 238.542 C 103.573 238.381,103.539 238.512,103.539 238.833 M296.561 241.417 C 296.561 242.333,296.589 242.687,296.623 242.203 C 296.657 241.718,296.656 240.968,296.622 240.536 C 296.588 240.104,296.560 240.500,296.561 241.417 M175.890 241.417 C 175.891 242.150,175.920 242.429,175.956 242.037 C 175.991 241.645,175.990 241.045,175.954 240.704 C 175.919 240.363,175.890 240.683,175.890 241.417 M224.212 243.833 C 224.212 244.246,224.245 244.415,224.284 244.208 C 224.324 244.002,224.324 243.665,224.284 243.458 C 224.245 243.252,224.212 243.421,224.212 243.833 M103.539 243.833 C 103.539 244.154,103.573 244.285,103.615 244.125 C 103.657 243.965,103.657 243.702,103.615 243.542 C 103.573 243.381,103.539 243.512,103.539 243.833 M112.833 265.713 C 112.833 265.738,113.415 266.319,114.125 267.004 L 115.417 268.250 114.171 266.958 C 113.014 265.759,112.833 265.591,112.833 265.713 M138.881 277.623 C 139.412 277.657,140.237 277.656,140.714 277.623 C 141.192 277.589,140.758 277.562,139.750 277.562 C 138.742 277.563,138.351 277.590,138.881 277.623 M259.548 277.623 C 260.078 277.657,260.903 277.656,261.381 277.623 C 261.859 277.589,261.425 277.562,260.417 277.562 C 259.408 277.563,259.017 277.590,259.548 277.623 " stroke="none" fill="#f3cb54" fill-rule="evenodd"></path></g></svg>